<?xml version="1.0" encoding="UTF-8"?>
<svg id="b" data-name="图层 2" xmlns="http://www.w3.org/2000/svg" viewBox="0 0 6803.15 5896.12">
  <g id="c" data-name="Endfield">
    <g id="d" data-name="Contour">
      <g id="e" data-name="Body">
        <path d="M2547.648,3604.113c73.581-1.592,143.099-4.025,212.627-4.348,75.075-.349,150.159,1.427,225.242,1.869,10.805.064,17.731,3.398,24.534,12.414,91.821,121.693,168.835,252.098,231.215,391.131,7.823,17.435,13.951,35.761,19.145,54.16,1.419,5.03-1.561,14.537-5.69,17.364-24.028,16.456-29.414,37.35-20.524,64.375,24.476,74.406,45.129,150.24,73.16,223.257,25.345,66.02,22.377,131.067,13.322,198.703-17.001,126.989-61.35,245-112.041,361.273-1.451,3.329-3.52,6.389-6.551,11.809-10.082-17.321-19.091-32.68-27.988-48.104-75.027-130.051-150.181-260.029-224.723-390.357-5.101-8.918-8.938-20.914-7.685-30.755,15.154-119.033-12.906-229.605-63.907-335.867-52.118-108.589-121.066-207.039-186.25-307.725-44.664-68.991-90.264-137.376-135.439-206.036-2.027-3.081-3.986-6.207-8.446-13.163Z" style="fill: #231815;"/>
        <path d="M5443.041,1742.803c-21.683-17.226-44.09-33.873-65.213-52.015-79.556-68.33-167.128-123.41-268.569-151.603-78.001-21.678-157.505-38.26-236.809-54.871-111.169-23.285-221.023-51.084-328.289-88.546-31.485-10.996-58.894-29.072-82.102-53.184-24.162-25.103-36.616-55.139-39.414-89.904-6.257-77.752,6.07-153.154,28.932-226.963,28.843-93.12,57.438-186.381,89.382-278.457,24.723-71.26,73.606-125.282,136.495-165.986,38.224-24.74,79.942-30.44,124.479-17.814,138.191,39.175,268.902,97.074,398.721,157.4,130.251,60.526,261.648,118.673,390.776,181.493,77.271,37.592,151.159,82.138,226.553,123.583,32.585,17.912,31.982,17.633,14.661,50.64-6.27,11.947-12.263,10.983-21.939,5.474-50.486-28.74-100.899-57.628-151.848-85.531-65.823-36.05-129.782-76.808-198.666-105.719-206.607-86.713-415.077-99.186-619.474,7.322-68.871,35.888-128.816,85.591-170.376,153.506-47.84,78.179-44.571,161.441,8.358,223.192,30.033,35.038,65.65,62.79,108.161,81.34,60.286,26.307,123.996,40.072,188.399,51.032,52.391,8.916,105.796,13.446,157.216,26.141,97.542,24.082,172.168,83.825,233.72,161.544,26.2,33.082,53.515,65.284,80.516,97.725,18.981,22.804,18.985,25.684-3.671,50.2Z" style="fill: #231815;"/>
        <path d="M989.242,352.761c20.443,0,38.262-.304,56.051.282,3.178.105,6.696,3.44,9.281,6.052,58.96,59.586,119.516,117.709,176.298,179.308,93.421,101.345,172.704,213.317,228.513,339.694,47.795,108.229,92.093,218.138,133.947,328.814,36.748,97.176,96.284,177.542,167.376,251.172,105.286,109.044,222.365,205.061,335.728,305.178,55.87,49.341,112.44,97.892,168.883,146.581,39.874,34.396,85.114,58.119,137.841,64.89,13.226,1.699,27.435.875,40.431-2.107,15.205-3.489,24.663-16.109,25.342-31.2,1.444-32.141,4.417-64.924-.059-96.476-10.388-73.213-23.164-146.194-38.095-218.626-14.585-70.753-3.216-139.637,7.892-208.961,24.298-151.635,53.04-302.305,98.762-449.209,14.106-45.322,29.39-90.276,44.447-136.357,23.62,12.471,45.626,23.347,66.616,35.919,3.423,2.05,4.568,12.228,3.029,17.574-17.427,60.538-38.071,120.258-53.024,181.379-31.107,127.154-64.023,254.168-87.256,382.853-19.851,109.951-3.649,218.819,46.561,320.381,34.231,69.242,89.094,119.788,151.882,162.926,62.407,42.876,131.989,71.143,200.815,101.137,86.413,37.658,172.652,75.718,258.853,113.859,11.763,5.205,22.875,11.881,34.288,17.877-.309,1.404-.618,2.808-.927,4.213-5.625.367-11.248,1.022-16.874,1.057-43.86.271-87.794,2.011-131.55-.027-23.597-1.099-47.891-5.959-70.106-13.999-42.917-15.533-86.269-24.952-131.924-21.964-24.809,1.624-47.14,8.35-61.682,31.151-1.935,3.034-8.314,4.534-12.642,4.551-92.107.343-184.219.84-276.322.196-30.75-.215-59.294-11.052-85.373-26.898-79.12-48.072-157.964-96.599-236.759-145.205-110.211-67.986-201.383-155.855-276.6-261.269-69.061-96.788-140.864-191.616-210.571-287.951-62.008-85.695-112.858-177.522-147.568-277.848-43.053-124.445-114.874-231.806-194.483-335.486-119.468-155.591-235.657-313.699-353.2-470.767-2.204-2.944-3.892-6.274-7.821-12.693Z" style="fill: #231815;"/>
        <path d="M5307.348,1982.552c-10.225,18.444-19.619,35.594-29.202,52.637-23.892,42.488-47.566,85.107-72.287,127.109-2.463,4.184-11.791,6.885-17.458,6.222-45.16-5.287-90.146-12.059-135.3-17.406-75.646-8.957-151.307-17.873-227.085-25.602-167.918-17.125-336.11-31.734-503.82-50.654-188.565-21.272-369.437-73.289-544.738-145.362-32.942-13.544-66.295-26.127-99.744-38.372-9.037-3.308-13.412-7.492-13.204-17.467.49-23.505.157-47.028.157-73.114,6.76,1.885,12.243,3.229,17.61,4.937,90.886,28.929,181.327,59.375,272.863,86.07,32.08,9.356,67.057,14.475,100.341,13.026,151.137-6.579,302.192-15.404,453.182-24.904,213.838-13.454,425.164-3.059,632.001,58.843,49.848,14.918,100.811,26.11,151.243,39.086,4.566,1.175,8.999,2.867,15.442,4.949Z" style="fill: #231815;"/>
        <path d="M3401.439,5281.907c-20-34.53-39.68-67.304-57.792-100.924-3.153-5.853-1.676-16.052,1.021-22.927,41.207-105.072,84.897-209.21,124.163-314.993,60.945-164.187,98.042-334.113,114.408-508.568,2.963-31.583,7.747-63.032,12.743-94.375,3.024-18.966-.001-36.172-5.437-54.603-8.28-28.074-11.929-57.513-17.859-87.985,19.525-1.191,19.658-12.207,19.341-25.91-1.038-44.967-2.319-90.375,19.021-131.998,8.195-15.984,18.997-30.629,28.594-45.896,5.241-8.338,11.189-16.333,15.523-25.121,11.356-23.025,6.784-41.874-16.424-52.071-31.478-13.83-64.353-24.567-96.892-35.874-22.246-7.73-45.012-13.953-67.378-21.355-4.934-1.633-11.025-4.302-13.411-8.36-14.351-24.4-27.778-49.344-43.647-77.95,10.277,2.867,16.455,4.312,22.451,6.308,44.718,14.887,89.523,29.527,134.015,45.065,13.057,4.56,17.896.725,19.729-12.076,5.343-37.322,11.249-74.564,21.127-114.402,7.633,9.251,16.14,17.919,22.759,27.846,47.294,70.938,88.008,145.469,116.982,225.785,35.779,99.181,58.643,201.454,55.313,307.26-3.355,106.605-24.047,210.951-51.135,314.117-38.878,148.071-87.002,292.917-147.459,433.578-36.441,84.784-84.14,163.584-130.789,242.913-23.326,39.665-46.619,79.35-69.991,118.988-2.452,4.158-5.332,8.064-8.974,13.528Z" style="fill: #231815;"/>
        <path d="M4198.801,880.378c-8.018,19.644-13.614,34.869-20.339,49.579-41.048,89.793-79.165,180.493-102.691,276.948-25.664,105.219,3.4,179.28,94.331,238.886,78.547,51.488,165.578,82.301,254.301,109.602,153.622,47.271,310.763,74.259,471.046,86.54,137.43,10.53,266.874,49.262,384.116,124.289,32.762,20.966,66.611,40.228,99.809,60.521,6.096,3.727,15.41,6.53,9.932,17.14-5.028,9.738-12.824,10.667-22.229,6.641-51.9-22.219-104.273-43.388-155.678-66.698-134.517-60.997-274.995-90.459-422.989-87.65-107.979,2.05-216.336,1.1-323.293-15.394-53.291-8.218-105.735-23.84-157.506-39.584-88.032-26.771-176.267-53.489-262.465-85.487-75.704-28.103-145.206-69.77-209.867-118.495-73.451-55.349-95.57-132.662-63.104-218.799,11.783-31.262,24.723-62.127,38.345-92.634,4.807-10.766,12.258-20.773,20.136-29.68,64.911-73.384,145.387-124.096,235.351-161.087,33.443-13.751,66.229-29.093,99.474-43.339,8.994-3.854,18.569-6.353,33.321-11.3Z" style="fill: #231815;"/>
        <path d="M5753.736,1211.569c-11.264,19.777-21.723,37.716-31.732,55.903-4.481,8.143-9.821,7.498-17.634,4.848-51.884-17.604-103.616-35.804-156.148-51.264-18.894-5.56-40.629-8.447-59.742-5.064-78.637,13.916-116.977,112.531-70.323,180.381,30.729,44.69,64.101,87.573,96.617,131.021,32.245,43.085,32.476,42.982,4.298,88.461-4.843,7.816-10.317,15.24-16.98,25.017-12.456-13.829-23.727-26.189-34.831-38.698-37.466-42.208-73.163-86.148-112.653-126.366-85.665-87.247-190.638-134.152-312.732-143.687-78.185-6.105-153.997-23.206-225.163-57.125-18.661-8.894-37.088-19.437-53.219-32.25-40.735-32.356-47.112-70.817-18.777-114.564,44.697-69.006,106.161-116.926,184.188-144.217,153.384-53.647,302.539-41.149,449.939,23.553,111.87,49.106,214.52,114.758,320.873,173.786,17.2,9.546,34.325,19.226,54.018,30.264ZM4961.422,1290.64c20.737-5.736,55.795-12.609,88.641-25.237,40.564-15.595,65.45-62.474,53.309-104.438-12.233-42.28-29.799-83.373-48.712-123.239-12.587-26.532-38.344-33.179-66.961-26.436-61.863,14.577-119.57,38.695-173.773,71.774-44.302,27.037-53.914,79.258-20.633,119.423,10.433,12.59,21.885,24.657,34.397,35.142,34.498,28.908,71.997,51.822,133.732,53.01Z" style="fill: #231815;"/>
        <path d="M563.232,348.29c6.016,4.561,13.308,8.112,17.841,13.845,29.57,37.398,56.939,76.651,88.014,112.725,90.12,104.618,180.438,209.115,272.946,311.614,104.853,116.177,191.228,244.035,254.271,387.252,85.139,193.413,190.178,375.172,313.925,546.446,64.819,89.715,125.64,182.335,191.077,271.582,37.845,51.615,81.33,99.09,122.151,148.531,7.132,8.638,13.642,17.789,22.52,29.432-37.587,0-71.313.419-105.003-.495-4.55-.124-9.755-6.288-13.25-10.756-102.291-130.755-204.164-261.837-306.644-392.442-52.427-66.816-110.245-129.867-157.75-199.958-55.848-82.402-103.924-170.148-154.005-256.369-110.936-190.992-220.918-382.538-331.486-573.745-67.49-116.712-135.391-233.185-202.956-349.853-6.172-10.658-11.239-21.957-16.819-32.958,1.722-1.617,3.444-3.234,5.166-4.852Z" style="fill: #231815;"/>
        <path d="M3666.818,3602.377c18.08,0,34.911.022,51.743-.004,76.212-.118,152.426.036,228.633-.658,12.824-.117,19.731,3.885,27.305,14.727,51.909,74.315,85.132,155.661,94.608,245.966,7.799,74.323-2.987,147.367-15.235,220.648-15.522,92.868-56.281,174.233-103.723,253.857-72.913,122.372-143.721,245.999-215.488,369.054-2.563,4.394-5.813,8.387-8.743,12.567-1.284-.651-2.568-1.303-3.852-1.955,7.424-22.681,14.669-45.423,22.3-68.034,41.304-122.381,71.339-247.532,88.836-375.43,30.119-220.156-21.4-423.112-132.857-612.798-10.537-17.933-21.876-35.395-32.815-53.093-.257-.415-.172-1.042-.711-4.847Z" style="fill: #231815;"/>
        <path d="M1235.471,350.004c19.205,0,33.33-.314,47.418.262,2.864.117,6.714,2.95,8.219,5.603,58.144,102.493,116.031,205.131,174.029,307.707,96.071,169.91,189.1,341.395,275.43,516.549,26.811,54.397,58.527,106.856,92.582,157.095,54.737,80.75,132.592,127.577,229.466,141.78,67.76,9.935,119.656-18.929,161.616-68.742,45.66-54.206,67.035-119.233,75.63-188.191,14.029-112.559,24.333-225.59,38.98-338.061,18.539-142.36,59.635-278.317,122.849-407.497,18.535-37.876,35.013-76.755,52.79-115.008,1.773-3.815,5.985-9.195,9.15-9.252,35.893-.656,71.802-.416,111.32-.416-18.764,34.13-36.034,65.045-52.844,96.207-59.884,111.012-117.7,223.067-161.344,341.689-46.506,126.401-65.525,257.856-68.282,391.93-1.945,94.606-9.049,188.412-37.782,279.324-6.276,19.856-12.678,39.7-19.898,59.225-31.889,86.243-94.449,120.362-183.978,100.096-102.996-23.315-182.78-81.618-246.749-164.002-43.865-56.493-80.982-117.13-114.349-180.244-68.66-129.868-136.322-260.284-206.651-389.245-75.553-138.541-153.256-275.918-230.972-413.265-23.156-40.924-49.515-80.036-76.631-123.547Z" style="fill: #231815;"/>
        <path d="M1325.932,351.019h84.685c25.513,65.934,50.164,130.823,75.68,195.369,92.392,233.723,215.767,449.307,376.997,642.693,29.115,34.922,55.618,72.258,86.882,105.095,41.565,43.659,94.069,61.129,153.036,42.943,63.283-19.517,109.931-59.536,121.419-127.458,4.777-28.244-1.328-58.794-5.166-87.943-12.25-93.022-22.811-185.933-19.022-280.172,4.508-112.105,30.889-218.919,72.772-322.259,21.399-52.8,44.688-104.839,67.625-157.001,1.972-4.486,7.668-10.352,11.734-10.432,39.941-.781,79.903-.472,123.686-.472-14.615,34.078-28.078,65.609-41.65,97.093-42.738,99.146-88.241,197.559-107.796,304.599-10.904,59.683-16.062,120.423-23.588,180.715-5.427,43.477-10.258,87.028-15.768,130.494-7.235,57.062-12.975,114.405-22.894,171.007-9.359,53.41-31.289,102.66-62.518,147.279-37.859,54.092-94.602,75.857-158.283,57.889-32.536-9.18-63.951-22.741-95.222-35.871-29.026-12.187-46.476-37.546-64.47-61.823-63.864-86.165-114.808-180.134-166.055-273.968-90.117-165.004-180.778-329.711-271.124-494.591-38.703-70.633-77.192-141.384-115.747-212.098-1.511-2.772-2.701-5.718-5.213-11.091Z" style="fill: #231815;"/>
        <path d="M1984.28,1612.919c14.496,5.27,28.791,11.197,43.527,15.677,34.476,10.48,68.576,23.918,103.883,29.596,82.079,13.199,154.224-27.719,188.185-103.851,37.718-84.553,56.304-173.748,62.328-265.905,5.684-86.958,10.039-174.08,18.824-260.74,14.235-140.43,62.108-270.645,127.104-395.129,45.911-87.931,91.485-176.044,136.34-264.515,6.759-13.332,14.434-17.725,28.959-17.106,28.421,1.21,56.929.355,88.712.355-5.622,10.944-10.005,19.995-14.835,28.8-51.117,93.198-102.19,186.42-153.767,279.363-3.032,5.463-9.743,9.741-15.695,12.554-13.375,6.321-23.846,15.074-23.862,30.526-.072,68.578-26.395,130.533-48.056,193.634-46.933,136.72-80.748,276.651-103.13,419.374-9.085,57.935-18.952,115.824-25.453,174.07-10.272,92.035,2.036,182.441,22.932,272.271,9.885,42.494,17.857,85.959,20.861,129.388,3.322,48.024-12.55,57.451-58.596,43.789-49.241-14.61-88.785-45.173-126.585-77.698-89.322-76.857-177.565-154.968-266.201-232.622-2.725-2.388-4.965-5.33-7.431-8.013.652-1.272,1.304-2.545,1.955-3.817Z" style="fill: #231815;"/>
        <path d="M1988.034,2170.857c-30.554,0-57.828.278-85.085-.288-4.275-.089-9.67-2.98-12.527-6.309-68.515-79.832-137.987-158.889-204.777-240.147-122.565-149.116-225.182-311.493-314.339-482.5-55.975-107.362-110.345-215.591-168.041-322.018-86.217-159.039-188.622-306.762-310.441-441.222-77.576-85.626-150.874-175.144-225.491-263.423-15.658-18.525-28.689-39.27-45.025-61.891,39.787,0,75.191-.449,110.556.503,5.072.137,11.637,6.004,14.693,10.958,90.3,146.41,195.671,281.453,305.658,413.445,40.088,48.108,71.815,103.414,105.41,156.663,175.189,277.68,348.191,556.757,525.485,833.082,53.118,82.788,117.359,158.468,176.971,237.051,39.739,52.386,80.307,104.142,120.474,156.203,1.62,2.1,2.926,4.442,6.477,9.893Z" style="fill: #231815;"/>
        <path d="M6037.805,714.307c-157.716-97.555-324.859-171.508-494.131-241.478-74.321-30.721-146.495-66.648-219.526-100.467-8.144-3.772-15.512-9.222-22.083-17.388,21.048-.978,42.092-2.744,63.143-2.815,249.887-.848,499.775-1.363,749.662-2.306,15.165-.057,27.037,4.038,38.034,14.771,16.052,15.666,34.007,29.381,50.039,45.065,3.585,3.508,5.555,13.443,3.217,17.53-52.209,91.255-105.103,182.118-157.976,272.992-2.699,4.639-6.376,8.709-10.38,14.096Z" style="fill: #231815;"/>
        <path d="M3760.146,1626.382c4.851-10.504,8.737-18.329,12.127-26.362,13.063-30.95,7.427-55.279-22.865-70.727-31.455-16.041-65.277-27.949-98.924-39.061-51.501-17.009-103.608-32.244-155.727-47.299-22.742-6.57-38.874-19.452-47.989-41.122-8.877-21.105-17.549-42.295-26.311-63.448l3.336-4.993c89.679,26.481,179.359,52.961,270.832,79.971,9.603-41.124,18.991-81.33,28.38-121.536l3.68-.027c.668,4.983,1.952,9.971,1.907,14.948-.461,51.415,21.047,92.923,56.307,128.918,66.881,68.275,148.446,113.505,234.89,151.24,125.903,54.96,259.417,83.519,392.504,113.882,66.04,15.067,132.908,22.118,200.204,26.295,20.686,1.284,41.643.315,62.354-1.241,128.148-9.631,253.811,4.308,377.771,37.4,99.02,26.434,192.692,66.063,283.978,111.935,4.886,2.455,10.519,3.819,14.747,7.066,3.641,2.797,5.771,7.559,8.57,11.453-4.833,2.137-10.386,7.004-14.38,5.953-21.17-5.572-41.837-13.02-62.883-19.108-98.437-28.475-196.739-57.449-295.491-84.79-68.075-18.848-138.622-19.918-208.529-25.745-68.31-5.694-135.442,4.379-203.125,9.321-62.158,4.539-124.798,4.327-187.187,3.464-133.541-1.848-261.452-33.116-387.019-76.578-74.027-25.623-148.884-48.847-223.35-73.202-5.591-1.829-11.043-4.085-17.806-6.608Z" style="fill: #231815;"/>
        <path d="M3348.23,669.255h-57.102c9.28-14.096,16.439-25.497,24.114-36.539,47.504-68.351,95.821-136.154,142.25-205.227,12.661-18.835,20.697-41.043,29.016-62.419,4.168-10.709,9.54-13.957,20.462-13.679,27.117.692,54.263.227,84.211.227-37.704,115.572-106.879,208.632-178.787,303.618,22.667,2.444,38.05,3.181,52.702-14.55,69.812-84.476,123.104-178.251,163.944-279.564,1.58-3.918,7.195-8.833,10.959-8.858,67.408-.444,134.819-.21,202.231-.046.933.002,1.863.97,3.769,2.027-15.177,71.561-34.564,142.083-66.601,208.49-15.928,33.017-33.185,65.415-50.78,97.579-2.34,4.277-10.207,7.749-15.559,7.813-49.317.584-98.65.748-147.964.059-13.558-.19-19.386,1.904-21.758,17.727-7.376,49.212-17.653,97.989-27.053,148.265h-138.77c-9.641-54.303-19.198-108.127-29.282-164.924Z" style="fill: #231815;"/>
        <path d="M2183.02,2170.735c-48.158,0-96.318.154-144.473-.279-4.071-.037-9.468-2.982-11.962-6.297-99.515-132.255-201.389-262.845-297.223-397.725-77.08-108.485-148.51-221.123-219.407-333.83-110.315-175.372-215.596-353.95-327.887-528.023-58.688-90.977-127.122-175.738-192.351-262.406-69.193-91.935-143.332-180.251-202.081-279.716-1.366-2.312-2.462-4.783-5.372-10.491,25.632,0,49.252-.324,72.839.429,2.802.089,5.931,5.761,8.044,9.353,71.437,121.464,142.756,243.106,227.155,356.17,38.624,51.742,78.9,102.941,123.827,149.135,77.79,79.986,140.023,168.76,185.454,271.04,69.805,157.152,155.335,305.93,253.155,447.453,81.517,117.936,171.246,229.536,271.525,331.83,80.52,82.139,165.954,159.463,249.313,238.812,3.819,3.635,8.682,6.174,13.059,9.224-1.206,1.774-2.411,3.547-3.617,5.321Z" style="fill: #231815;"/>
        <path d="M896.818,350.529c11.445,0,20.168.526,28.8-.135,10.396-.797,16.585,3.336,22.859,11.878,91.498,124.573,182.637,249.425,275.667,372.851,46.484,61.672,98.235,119.375,144.723,181.044,63.1,83.706,111.179,176.123,145.615,275.132,36.962,106.27,92.646,201.825,159.897,291.393,73.05,97.29,146.25,194.498,217.444,293.143,82.303,114.039,186.223,202.863,306.671,274.021,53.299,31.488,105.011,65.666,157.319,98.82,8.181,5.185,15.698,11.417,25.616,18.702-5.51,1.627-8.329,3.165-11.16,3.188-39.469.319-78.943.748-118.405.276-6.5-.078-14.573-2.602-19.184-6.918-91.61-85.741-185.551-169.223-273.479-258.613-139.573-141.895-259.332-299.904-364.195-469.224-74.365-120.075-134.48-247.439-194.203-375.001-31.513-67.308-72.992-127.106-125.161-179.876-113.124-114.425-208.35-242.607-290.955-380.399-27.612-46.059-55.027-92.236-82.467-138.398-1.625-2.733-2.668-5.811-5.403-11.883Z" style="fill: #231815;"/>
        <path d="M2690.982,880.462c20.478,7.103,40.494,14.045,62.66,21.734-10.593,33.252-20.801,64.85-30.728,96.536-46.408,148.118-86.162,298.027-109.697,451.522-18.419,120.129,15.9,226.402,95.845,318.223,54.251,62.311,120.8,107.917,194.061,144.075,76.151,37.585,153.347,73.049,229.734,110.167,7.996,3.886,15.552,11.581,19.96,19.399,12.869,22.823,24.039,46.603,37.723,73.661-8.015-2.454-13.428-3.56-18.387-5.711-122.084-52.95-246.383-101.442-365.473-160.447-101.46-50.27-185.625-124.355-236.628-229.371-18.659-38.419-27.029-79.691-30.044-122.19-5.555-78.293,3.176-155.12,19.487-231.759,34.6-162.575,79.334-322.354,128.542-480.979.306-.986,1.083-1.825,2.947-4.861Z" style="fill: #231815;"/>
        <path d="M5321.447,1949.43c-13.387-2.877-26.824-5.537-40.152-8.665-120.602-28.304-240.872-58.141-361.943-84.267-42.547-9.181-87.087-8.939-130.645-13.666-93.913-10.192-187.237.891-280.668,7.375-129.031,8.955-258.012,18.625-387.032,27.735-74.726,5.276-145.902-11.183-215.888-35.532-74.015-25.751-148.197-51.044-222.64-75.523-14.233-4.68-17.39-10.64-13.792-24.637,7.467-29.044,22.687-53.121,42.753-74.795,9.353-10.102,19.321-12.024,32.508-7.754,81.345,26.34,162.828,52.258,244.379,77.956,42.867,13.508,86.206,25.551,128.91,39.539,95.942,31.427,194.389,44.107,294.989,40.366,90.932-3.381,182.098-4.667,272.673-12.513,154.737-13.405,301.81,20.826,447.816,64.255,63.564,18.907,126.441,40.137,189.45,60.86,4.175,1.373,8.545,6.967,9.673,11.4,1.061,4.167-2.05,9.397-3.325,14.159-2.355-2.099-4.711-4.197-7.066-6.296Z" style="fill: #231815;"/>
        <path d="M1446.464,351.367c8.347,0,15.342.446,22.256-.113,8.594-.695,12.009,3.021,14.918,11.1,55.391,153.841,128.686,298.747,217.872,435.742,61.493,94.457,132.514,181.422,208.532,264.289,64.6,70.42,181.801,55.362,231.854-28.581,8.069-13.533,15.102-27.684,24.212-44.501,1.655,6.757,2.93,10.551,3.486,14.448,8.042,56.362,19.778,112.517,23.095,169.162,5.399,92.213-72.723,139.214-139.232,136.318-36.649-1.596-65.612-20.631-88.542-48.015-25.667-30.651-50.071-62.371-74.685-93.891-94.58-121.117-180.128-248.338-256.554-381.648-57.981-101.136-101.995-208.6-142.871-317.474-13.092-34.869-27.109-69.39-40.619-104.103-1.343-3.451-2.103-7.128-3.721-12.733Z" style="fill: #231815;"/>
        <path d="M1517.711,353.563c29.878-5.601,30.9-4.866,42.858,20.988,50.245,108.63,104.549,215.005,177.926,310.313,40.811,53.008,83.153,104.646,135.504,147.259,44.232,36.005,91.337,48.018,145.052,23.377,55.523-25.47,83.939-70.378,86.103-129.489,1.838-50.186-1.443-100.7-4.873-150.904-4.45-65.115,1.14-129.199,13.751-192.941,1.902-9.613,3.654-19.257,5.642-29.766h60.902c-8.884,27.949-17.645,54.312-25.65,80.902-34.712,115.301-46.444,232.967-35.001,352.822,4.582,47.99,9.803,95.93,15.56,143.793,6.562,54.555-32.879,113.235-91.785,135.431-37.229,14.027-70.151,7.536-98.05-20.893-64.189-65.409-123.477-134.963-178.273-208.496-105.785-141.956-181.519-299.524-243.75-464.257-2.085-5.518-3.675-11.224-5.916-18.14Z" style="fill: #231815;"/>
        <path d="M3257.898,1811.721c28.597,6.893,57.474,12.808,85.74,20.862,84.844,24.175,169.308,49.691,254.239,73.545,24.03,6.749,49.216,9.309,73.753,14.363,11.206,2.308,22.435,5.186,33.127,9.204,87.208,32.77,174.526,65.271,261.351,99.034,94.628,36.797,192.323,59.456,293.25,70.021,135.091,14.141,270.002,30.006,405.034,44.729,73.989,8.067,148.068,15.308,222.653,24.94-6.488.872-12.975,2.495-19.465,2.504-139.221.209-278.443.241-417.664.299-107.432.044-214.866-.156-322.297.282-25.7.105-49.5-5.142-73.309-15.012-164.985-68.396-330.731-134.97-495.316-204.308-98.43-41.468-195.203-86.868-292.69-130.57-3.323-1.49-6.31-3.732-9.453-5.623.348-1.424.697-2.848,1.046-4.271Z" style="fill: #231815;"/>
        <path d="M3126.594,1902.286c-7.345,24.463-13.845,46.107-20.884,69.549,1.164.121-1.514.46-3.641-.467-89.438-38.982-180.258-75.939-258.032-136.3-43.568-33.813-86.994-69.169-124.043-109.714-61.358-67.148-77.349-151.286-75.754-240.078,1.386-77.157,21.278-150.497,42.409-223.778,30.503-105.781,60.706-211.648,91.099-317.461,2.249-7.831,4.998-15.519,8.334-25.8,19.288,8.092,38.037,15.23,55.894,24.153,3.038,1.518,4.462,11.418,2.884,16.214-13.688,41.605-29.847,82.453-42.187,124.433-26.099,88.782-53.571,177.357-74.542,267.4-28.057,120.462-8.04,233.841,70.091,332.431,51.733,65.279,117.863,114.303,191.412,152.804,40.762,21.338,82.804,40.228,124.259,60.243,4.832,2.333,9.594,4.809,12.702,6.372Z" style="fill: #231815;"/>
        <path d="M5805.907,1119.395c-9.803,17.677-19.468,33.625-27.624,50.311-5.92,12.115-12.424,12.243-23.03,5.91-51.76-30.904-103.797-61.345-155.796-91.846-77.517-45.469-154.09-92.952-239.707-122.39-117.959-40.559-238.036-58.694-362.192-32.615-92.908,19.515-176.349,57.323-241.365,128.074-20.806,22.642-38.378,49.43-52.363,76.901-23.615,46.391-12.964,89.502,25.168,124.985,35.887,33.393,79.161,54.324,125.362,66.158,79.027,20.241,159.192,36.06,238.932,53.49,51.439,11.244,103.299,21.087,148.778,49.986,3.152,2.002,6.146,4.252,8.666,9.935-4.055-.217-8.761.844-12.072-.838-87.876-44.656-185.177-51.229-279.507-70.079-61.781-12.346-123.553-25.864-180.76-53.683-34.037-16.552-62.651-40.003-83.835-71.967-26.134-39.435-30.732-80.317-13.551-125.049,25.279-65.817,67.571-116.997,125.445-156.418,110.094-74.991,232.858-102.205,364.451-102.313,147.103-.12,275.558,55.085,399.584,126.22,75.593,43.356,151.388,86.359,227.074,129.552,2.3,1.312,4.399,2.976,8.345,5.675Z" style="fill: #231815;"/>
        <path d="M2880.584,967.079c15.859,9.008,30.825,18.016,46.283,26.079,8.024,4.185,9.313,9.08,6.308,17.14-14.341,38.468-30.299,76.48-42.012,115.749-20.645,69.214-41.004,138.676-57.184,209.024-26.972,117.273,11.172,216.522,90.457,303.245,65.987,72.177,147.567,121.401,234.108,164.111,72.706,35.883,144.837,72.934,217.162,109.586,6.159,3.121,11.868,7.131,17.785,10.729-.463,1.445-.925,2.89-1.388,4.335-6.782-1.819-13.628-3.429-20.336-5.491-57.085-17.55-114.246-34.864-171.128-53.049-11.747-3.756-20.926-3.963-29.508,5.714-5.841,6.586-12.278,9.058-21.722,4.601-97.997-46.244-191.058-101.064-275.964-168.165-85.903-67.889-121.071-160.655-120.712-268.829.204-61.313,16.28-119.055,34.329-176.698,30.107-96.153,59.832-192.425,89.76-288.634.948-3.047,2.357-5.95,3.763-9.447Z" style="fill: #231815;"/>
        <path d="M1592.623,352.682c28.902-7.369,33.236-6.023,46.47,17.338,40.169,70.903,84.886,138.31,147.202,192.175,17.393,15.035,34.589,30.603,53.539,43.48,75.616,51.384,165.678,19.992,195.003-66.413,14.051-41.401,14.984-83.81,14.158-126.668-.378-19.59-.064-39.194-.064-59.917h34.375c-.236,4.42.139,8.216-.71,11.715-15.263,62.941-16.381,126.992-14.733,191.192,1.11,43.228,4.439,86.426,4.6,129.646.286,76.771-13.507,111.615-78.565,142.863-27.047,12.991-52.95,12.059-77.418-6.236-5.257-3.931-10.651-7.817-15.282-12.428-81.316-80.957-158.618-165.255-218.224-264.145-35.167-58.344-64.697-119.412-88.04-183.435-1.076-2.95-1.556-6.117-2.31-9.169Z" style="fill: #231815;"/>
        <path d="M4046.152,670.371c4.353-15.243,9.01-28.596,11.947-42.317,18.791-87.8,37.354-175.649,55.492-263.585,1.66-8.047,2.842-12.866,12.575-12.83,74.566.277,149.133.125,223.699.167.942,0,1.883.791,4.08,1.775-1.836,4.314-3.444,8.75-5.547,12.937-38.564,76.798-55.565,160.097-73.488,243.132-3.698,17.133-7.445,34.289-12.267,51.12-1.108,3.866-6.726,9.167-10.306,9.195-67.928.549-135.862.405-206.186.405Z" style="fill: #231815;"/>
        <path d="M3882.551,352.792h197.561c-16.43,103.819-28.954,207.191-67.749,304.746-1.714,4.312-7.705,9.849-11.74,9.878-76.166.549-152.338.357-228.508.251-.874-.001-1.747-.909-4.966-2.694,56.866-97.087,94.938-201.439,115.403-312.181Z" style="fill: #231815;"/>
        <path d="M2432.504,3602.705c26.346,0,49.756-.347,73.135.347,3.833.114,8.868,3.97,11.099,7.512,95.465,151.565,190.703,303.272,285.902,455.004,40.67,64.821,77.216,131.865,91.355,207.919,8.447,45.437,11.486,91.879,16.956,137.869-2.974.976-5.949,1.953-8.923,2.93-157.213-268.841-311.9-539.158-469.524-811.581Z" style="fill: #231815;"/>
        <path d="M3363.589,4557.931c13.233,48.983,26.461,97.969,39.704,146.95,4.146,15.334,8.456,30.624,12.455,45.997,2.434,9.359,7.235,17.983,17.536,14.968,5.194-1.521,10.41-10.203,11.777-16.483,20.044-92.068,38.671-184.45,59.37-276.368,8.156-36.221,20.511-71.503,31.169-107.148,1.337-4.472,3.99-8.551,6.033-12.812,1.563.17,3.126.341,4.688.512,0,6.368.881,12.881-.137,19.082-9.843,59.983-18.092,120.311-30.425,179.787-39.791,191.876-109.009,374.023-186.424,553.319-3.248,7.523-7.269,14.715-11.037,22.005-.459.889-1.593,1.429-3.616,3.159-11.143-19.001-22.181-37.754-33.151-56.545-15.745-26.969-30.321-54.711-47.606-80.652-9.364-14.053-8.004-25.158-1.824-39.286,19.961-45.637,40.287-91.209,57.727-137.834,30.577-81.741,52.22-166.062,66.871-252.136.338-1.988.918-3.935,1.385-5.901,1.836-.204,3.672-.408,5.507-.613Z" style="fill: #231815;"/>
        <path d="M4899.302,351.255c26.685,0,53.499-1.486,79.989.791,9.506.817,18.65,10.143,27.247,16.542,72.475,53.954,143.44,110.057,217.495,161.737,87.033,60.737,184.307,103.315,279.851,148.639,108.914,51.667,218.022,102.932,326.652,155.188,32.057,15.421,62.688,33.788,94.186,50.399,8.396,4.427,11.609,9.455,6.332,18.109-.561.919-.753,2.056-1.186,3.061-16.792,38.929-20.608,40.036-57.445,20.844-138.953-72.394-278.251-144.127-416.973-216.959-77.589-40.735-156.712-79.298-230.795-125.772-92.227-57.856-180.054-122.739-269.578-184.881-19.677-13.658-38.499-28.549-57.715-42.873.646-1.608,1.293-3.217,1.94-4.825Z" style="fill: #231815;"/>
        <path d="M2967.25,1026.977c16.172,12.584,31.21,23.427,44.964,35.709,2.761,2.465,2.222,10.97.517,15.726-15.706,43.81-33.702,86.87-47.747,131.189-23.429,73.935-33.513,149.327-19.472,226.984,9.974,55.161,40.513,98.098,78.848,135.619,35.52,34.765,74.801,65.658,111.46,99.308,9.987,9.167,18.984,21.121,24.03,33.58,8.511,21.012,13.502,43.449,19.974,65.286-1.156.86-2.312,1.721-3.468,2.581-17.403-9.767-35.007-19.194-52.171-29.365-56.128-33.262-111.871-66.969-160.273-111.517-70.66-65.034-109.125-143.816-100.951-240.935,3.473-41.267,9.276-83.204,21.1-122.718,22.748-76.021,50.518-150.539,76.289-225.652,1.583-4.615,3.897-8.98,6.898-15.795Z" style="fill: #231815;"/>
        <path d="M1665.692,350.14c47.916-1.537,92.315-5.921,132.839,24.947,17.07,13.003,42.163,17.851,64.388,21.136,31.246,4.618,55.335-11.998,76.204-34.36,5.135-5.503,14.387-9.322,22.043-9.887,18.931-1.395,38.034-.458,59.699-.458-2.291,32.042-3.888,61.373-6.634,90.595-2.305,24.535-6.371,48.899-8.916,73.416-5.791,55.778-83.691,115.078-148.744,61.103-71.424-59.259-134.369-125.654-181.073-206.431-3.258-5.635-5.752-11.711-9.806-20.064Z" style="fill: #231815;"/>
        <path d="M5041.377,355.037c30.33-4.507,57.017-7.085,83.196,13.602,118.641,93.749,251.235,163.417,390.33,221.853,125.764,52.835,251.751,105.453,370.437,173.509,26.619,15.264,53.018,30.922,79.885,45.733,10.352,5.707,13.096,12.246,7.037,22.447-1.669,2.811-2.674,6.007-4.191,8.919-12.677,24.326-13.869,24.781-37.82,10.983-164.491-94.761-335.772-175.898-509.211-252.543-100.872-44.577-193.755-101.902-281.245-168.554-24.838-18.922-50.272-37.062-75.186-55.887-8.146-6.155-15.51-13.346-23.231-20.063Z" style="fill: #231815;"/>
        <path d="M5165.378,354.288c30.764-3.173,56.216-5.682,79.598,9.505,129.236,83.938,272.659,137.171,415.186,192.564,110.592,42.982,215.572,97.465,316.463,159.86,11.644,7.201,23.334,14.366,35.346,20.917,7.984,4.355,9.72,9.297,4.912,17.156-6.244,10.205-11.952,20.737-19.178,33.383-19.646-10.789-38.245-20.722-56.582-31.118-140.857-79.855-287.673-147.05-437.749-207.523-113.293-45.651-220.014-103.439-317.646-177.306-5.977-4.522-11.419-9.751-20.349-17.441Z" style="fill: #231815;"/>
        <path d="M5700.21,1304.293c-44.944,77.353-88.799,152.832-134.031,230.681-8.085-9.583-14.982-17.161-21.217-25.249-28.384-36.827-56.829-73.613-84.76-110.782-18.786-24.999-27.535-53.104-24.04-84.726,4.445-40.225,27.773-62.781,68.466-62.131,20.028.32,40.55,3.127,59.855,8.425,40.605,11.144,80.567,24.637,120.756,37.287,4.071,1.282,7.883,3.388,14.972,6.496Z" style="fill: #231815;"/>
        <path d="M4003.277,3602.447c25.128,0,45.237-.34,65.311.324,3.473.115,7.626,3.838,10.083,6.976,59.367,75.811,103.215,160.069,135.063,250.681,2.062,5.865,1.768,14.618-1.214,19.885-41.292,72.922-83.237,145.474-125.107,218.068-.956,1.658-2.908,2.742-7.167,4.036,45.618-176.478,35.711-344.283-76.969-499.97Z" style="fill: #231815;"/>
        <path d="M3157.016,1635.466c-3.827-1.423-6.526-1.859-8.552-3.263-60.472-41.926-115.893-89.138-150.456-155.693-27.587-53.121-36.149-109.539-25.097-169.158,11.58-62.468,33.794-121.267,57.467-179.73,3.822-9.438,7.442-18.957,11.914-30.376,12.637,13.51,24.374,24.959,34.572,37.645,2.971,3.696,3.317,11.449,1.83,16.437-5.629,18.884-11.483,37.827-19.108,55.967-22.651,53.885-23.43,108.408-8.678,164.319,4.189,15.877,3.717,32.935,6.327,49.3.999,6.264,3.958,12.504,7.194,18.076,23.682,40.771,48.063,81.142,71.388,122.114,12.726,22.354,22.175,46.088,21.198,74.361Z" style="fill: #231815;"/>
        <path d="M3104.765,1180.575c6.722,9.298,11.842,16.322,16.903,23.389,21.379,29.852,48.966,51.285,84.297,62.232,52.271,16.196,104.39,32.914,156.923,48.208,12.739,3.709,19.952,8.096,23.492,22.092,6.527,25.808,16.144,50.835,25.741,80.045-18.716-4.061-34.473-6.944-49.944-10.934-50.883-13.123-102.031-25.411-152.354-40.441-35.203-10.514-66.743-7.826-96.498,13.985-5.144,3.77-11.045,6.508-17.996,10.533-34.446-71.855-21.906-139.51,9.436-209.109Z" style="fill: #231815;"/>
        <path d="M3415.871,3742.479c-29.956-6.919-55.387-12.719-80.782-18.678-25.058-5.879-50.044-12.068-75.124-17.85-33.489-7.721-58.874,11.898-85.482,26.49-2.309,1.266-2.709,9.877-1.064,13.867,11.692,28.35,24.558,56.218,36.158,84.604,4.606,11.27,6.945,23.467,10.316,35.242-1.391.604-2.783,1.207-4.174,1.811-55.839-87.473-111.678-174.947-168.902-264.59,6.174-.927,10.073-2.011,13.975-2.024,52.61-.169,105.223-.408,157.831-.037,9.144.064,18.781,1.478,27.312,4.638,31.338,11.609,62.28,24.284,93.425,36.42,17.509,6.821,31.1,17.831,40.114,34.63,11.039,20.573,22.66,40.834,36.396,65.477Z" style="fill: #231815;"/>
        <path d="M3448.514,351.274c-10.034,41.799-29.228,73.774-48.36,105.522-43.908,72.866-95.613,140.082-151.219,204.339-2.565,2.964-6.853,6.215-10.393,6.277-28.881.506-57.774.285-90.186.285,10.057-15.876,18.24-29.831,27.415-43.1,43.88-63.466,88.566-126.382,131.795-190.286,15.284-22.594,27.55-47.271,40.564-71.338,4.789-8.856,10.795-12.185,20.89-11.921,25.5.668,51.029.221,79.495.221Z" style="fill: #231815;"/>
        <path d="M3310.412,355.865c-17.589,31.259-33.346,63.734-53.131,93.536-47.521,71.581-96.876,141.947-145.781,212.603-2.027,2.929-6.955,5.369-10.576,5.433-26.224.458-52.459.246-81.7.246,5.867-11.015,10.191-20.723,15.874-29.557,50.056-77.809,100.353-155.464,150.583-233.162,5.944-9.195,13.535-17.723,17.543-27.694,9.296-23.125,25.762-28.926,49.05-26.377,17.808,1.949,36.001.388,54.023.388,1.372,1.528,2.743,3.056,4.115,4.584Z" style="fill: #231815;"/>
        <path d="M3180.617,350.584c-14.619,22.875-26.87,42.06-39.136,61.234-53.09,82.985-106.145,165.992-159.427,248.853-2.027,3.152-6.21,6.886-9.469,6.963-24.525.584-49.071.318-76.537.318,7.472-16.363,12.752-31.367,20.708-44.784,48.834-82.348,99.096-163.861,146.942-246.773,12.218-21.172,26.139-28.45,49.419-26.232,20.913,1.992,42.167.42,67.499.42Z" style="fill: #231815;"/>
        <path d="M3042.368,350.667c-65.552,105.863-135.528,204.717-183.656,316.535h-82.687c6.856-17.226,12.689-32.977,19.327-48.382,39.343-91.309,91.251-175.768,142.646-260.485,1.997-3.292,6.328-7.274,9.639-7.335,30.37-.564,60.755-.332,94.731-.332Z" style="fill: #231815;"/>
        <path d="M2649.884,668.171c19.69-39.607,36.156-76.575,55.928-111.679,37.614-66.78,77.053-132.534,116.04-198.533,1.802-3.051,6.545-6.096,9.984-6.172,23.962-.533,47.941-.282,75.142-.282-7.068,12.79-12.71,23.114-18.457,33.379-45.703,81.634-91.426,163.257-137.136,244.887-.534.955-1.235,1.914-1.423,2.95-5.959,32.795-27.359,39.936-57.022,35.75-12.683-1.79-25.829-.299-43.055-.299Z" style="fill: #231815;"/>
        <path d="M2308.197,349.413c-76.667,160.536-140.305,320.861-144.598,499.169-2.45-11.157-5.402-22.233-7.211-33.492-1.911-11.89-2.674-23.961-4.037-35.942-14.171-124.556,9.373-244.5,44.453-363.016,5.598-18.913,11.314-37.809,17.793-56.429,1.411-4.056,6.241-9.735,9.643-9.839,26.69-.813,53.415-.451,83.957-.451Z" style="fill: #231815;"/>
        <path d="M1689.983,2170.797c-26.628,0-53.262.261-79.877-.34-3.223-.072-7.446-4.153-9.347-7.448-70.337-121.952-140.462-244.027-210.584-366.103-4.621-8.045-8.987-16.236-12.021-25.438,114.333,124.095,210.903,262.189,314.236,394.926-.802,1.468-1.604,2.935-2.407,4.403Z" style="fill: #231815;"/>
        <path d="M3271.949,3991.754c39.429,12.665,74.081,23.869,108.781,34.925,48.998,15.613,97.961,31.347,147.116,46.452,8.647,2.657,12.331,6.454,13.012,15.655,1.729,23.358,4.601,46.631,7.312,72.798-14.278-4.644-26.516-8.33-38.553-12.589-61.875-21.892-123.604-44.202-185.615-65.7-13.446-4.662-22.108-11.388-26.608-25.671-6.537-20.746-15.566-40.706-25.444-65.87Z" style="fill: #231815;"/>
        <path d="M1566.452,1001.07c85.292,154.29,170.584,308.58,255.876,462.871-1.684,1.438-3.367,2.875-5.051,4.313-4.816-3.557-10.417-6.412-14.319-10.784-25.16-28.183-48.804-57.808-75.078-84.891-73.272-75.528-106.872-170.838-136.854-268.236-7.577-24.615-16.141-48.925-23.809-73.514-2.799-8.976-4.309-18.353-6.408-27.548,1.881-.737,3.762-1.474,5.643-2.212Z" style="fill: #231815;"/>
        <path d="M4244.499,3824.292c-39.987-74.365-79.18-147.254-119.399-222.048,14.601,0,30.786,1.675,46.495-.347,33.254-4.279,55.663,4.72,70.329,38.12,12.385,28.206,32.339,53.155,49.573,79.128,5.875,8.856,6.434,15.451.382,25.002-16.638,26.259-31.76,53.479-47.38,80.144Z" style="fill: #231815;"/>
        <path d="M1102.733,351.401c28.304,0,56.617-.352,84.902.365,4.441.113,10.078,4.091,12.94,7.936,63.269,84.991,115.034,177.046,165.078,270.138,1.691,3.145,2.462,6.784,3.662,10.192-1.237.896-2.473,1.792-3.71,2.688-41.534-49.739-81.147-101.261-125.141-148.719-44.454-47.954-93.251-91.882-140.145-137.574.805-1.675,1.61-3.35,2.414-5.026Z" style="fill: #231815;"/>
        <path d="M3993.16,2170.884c-7.347,0-14.694-.016-22.041.003-37.262.094-74.597-1.231-111.768.669-43.589,2.228-81.252-15.019-119.39-31.644-2.997-1.306-6.029-4.891-7.025-8.052-7.712-24.479-14.925-49.115-23.688-78.359,97.148,38.476,190.918,75.615,284.687,112.753l-.775,4.63Z" style="fill: #231815;"/>
        <path d="M4260.99,3603.035h110.851c-18.576,32.276-36.06,62.653-55.434,96.316-19.231-33.424-36.525-63.48-55.417-96.316Z" style="fill: #231815;"/>
        <path d="M6226.354,389.744l-40.549-37.475h60.742l-20.193,37.475Z" style="fill: #231815;"/>
        <path d="M4970.797,1257.717c-74.471-3.375-119.755-38.556-156.095-87.151-14.114-18.874-5.454-45.608,17.764-58.652,24.76-13.91,50.764-25.614,76.283-38.164,18.645-9.169,37.448-18.017,56.066-27.241,38.787-19.215,69.029-2.933,77.333,39.278,4.276,21.735,13.181,42.64,20.829,63.615,16.777,46.009,8.265,69.22-36.78,89.633-20.592,9.331-43.022,14.605-55.4,18.682Z" style="fill: #231815;"/>
        <path d="M5891.356,972.261c-7.138,13.147-13.878,25.56-21.704,39.974-10.207-4.823-19.846-8.411-28.515-13.617-177.055-106.321-364.526-191.902-551.791-277.964-136.52-62.741-274.728-121.239-416.931-169.964-42.001-14.391-83.917-28.481-129.674-25.209-59.302,4.241-103.011,35.785-142.848,76.273-48.376,49.165-77.015,110.121-104.526,171.691-57.299,128.237-88.946,263.205-105.098,402.352-4.842,41.711-9.417,82.68,4.691,123.511,16.582,47.989,50.697,79.471,93.899,103.233,75.737,41.656,157.258,66.139,241.318,84.078,117.364,25.046,234.978,49.226,351.52,77.724,99.877,24.422,184.477,79.63,263.381,144.011,22.065,18.004,44.435,35.765,67.828,51.957,12.41,8.59,16.504,15.982,6.675,28.614-3.282,4.217-5.254,9.454-8.856,16.14-7.532-3.97-14.748-7.309-21.506-11.405-66.506-40.304-130.704-84.573-202.989-114.784-94.391-39.451-192.341-64.36-294.484-69.756-201.327-10.637-393.617-61.533-581.967-129.383-60.119-21.657-113.505-57.213-164.135-95.968-39.098-29.928-52.259-72.486-43.364-118.877,9.453-49.302,24.385-97.619,38.172-146.011,22.608-79.357,57.378-153.985,92.727-228.154,9.646-20.239,24.452-39.132,40.506-54.979,37.488-37.003,47.634-75.361,26.862-123.716-6.817-15.87-8.296-30.483-4.659-47.443,22.354-104.255,55.064-205.209,93.815-304.396,4.102-10.499,10.759-8.917,18.096-8.917,107.463.002,214.925.111,322.388.091,27.412-.005,54.855-1.163,82.219-.12,9.016.344,19.307,3.997,26.522,9.44,138.711,104.637,274.955,213.019,429.938,293.584,70.493,36.645,143.662,68.117,214.437,104.247,134.738,68.783,268.63,139.223,402.847,209.027,1.372.714,2.384,2.123,5.204,4.714Z" style="fill: #231815;"/>
      </g>
      <g id="f" data-name="Frame">
        <polygon points="3465.737 5791.974 3407.584 5896.12 3344.556 5792.933 3407.585 5697.001 3465.737 5791.974" style="fill: #231815;"/>
        <path d="M6610.273,33.442l-61.401,124.437,129.403.017c-139.75,241.317-729.903,1266.786-867.948,1505.158,43.218,1.078,52.032-18.256,52.032-18.256L6735.886,122.678l-133.555-.15,62.062-122.528L2567.383.46v32.877l4042.889.105Z" style="fill: #231815;"/>
        <polygon points="6746.43 102.994 6803.15 .456 6687.934 .456 6636.369 103.006 6746.43 102.994" style="fill: #231815;"/>
        <path d="M192.877,34.075l61.401,124.437-129.403.017c139.75,241.317,942.466,1629.548,1080.51,1867.92-43.218,1.078-46.84-12.09-46.84-12.09L67.264,123.311l133.555-.15L138.757.633l328.751-.181v32.877s-274.632.746-274.632.746Z" style="fill: #231815;"/>
        <polygon points="56.72 103.627 0 1.088 115.216 1.088 166.781 103.639 56.72 103.627" style="fill: #231815;"/>
        <path d="M4298.355,4349.061h-22.909c-9.142,0-5.71-10.679,12.182-40.888,79.466-140.635,158.89-281.298,239.137-421.488,36.174-63.194,74.29-125.277,111.372-187.955,9.97-18.842,9.072-16.087,45.918-15.996-127.539,220.323-258.266,446.187-385.7,666.327Z" style="fill: #231815;"/>
        <path d="M3333.048,5711.046l74.724-111.887,69.563,105.115c139.112-241.685,276.484-480.349,413.897-719.085,34.257.152,45.931-8.862,10.206,54.189l-423.87,732.351c-23.784-38.67-46.31-75.293-70.097-113.966-25.069,40.83-49.305,73.03-75.081,115.011l-1255.667-2168.221c26.09-16.63,30.9-15.564,44.059,7.158l1212.265,2099.336Z" style="fill: #231815;"/>
        <path d="M2066.318,33.338V.931h312.197v32.407h-312.197Z" style="fill: #231815;"/>
        <path d="M1763.379.931h-456.311v32.522l456.391-.172-.08-32.35Z" style="fill: #231815;"/>
      </g>
    </g>
    <g id="g" data-name="EN Title">
      <g id="h" data-name="SubTitle_EN">
        <g>
          <path d="M977.32,3352.111v168.896h-43.904v-168.896h43.904Z" style="fill: #231815;"/>
          <path d="M1404.709,3521.008v-168.896h43.904l81.088,103.265v-103.265h43.68v168.896h-43.68l-81.088-103.264v103.264h-43.904Z" style="fill: #231815;"/>
          <path d="M2000.772,3352.111h64.96c11.497,0,22.288,2.317,32.368,6.944,10.08,4.631,18.89,10.791,26.432,18.48,7.539,7.692,13.475,16.652,17.808,26.88,4.33,10.23,6.496,20.943,6.496,32.144,0,11.054-2.128,21.693-6.384,31.92-4.256,10.23-10.157,19.229-17.696,26.992-7.542,7.767-16.352,13.965-26.432,18.592-10.08,4.631-20.944,6.944-32.592,6.944h-64.96v-168.896ZM2044.676,3483.824h10.08c7.616,0,14.409-1.194,20.384-3.584,5.971-2.388,11.011-5.674,15.12-9.856,4.105-4.179,7.241-9.146,9.408-14.896,2.163-5.747,3.248-12.058,3.248-18.929,0-6.72-1.12-12.992-3.36-18.815-2.24-5.824-5.415-10.826-9.52-15.009-4.109-4.179-9.149-7.465-15.12-9.855-5.974-2.387-12.694-3.584-20.16-3.584h-10.08v94.528Z" style="fill: #231815;"/>
          <path d="M2612.739,3352.111v91.841c0,4.928.186,9.968.56,15.12.371,5.151,1.491,9.82,3.36,14,1.866,4.182,4.816,7.58,8.848,10.191,4.032,2.614,9.706,3.92,17.024,3.92s12.954-1.306,16.912-3.92c3.955-2.611,6.905-6.01,8.848-10.191,1.939-4.18,3.098-8.849,3.472-14,.371-5.152.56-10.192.56-15.12v-91.841h43.68v97.889c0,26.285-6.013,45.472-18.032,57.567-12.022,12.097-30.502,18.145-55.44,18.145s-43.456-6.048-55.552-18.145c-12.096-12.096-18.144-31.282-18.144-57.567v-97.889h43.904Z" style="fill: #231815;"/>
          <path d="M3236.128,3395.344c-4.78-3.882-9.559-6.755-14.336-8.624-4.78-1.865-9.407-2.8-13.888-2.8-5.677,0-10.304,1.344-13.888,4.032-3.584,2.688-5.376,6.198-5.376,10.527,0,2.989.896,5.453,2.688,7.393,1.792,1.942,4.145,3.622,7.057,5.04,2.911,1.421,6.194,2.652,9.855,3.695,3.657,1.047,7.28,2.167,10.864,3.36,14.336,4.781,24.825,11.165,31.472,19.152,6.644,7.99,9.968,18.406,9.968,31.248,0,8.662-1.456,16.502-4.367,23.52-2.912,7.021-7.169,13.03-12.769,18.032-5.6,5.005-12.471,8.887-20.608,11.647-8.141,2.762-17.359,4.145-27.663,4.145-21.357,0-41.143-6.346-59.36-19.04l18.816-35.392c6.569,5.823,13.065,10.156,19.487,12.991,6.419,2.839,12.769,4.256,19.04,4.256,7.168,0,12.506-1.641,16.017-4.928,3.507-3.283,5.264-7.018,5.264-11.2,0-2.537-.448-4.738-1.344-6.607-.896-1.865-2.391-3.584-4.48-5.152-2.093-1.567-4.815-3.023-8.176-4.368-3.36-1.344-7.431-2.835-12.208-4.479-5.677-1.792-11.238-3.77-16.688-5.937-5.452-2.163-10.304-5.04-14.56-8.624s-7.693-8.099-10.304-13.552c-2.615-5.449-3.92-12.354-3.92-20.72s1.379-15.939,4.144-22.736c2.762-6.793,6.643-12.617,11.648-17.472,5.001-4.852,11.123-8.624,18.367-11.312,7.242-2.688,15.345-4.031,24.305-4.031,8.361,0,17.098,1.158,26.208,3.472,9.106,2.317,17.843,5.712,26.208,10.192l-17.473,34.271Z" style="fill: #231815;"/>
          <path d="M3745.277,3389.296v131.712h-43.902v-131.712h-36.064v-37.185h116.031v37.185h-36.064Z" style="fill: #231815;"/>
          <path d="M4333.277,3521.008h-54.656l-41.889-64.96v64.96h-43.902v-168.896h68.318c9.408,0,17.619,1.383,24.641,4.145,7.018,2.765,12.803,6.534,17.359,11.312,4.555,4.781,7.988,10.305,10.305,16.576,2.314,6.272,3.473,12.992,3.473,20.16,0,12.845-3.102,23.261-9.297,31.248-6.197,7.99-15.344,13.405-27.439,16.24l53.088,69.216ZM4236.732,3427.6h8.289c8.658,0,15.305-1.792,19.936-5.376,4.627-3.584,6.943-8.735,6.943-15.456s-2.316-11.872-6.943-15.456c-4.631-3.584-11.277-5.376-19.936-5.376h-8.289v41.664Z" style="fill: #231815;"/>
          <path d="M4787.548,3352.111v168.896h-43.904v-168.896h43.904Z" style="fill: #231815;"/>
          <path d="M5311.035,3389.296h-52.193v28.224h49.281v37.185h-49.281v29.12h52.193v37.184h-96.096v-168.896h96.096v37.185Z" style="fill: #231815;"/>
          <path d="M5827.351,3395.344c-4.779-3.882-9.559-6.755-14.336-8.624-4.779-1.865-9.406-2.8-13.887-2.8-5.678,0-10.305,1.344-13.889,4.032-3.584,2.688-5.375,6.198-5.375,10.527,0,2.989.895,5.453,2.688,7.393,1.791,1.942,4.145,3.622,7.057,5.04,2.91,1.421,6.193,2.652,9.855,3.695,3.656,1.047,7.279,2.167,10.863,3.36,14.336,4.781,24.826,11.165,31.473,19.152,6.643,7.99,9.967,18.406,9.967,31.248,0,8.662-1.455,16.502-4.367,23.52-2.912,7.021-7.168,13.03-12.768,18.032-5.6,5.005-12.471,8.887-20.609,11.647-8.141,2.762-17.359,4.145-27.662,4.145-21.357,0-41.143-6.346-59.361-19.04l18.816-35.392c6.57,5.823,13.066,10.156,19.488,12.991,6.418,2.839,12.768,4.256,19.039,4.256,7.168,0,12.506-1.641,16.018-4.928,3.506-3.283,5.264-7.018,5.264-11.2,0-2.537-.449-4.738-1.344-6.607-.896-1.865-2.391-3.584-4.48-5.152-2.094-1.567-4.816-3.023-8.176-4.368-3.361-1.344-7.432-2.835-12.209-4.479-5.676-1.792-11.238-3.77-16.688-5.937-5.453-2.163-10.305-5.04-14.561-8.624s-7.693-8.099-10.303-13.552c-2.615-5.449-3.92-12.354-3.92-20.72s1.379-15.939,4.143-22.736c2.762-6.793,6.643-12.617,11.648-17.472,5.002-4.852,11.123-8.624,18.367-11.312,7.242-2.688,15.346-4.031,24.305-4.031,8.361,0,17.098,1.158,26.209,3.472,9.105,2.317,17.842,5.712,26.207,10.192l-17.473,34.271Z" style="fill: #231815;"/>
        </g>
        <rect id="i" data-name="Dash" x="320.317" y="3415.437" width="386.535" height="31.071" style="fill: #231815;"/>
        <rect id="j" data-name="Dash" x="6050.748" y="3415.556" width="388.677" height="30.288" style="fill: #231815;"/>
      </g>
      <g id="k" data-name="ENDFIELD">
        <path id="l" data-name="LD" d="M4820.039,3271.069v-1006.247h278.974v744.29h397.987v-746.615c26.213,0,51.277-.031,76.341.005,132.669.188,265.372-1.365,397.999,1.084,132.594,2.449,251.893,44.087,351.972,133.559,96.986,86.707,147.63,196.124,160.38,325.136,9.434,95.463-5.842,186.264-47.045,271.857-63.61,132.139-171.709,211.732-310.496,251.92-58.157,16.84-117.7,24.421-178.523,24.391-366.771-.18-733.542.337-1100.312.619-8.675.007-17.35.001-27.277.001ZM5782.391,3012.978c36.056,0,71.638,1.702,106.991-.42,46.92-2.816,94.375-4.993,140.299-14.043,58.645-11.557,109.73-39.886,139.982-94.584,41.517-75.065,46.012-154.965,14.558-233.333-36.104-89.954-110.54-134.721-204.051-143.632-62.524-5.958-125.966-2.306-188.997-2.874-2.62-.024-5.246.779-8.781,1.342v487.544Z" style="fill: #231815;"/>
        <path id="m" data-name="E" d="M4761.659,3010.334v256.362h-759.501v-1002.826h751.421v255.252h-470.539v126.565h339.189v235.775h-339.474v128.871h478.904Z" style="fill: #231815;"/>
        <path id="n" data-name="I" d="M3651.909,2264.69h275.977v1003.504h-275.977v-1003.504Z" style="fill: #231815;"/>
        <path id="o" data-name="F" d="M3600.537,2265.331v255.164h-454.39v147.002h349.483v260.718h-351.969v339.861h-279.292v-1002.744h736.167Z" style="fill: #231815;"/>
        <path id="p" data-name="ND" d="M1814.015,2785.407v-522.761c46.161,0,90.968-.04,135.775.008,111.848.118,223.699-.281,335.542.581,104.62.807,203.445,24.614,292.008,82.052,130.923,84.91,207.497,204.558,226.874,360.267,12.347,99.218,1.596,194.269-43.624,284.807-74.594,149.351-196.319,235.483-358.089,265.637-51.379,9.577-104.457,12.863-156.84,13.674-138.688,2.147-297.778,1.146-436.49,2.055h0c-92.831-131.687-200.796-281.293-294.183-412.588-25.729-36.173-51.171-72.55-76.906-108.719-3.394-4.77-7.749-8.856-14.467-16.421v532.237h-278.788v-1003.682c20.692,0,40.835-.001,60.979,0,68.534.003,137.069.229,205.6-.193h20.52s162.422,229.22,240.445,336.491c42.553,58.505,85.497,116.726,128.287,175.059l13.387,17.508-.027-6.013ZM2102.863,3009.376c58.637,0,116.354,2.942,173.593-1.023,38.85-2.692,78.569-10.805,115.188-24.01,77.974-28.116,116.242-89.265,131.345-169.03,25.076-132.432-54.046-258.189-186.13-284.65-46.771-9.369-95.905-7.437-144.01-9.475-29.413-1.246-58.922-.23-89.986-.23v488.419Z" style="fill: #231815;"/>
        <path id="q" data-name="E" d="M1085.867,3009.857v258.388H325.691v-1003.266h750.375v255.289h-469.642v125.259h339.907v236.058h-337.928v128.271h477.463Z" style="fill: #231815;"/>
      </g>
    </g>
  </g>
</svg>