<?xml version="1.0" encoding="utf-8"?>
<!-- Generator: Adobe Illustrator 28.4.1, SVG Export Plug-In . SVG Version: 6.00 Build 0)  -->
<svg version="1.1" id="_图层_2" xmlns="http://www.w3.org/2000/svg" xmlns:xlink="http://www.w3.org/1999/xlink" x="0px" y="0px"
	 viewBox="0 0 772 772" style="enable-background:new 0 0 772 772;" xml:space="preserve">
<style type="text/css">
	.st0{fill:#FBE82E;}
</style>
<g id="_图层_1-2">
	<g>
		<path class="st0" d="M689.3,393.4c0-4.8-3.9-8.9-8.5-9.4c0-1.9,0-3.7-0.1-5.5c4.8-0.6,8.5-4.4,8.5-9.3c0-5-4-9.4-9.3-9.4
			c-0.1,0-0.2,0-0.3,0c-0.2-1.9-0.4-3.8-0.6-5.7c0.3,0,0.6,0,0.8,0c5.6,0,9.2-4,9.3-9.2c0.1-5.2-3.8-9.4-9.3-9.4
			c-1.2,0-2.3,0.2-3.4,0.6c-0.4-2.3-0.8-4.6-1.3-6.9c1.4,0.9,3.1,1.5,4.7,1.5c4.7,0,9.2-4.5,9.2-9.1c0-4.8-4.5-9.3-9.3-9
			c-3.6,0.2-6.1,1.6-7.5,4c-2.9-11.8-6.5-23.3-10.8-34.5c2.6-1.6,4.6-4.5,4.6-8c0-5.2-4.2-9.5-9.4-9.5c-0.9,0-1.7,0.1-2.4,0.3
			c-1.6-3.5-3.2-6.9-5-10.3c1.6,2.4,4.2,4,7,3.9c4.9,0.5,9-3.6,9.1-8.6c0.1-5-4-8.9-8.5-9.1c-5-0.1-9,3.8-9.1,8.7
			c0,1.2,0.2,2.4,0.6,3.5c-3.4-6.7-7.1-13.2-11.1-19.6c2.6-1.6,4.2-4.5,4.2-7.9c0-5.6-4.1-9.5-9.4-9.4c-2,0-3.8,0.6-5.2,1.6
			c-3.1-4.4-6.4-8.8-9.8-13c0.3-0.8,0.4-1.7,0.4-2.5c0-4.8-4.8-9.5-9.5-9.6c-0.3,0-0.7,0-1,0.1c-4.1-4.7-8.4-9.2-12.8-13.6
			c0.1-0.4,0.1-0.7,0.1-1.1c0-4.8-5-9.7-9.7-9.7c-0.5,0-1.1,0.1-1.7,0.2c-4.5-4-9.1-7.9-13.8-11.6c0.4-1,0.7-2.1,0.6-3.3
			c-0.1-4.8-4.4-9.4-9.5-9.4c-2.1,0-4,0.7-5.6,1.9c-4.2-3-8.6-5.8-13-8.6c2-1.5,3.1-3.9,3.4-7c0.4-4.8-4.3-9.4-9.1-9.5
			c-4.1,0-8.3,3.7-9.2,7.7c-2-1.1-4-2.1-6-3.1c-1.8-2.8-5-4.9-8.1-4.9c-0.5,0-1,0.1-1.6,0.2c-5.7-2.7-11.5-5.2-17.4-7.5
			c2.3-1.5,3.6-3.8,3.6-7.5c0-5.5-3.7-8.6-8.9-8.8c-5-0.2-9.2,4.2-9.1,9.1c0,0.7,0.1,1.5,0.3,2.2c-1.7-0.6-3.4-1.1-5.1-1.7
			c0-0.2,0-0.4,0-0.6c0-5-4.2-9.4-9.4-9.4c-3.6,0-6.7,2.1-8.3,5c-3-0.7-6-1.4-9-2.1c-1.9-2-4.5-3.2-6.9-3.1c-1.5,0.1-2.9,0.4-4.2,1
			c-16.4-2.8-33.2-4.3-50.4-4.3c-20.1,0-39.7,2-58.7,5.9c-1.7-1.5-3.9-2.5-6.2-2.5c-3.8,0-7.3,2.6-8.8,5.9c-2.2,0.6-4.4,1.2-6.5,1.8
			c-1-4.3-4-7.3-9-7.4c-5.2-0.1-9.1,3.5-9.3,9c0,1.5,0.2,2.8,0.7,4c-3.8,1.3-7.5,2.7-11.2,4.2c3.2-1.4,5.3-4.5,5-8
			c0.5-4.6-3.9-8.7-8.6-8.7c-4.5,0-8.7,3.8-8.7,8.7c0,4.9,3.9,8.7,8.7,8.7c1.3,0,2.4-0.2,3.5-0.7c-7.3,2.9-14.4,6.1-21.4,9.5
			c-1.7-1.6-4-2.7-6.5-2.7c-5,0-9.6,4.7-9.4,9.7c0,0.5,0.1,0.9,0.2,1.4c-10.2,5.9-20.1,12.3-29.5,19.3c-1.1-4.1-4.3-6.6-8.8-6.8
			c-4.8-0.2-9.3,4.5-9.2,9.2c0.1,3.1,2.2,6.3,5,7.9c-4.3,3.6-8.5,7.3-12.5,11.1c-1.7-2.4-4.5-4.1-7.5-4.1c-4.8,0.1-9.4,4.8-9.4,9.4
			c0.1,2.8,1.7,5.6,4.1,7.4c-3.8,4-7.5,8.1-11.1,12.4c-1.5-2.8-4.2-4.5-8-4.7c-5,0.4-8.9,3.5-9,9.2c-0.1,4,2.8,7.6,6.4,8.8
			c-7,9.4-13.5,19.1-19.4,29.3c-0.4-0.1-0.9-0.1-1.3-0.1c-5.2,0-9.5,4.7-9.5,9.5c0,2.2,0.9,4.4,2.4,6.1c-3.1,6.1-5.9,12.4-8.6,18.7
			c0-0.2,0-0.4,0-0.5c0.5-4.6-3.9-8.8-8.6-8.8c-4.8,0-8.8,4.2-8.8,8.7c0,4.8,4,8.8,8.8,8.8c2.5,0,4.8-1.1,6.5-2.8
			c-1.1,2.8-2.2,5.7-3.2,8.6c-0.9-0.3-2-0.5-3.1-0.5c-5-0.2-9.3,3.5-9.4,9.2c-0.1,4.5,2.8,8.1,6.8,9.1c-0.7,2.3-1.3,4.6-1.9,7
			c-3,1.7-5.2,4.9-5.2,8.4c0,2.1,0.8,3.9,1.9,5.5c-4.1,19.5-6.2,39.6-6.2,60.3c0,17.5,1.5,34.6,4.5,51.2c-0.2,0.7-0.3,1.4-0.3,2.1
			c0,2,0.7,3.9,1.7,5.5c0.8,3.8,1.6,7.5,2.5,11.3c-2.4,1.7-4.1,4.6-4.1,7.7c0,5,4.1,9.1,8.8,9.4c0.5,1.5,1,3.1,1.5,4.6
			c-0.3,0-0.5-0.1-0.8-0.1c-4.6-0.2-9.3,4.4-9.1,9.3c0.1,5.2,3.6,8.7,8.9,9.1c2.5,0,4.9-1,6.6-2.8c2.5,6.4,5.2,12.6,8.1,18.7
			c0.2,1.9,1.2,3.8,2.6,5.4c1.4,2.8,2.8,5.5,4.3,8.2c-3.6,1.4-6.7,5.2-6.7,8.9c0.1,4.7,4.8,9.2,9.6,9.2c2.3,0,4.4-1,6.1-2.6
			c2.8,4.5,5.7,8.9,8.7,13.2c-0.8,1.4-1.3,2.9-1.2,4.6c0.1,5.1,4.9,9.6,9.6,9.3c0.6,0,1.3,0,1.9-0.1c4.1,5.2,8.3,10.2,12.7,15
			c-0.1,4.9,4.8,9.6,9,9.5c5,5,10.1,9.8,15.4,14.5c0.5,4.5,5.1,9.2,9.6,8.7c0.3,0,0.6,0,0.9,0c4.6,3.6,9.2,7.2,14,10.5
			c-0.6,1.2-1,2.6-1,4.1c-0.1,5.4,4.1,9.5,9.3,9.5c2.9,0,5.5-1.2,7.3-3.4c5.4,3.3,10.9,6.5,16.6,9.5c-5,0.2-8.3,3.9-8.4,8.8
			c-0.1,4.7,3.6,9.1,8.9,8.8c5.3,0.2,9-4.1,8.9-8.8c0-1.7-0.5-3.2-1.2-4.6c2.4,1.2,4.8,2.3,7.2,3.4c0,0.3-0.1,0.7-0.1,1.1
			c0,5.1,4.3,9.6,9.5,9.6c3,0,5.6-1.5,7.3-3.7c11,4.2,22.4,7.8,34,10.7c-1.8,1.6-2.8,4-3,6.8c0.5,5.8,4,8.7,9.1,9
			c4.7,0.3,9.3-4.4,9.3-9.1c0-1.2-0.3-2.4-0.8-3.5c1.9,0.4,3.8,0.7,5.7,1.1c-0.2,0.8-0.3,1.7-0.3,2.6c0.1,5.5,4.1,8.7,9.4,9.3
			c5.3-0.8,9.2-3.9,9.2-9.3c1.9,0.2,3.7,0.4,5.6,0.5c0.4,5.2,4.8,8.6,9.4,8.9c4.5-0.2,8.5-3.5,9.4-7.8c1.9,0,3.8,0.1,5.7,0.1
			c0.9,4.3,4.7,7.4,9,7.6c4.2,0.2,8.8-3.2,9.5-8c1.6-0.1,3.1-0.2,4.7-0.3c0.5,5,4.6,8.1,9.1,8.3c5.1,0.1,9.5-3.9,9.6-9.3
			c0-0.3,0-0.6,0-0.8c1.9-0.3,3.9-0.5,5.8-0.8c-0.1,0.5-0.2,1-0.2,1.5c0,4.7,4.7,9.4,9.4,9.5c4.6,0.1,9.3-4.7,9.3-9.5
			c0-1.7-0.5-3.3-1.4-4.7c3.9-0.8,7.7-1.7,11.5-2.7c-2.3,1.5-3.8,4.2-3.9,7.2c-0.1,4.9,3.6,8.8,8.6,9c5,0.1,9-3.5,9.2-8.6
			c0.1-4.8-3.8-9.2-8.6-8.9c-0.1,0-0.2,0-0.3,0c13.2-3.7,26-8.2,38.4-13.6c0.5,5,4,8.3,9.1,8.3c5.6,0,8.7-3.5,9.5-9.1
			c0-2.3-1.2-4.7-2.9-6.5c5.2-2.6,10.3-5.4,15.3-8.3c0.5,0.1,1,0.2,1.5,0.2c3.6,0,7.9-2.9,9.2-6.7c2.1-1.3,4.1-2.7,6.1-4
			c0,0.3-0.1,0.7-0.1,1.1c-0.1,4.8,4.5,9.3,9.2,9.2c4.7-0.1,9-4.3,9-9.1c0-4.5-2.8-8-7.1-9c4.8-3.6,9.5-7.3,14-11.2
			c1.4,2.9,4.4,4.6,8.2,5.1c4.8,0,9.8-4.6,9.5-9.3c-0.2-3.2-1.6-6.2-4.2-7.9c3.5-3.3,6.9-6.8,10.2-10.3c1.6,2.5,4.4,4.1,7.9,4.1
			c5.1,0,9.2-3.8,9.2-9.3c0-3.7-2-6.7-5.1-8.2c3.9-4.7,7.7-9.5,11.3-14.4c0.7,4.9,4.5,7.2,8.8,7.5c4.7,0.3,9.2-4.4,9.1-9.2
			c0-4.7-4.6-9.5-9.2-9.1c-0.4,0-0.9,0.1-1.3,0.2c1.4-2,2.7-4,4-6.1c4.1-1.1,7.1-5.7,7.1-9.3c0-0.6-0.1-1.2-0.3-1.8
			c2.8-4.9,5.5-9.8,8-14.9c1.6,1.7,4,2.8,6.9,2.8c5.2,0,9.3-3.9,9.2-9.3c-0.1-5.5-3.8-8.5-8.7-9.2c0.8-2,1.7-3.9,2.5-5.9
			c3.9-1.4,6.9-5.2,6.5-8.9c0-1.9-0.5-3.6-1.3-5.1c4-11.4,7.2-23.2,9.8-35.2c1.6,1.2,3.4,1.9,5.4,1.9c4.8-0.1,9.2-4.4,9.3-9.2
			c0.1-4.6-4.7-9.5-9.4-9.5c-0.8,0-1.6,0.1-2.3,0.4c0.3-2,0.6-4,0.9-6c0.5,0.1,1,0.1,1.5,0.1c5.3,0,9.1-3.8,9.5-9.4
			c-0.4-5.1-3.8-9-9.1-9.2c0.1-1.5,0.2-3,0.3-4.6C685.5,402.5,689.3,398.1,689.3,393.4L689.3,393.4z M386.6,656.3
			c-148.5,0-268.9-120.4-268.9-268.9s120.4-268.9,268.9-268.9s268.9,120.4,268.9,268.9S535.2,656.3,386.6,656.3L386.6,656.3z"/>
		<path class="st0" d="M679.9,456.4c-4.8,0-8.9,3.9-8.8,9c0,5,4.1,9,8.8,8.7c4.9,0.3,8.9-3.9,8.8-8.9
			C688.6,460.3,684.6,456.4,679.9,456.4L679.9,456.4z"/>
		<path class="st0" d="M130.6,234.3c4.4,0,9.1-4.2,8.5-8.9c0.4-4.8-4.2-8.7-8.8-8.6c-4.8,0.1-8.7,3.9-8.6,8.9
			C121.8,230,125.5,234.3,130.6,234.3z"/>
		<path class="st0" d="M177.9,599.1c-4.2,0.1-8.7,3.8-8.6,9c0,4.5,4.1,9,8.8,8.6c4.6,0.5,8.8-4.2,8.7-8.8
			C186.8,603,182.3,599,177.9,599.1z"/>
		<path class="st0" d="M369.2,91.6c4.7,0,8.7-4.1,8.7-8.6c0-4.9-4.1-8.7-8.4-8.8c-4.9-0.1-9.4,4.2-8.9,8.5
			C360.1,87.5,364.8,91.6,369.2,91.6L369.2,91.6z"/>
		<path class="st0" d="M297.6,671c-5.2-0.1-8.9,4.8-8.9,8.6c0,4.5,4,8.8,8.8,8.8c4.6,0,9.1-4.2,8.6-8.5
			C306.6,675.4,301.9,671.1,297.6,671z"/>
		<path class="st0" d="M393.6,91.6c4.5,0,8.7-4.2,8.7-8.6c0-4.9-4.3-8.7-8.5-8.8c-5-0.1-9.3,4.3-8.8,8.6
			C384.5,87.5,389,91.6,393.6,91.6z"/>
		<path class="st0" d="M607.9,186.5c5.2,0.6,8.9-4.6,8.9-8.5c0-4.2-3.7-8.8-8.7-8.8c-4.9,0-8.8,4.2-8.8,8.6
			C599.2,182.4,603.4,187,607.9,186.5L607.9,186.5z"/>
		<path class="st0" d="M153.8,576c-4.9-0.1-8.8,4.5-8.8,8.4c-0.1,4.9,4.4,9.3,8.6,8.8c5.1,0.5,8.8-4.1,8.8-8.6
			C162.4,580.4,158.6,576.1,153.8,576L153.8,576z"/>
		<path class="st0" d="M536.4,647.9c-5,0-8.7,4.1-8.8,8.4c-0.1,4.7,4.2,8.9,8.6,8.9c4.4,0,9.1-4.4,8.6-8.6
			C545.3,651.9,540.6,647.9,536.4,647.9L536.4,647.9z"/>
		<path class="st0" d="M83,384.8c-4.9,0-8.6,4-8.7,8.5c-0.1,5,4.2,8.8,8.5,8.9c4.7,0.1,9.3-4.2,8.7-8.6
			C92.1,388.9,87.7,384.8,83,384.8L83,384.8z"/>
		<path class="st0" d="M202.3,623.5c-4.7,0-8.6,4.6-8.7,8.6c0,4.4,4.1,9.2,8.7,8.6c4.8,0.5,8.8-4.4,8.7-8.7
			C211,628.3,207.2,623.5,202.3,623.5L202.3,623.5z"/>
		<path class="st0" d="M83.1,360.5c-5,0-8.7,4.3-8.8,8.4c-0.1,5.3,4.2,8.9,8.4,9c4.9,0.1,9.3-4.1,8.8-8.5
			C92.1,364.7,87.7,360.5,83.1,360.5L83.1,360.5z"/>
		<path class="st0" d="M83.1,408c-4.5,0-8.9,4-8.7,8.5c0.2,5.2,3.2,8.5,8.2,8.9c5,0.4,9.4-4.1,8.9-8.4C92.1,412,87.3,408,83.1,408
			L83.1,408z"/>
		<path class="st0" d="M225.5,139.1c4.8,0,9.2-4.1,8.7-8.7c0.5-4.9-4.1-8.7-8.6-8.7c-4.6,0-8.7,3.9-8.6,8.8
			C216.9,134.7,220.6,139.1,225.5,139.1L225.5,139.1z"/>
		<path class="st0" d="M584.7,162.2c4.9,0.5,8.7-4.1,8.7-8.6c0-4.1-3.7-8.5-8.7-8.5c-4.7,0-8.7,4.5-8.7,8.5
			C576,158.2,580.4,162.7,584.7,162.2L584.7,162.2z"/>
		<path class="st0" d="M416.7,91.6c4.5,0,9-4.1,8.5-8.6c0.5-5.1-4.3-8.8-8.5-8.8c-4.4,0-8.6,4.1-8.7,8.5
			C408.1,87.5,412.4,91.5,416.7,91.6z"/>
		<path class="st0" d="M345,91.5c4.6,0.2,9.1-4.7,8.5-8.7c0.5-3.8-3.9-8.6-8.7-8.5c-4.5,0-8.8,4.6-8.6,8.7
			C336.6,87.8,340.1,91.3,345,91.5L345,91.5z"/>
		<path class="st0" d="M679.9,306c4,0.1,9-3.8,8.5-8.6c0.6-4.8-4.3-8.8-8.6-8.8c-3.9,0-8.8,3.8-8.5,8.6
			C671.6,302.3,674.9,305.9,679.9,306L679.9,306z"/>
		<path class="st0" d="M106.2,504.3c-4.1-0.5-8.6,3.9-8.6,8.5c0,5,4.8,8.7,8.6,8.7c4.1,0,8.6-3.8,8.7-8.5
			C114.9,508.1,110.3,503.8,106.2,504.3L106.2,504.3z"/>
		<path class="st0" d="M632.1,210.9c4.5,0.3,9.2-3.9,8.7-8.5c0-5-3.4-8.5-8.3-8.8c-4.2-0.2-9.1,3.8-8.8,8.6
			C624,207.1,627.3,210.6,632.1,210.9L632.1,210.9z"/>
		<path class="st0" d="M656.6,527.5c-4.4,0-8.7,3.9-8.6,8.8c0.1,3.8,3.7,8.5,8.8,8.4c4.2,0,8.9-4.1,8.4-8.7
			C665.6,531.5,661,527.4,656.6,527.5L656.6,527.5z"/>
		<path class="st0" d="M83.2,432.4c-4.8-0.1-8.8,4-8.7,8.2c0.1,5.1,3.3,8.8,8.2,8.9c4.9,0.6,8.8-4.4,8.9-8.2
			C91.7,436.3,87.3,432.5,83.2,432.4L83.2,432.4z"/>
		<path class="st0" d="M488.8,671.1c-4.5-0.1-8.6,4.2-8.6,8.6c0,5,4.4,8.5,8.3,8.6c4.9,0.1,9.1-4.3,8.7-8.4
			C497.7,675.4,493,671.2,488.8,671.1L488.8,671.1z"/>
		<path class="st0" d="M83,336.2c-4.3,0-9,4-8.5,8.6c-0.6,4.8,4.3,8.6,8.4,8.7c4.5,0.1,8.7-4.3,8.8-8.5
			C91.7,340.1,87,336.2,83,336.2L83,336.2z"/>
		<path class="st0" d="M680.1,479.9c-4.7-0.1-9.1,4.3-8.6,8.4c-0.6,4.9,4.3,8.7,8.3,8.8c4.6,0.1,8.7-4.1,8.7-8.4
			C688.5,483.9,684.2,480,680.1,479.9L680.1,479.9z"/>
		<path class="st0" d="M512.8,114.5c5,0.6,8.7-4.5,8.8-8.3c0-4.2-4-8.9-8.5-8.7c-4.9,0.2-8.5,3.6-8.8,8.4
			C504.1,110,508,115,512.8,114.5L512.8,114.5z"/>
		<path class="st0" d="M441.2,91.4c4.1-0.1,8.4-4.1,8.4-8.5c0-4.4-4.1-8.6-8.5-8.6c-4.5,0-8.9,4.1-8.5,8.6
			C432.3,87.5,436.9,91.5,441.2,91.4L441.2,91.4z"/>
		<path class="st0" d="M560.6,138.8c4.7,0,8.3-3.8,8.5-8.4c0.2-3.8-3.8-8.6-8.7-8.6c-4.7,0-8.8,4.8-8.5,8.7
			C552.2,135.2,555.8,138.8,560.6,138.8z"/>
		<path class="st0" d="M130.4,551.9c-4.3-0.4-8.6,3.9-8.5,8.6c0.1,4.4,4.2,8.4,8.5,8.4c4,0,8.6-3.9,8.6-8.6
			C139.1,555.7,134.5,551.4,130.4,551.9z"/>
		<path class="st0" d="M607.9,599.4c-4.3,0-8.4,4.1-8.5,8.5c0,4.4,4.2,8.8,8.6,8.5c4.4,0.2,8.4-4.1,8.4-8.5
			C616.6,603.5,612.4,599.3,607.9,599.4L607.9,599.4z"/>
		<path class="st0" d="M82.9,330.1c4.8,0,8.7-4.3,8.6-8.6s-4.2-8.7-8.6-8.3c-4-0.4-8.4,3.7-8.4,8.4C74.5,326.1,78.5,330,82.9,330.1
			L82.9,330.1z"/>
		<path class="st0" d="M106.1,258.3c4.1,0,8.6-3.7,8.5-8.6c0-4.9-4.5-8.6-8.6-8.4c-4.1,0.1-8.3,3.9-8.2,8.6
			C97.8,254.5,102.1,258.3,106.1,258.3z"/>
		<path class="st0" d="M321.6,91.3c4.2,0,8.6-3.6,8.5-8.4c0-4.7-3.8-8.5-8.5-8.5c-4.9,0-8.5,4.3-8.5,8.5
			C313.3,87.3,317.3,91.3,321.6,91.3z"/>
		<path class="st0" d="M83,456.8c-3.8,0-8.5,3.5-8.4,8.3c-0.2,5,4.4,8.6,8.3,8.6c4,0,8.4-3.8,8.4-8.3C91.5,460.7,87,456.8,83,456.8
			L83,456.8z"/>
		<path class="st0" d="M584.9,623.8c-4.2-0.2-8.4,3.6-8.5,8.2c-0.1,4.3,3.6,8.6,8.4,8.6c4.8,0,8.3-3.8,8.4-8.3
			C593.2,627.4,589.1,623.8,584.9,623.8L584.9,623.8z"/>
		<path class="st0" d="M225.8,648.1c-4.4-0.1-8.5,3.3-8.6,8.3c-0.1,4.8,4.3,8.6,8.5,8.5c4.3,0,8.5-4.1,8.3-8.4
			C234.2,652.4,230.5,648.2,225.8,648.1L225.8,648.1z"/>
		<path class="st0" d="M274.2,671.3c-4.3,0-8.7,4.1-8.4,8.6c-0.2,4.2,3.6,8.3,8.4,8.3c4.4,0,8.5-3.6,8.4-8.5
			C282.5,674.9,278.2,671.3,274.2,671.3L274.2,671.3z"/>
		<path class="st0" d="M177.9,162c4.9,0.1,8.6-4.1,8.5-8.4c0.1-4.2-3.8-8.3-8.3-8.4c-4.3-0.1-8.5,3.7-8.5,8.4
			C169.7,158.2,173.2,161.9,177.9,162L177.9,162z"/>
		<path class="st0" d="M656.7,233.9c4.4,0,8.3-4.2,8.3-8.4c0-4-3.5-8.4-8.4-8.4c-4.5,0-8.5,3.6-8.4,8.5
			C648.3,230.4,652.5,234,656.7,233.9L656.7,233.9z"/>
		<path class="st0" d="M153.8,186.4c4.1-0.1,8.3-3.5,8.3-8.4c0-4.4-3.5-8.4-8.3-8.3c-4.7-0.1-8.4,4.1-8.5,8.2
			C145.2,182.3,149.4,186.4,153.8,186.4L153.8,186.4z"/>
		<path class="st0" d="M679.9,282.4c4.4,0,8.3-3.4,8.4-8.3c0-4.7-4.1-8.4-8.3-8.5c-4.4-0.1-8.6,4.1-8.5,8.5
			C671.5,278.1,675,282.4,679.9,282.4L679.9,282.4z"/>
		<path class="st0" d="M249.8,114.4c4.7,0.2,8.3-4,8.5-8.2c0.1-4.4-4.1-8.6-8.4-8.6c-4.3,0-8.5,4.1-8.5,8.5
			C241.5,110.3,245.2,114.5,249.8,114.4L249.8,114.4z"/>
		<path class="st0" d="M632.6,576.3c-4.6-0.2-8.6,4.1-8.7,8.2c-0.1,3.9,3.4,8.4,8.1,8.5c4.6,0.2,8.6-3.6,8.6-8.2
			C640.8,580,636.6,576.4,632.6,576.3L632.6,576.3z"/>
		<path class="st0" d="M465.3,91.2c4.4,0,8.2-3.7,8.5-8.3c-0.1-4.4-3.5-8.3-8.2-8.4c-4.8-0.1-8.5,3.8-8.5,8.3
			C457,87.3,460.9,91.2,465.3,91.2L465.3,91.2z"/>
		<path class="st0" d="M393.4,695.7c-4.9,0.5-8.2,3.6-8.2,8.5c0,4.9,4,8.2,8.5,8.2c4.3,0,8.2-4.1,8.1-8.4
			C401.8,699.4,398.2,695.9,393.4,695.7L393.4,695.7z"/>
		<path class="st0" d="M704.2,385.2c-4.6,0.1-8.1,3.5-8.2,8.1c-0.1,4.8,4,8.4,8.2,8.4c4.4,0,8.2-3.8,8.4-8.3
			C712.4,389.3,708.9,385.2,704.2,385.2z"/>
		<path class="st0" d="M369.2,695.8c-4.8,0-8.1,3.5-8.2,8.1c-0.2,4.4,3.7,8.4,8.3,8.4c4.1,0,8.1-3.3,8.3-8.2
			C377.3,699.2,373.8,695.8,369.2,695.8L369.2,695.8z"/>
		<path class="st0" d="M512.8,671.5c-4.7,0-8.1,3.4-8.1,8.2c0,4.4,3.2,8,8.2,8.2c5.1-0.3,8.2-3.8,8.2-8.2
			C521.2,675.1,517.7,671.5,512.8,671.5L512.8,671.5z"/>
		<path class="st0" d="M679.8,504.6c-4.3,0-8,3.4-8.1,8.2c-0.1,4.6,3.6,8.2,8.1,8.2c4.5,0,8.1-3.2,8.4-8.2
			C687.7,507.6,684.2,504.6,679.8,504.6L679.8,504.6z"/>
		<path class="st0" d="M83,305.5c4.5,0,7.9-3.4,8.3-8.1c-0.3-5-3.9-8.4-8.3-8.3c-4.3,0-8.1,3-8.2,8.1
			C74.6,302.2,78.5,305.5,83,305.5z"/>
		<path class="st0" d="M130.4,210.5c4.7,0.1,8.3-3.4,8.3-8.3c0-4.7-3.4-8.1-8.2-8.1c-4.4,0-8,3.1-8.2,8.2
			C122.5,207.4,126.1,210.4,130.4,210.5L130.4,210.5z"/>
		<path class="st0" d="M416.7,695.8c-4.7,0.1-8,3.5-8.2,8.2c-0.2,4.2,3.7,8.2,8.2,8.2c4.2,0,8-3.3,8.3-8.1
			C424.7,699,421.3,695.8,416.7,695.8z"/>
		<path class="st0" d="M202.4,138.7c4.6-0.3,8.2-3.8,8.1-8.2c-0.1-4.6-3.3-8.1-8.3-8.3c-4.2-0.1-8.4,4.1-8.2,8.2
			C194.2,134.7,197.5,138.5,202.4,138.7z"/>
		<path class="st0" d="M704,377.4c4.7,0.2,8.1-3.5,8.5-8.1c-0.2-4.3-3.6-8.1-8.1-8.3c-4.2-0.2-8.4,3.3-8.5,8.1
			C696,373.7,699.3,377.2,704,377.4L704,377.4z"/>
		<path class="st0" d="M297.3,91.1c5-0.2,8-3.8,8.4-8.1c0.4-4.1-3.9-8.2-8.1-8.4c-4-0.2-8.5,4-8.3,8.2
			C289.3,87.1,292.5,90.8,297.3,91.1L297.3,91.1z"/>
		<path class="st0" d="M704.3,408.5c-4.3-0.1-8,3.4-8.3,8.1c0.5,5.2,3.5,8.1,8.2,8.2c4.7,0.1,8-3,8.3-8.1
			C712.6,412.6,709,408.6,704.3,408.5L704.3,408.5z"/>
		<path class="st0" d="M106.3,527.9c-4.5,0.1-8.2,3.5-8.3,8.1c-0.1,4.4,3.7,8,8.1,8.3c4.8-0.4,7.9-3.5,8.3-8.2
			C114.7,532,110.5,527.8,106.3,527.9z"/>
		<path class="st0" d="M656.5,552.2c-4.1-0.2-8.2,4.2-8.1,8.3c0.1,4.2,4.3,8.2,8.3,8.2c4.5-0.7,8.1-3.5,8-8.4
			C664.7,555.3,660.9,552.4,656.5,552.2L656.5,552.2z"/>
		<path class="st0" d="M536,114.2c4.6,0.1,8.2-3.2,8.3-8c0.1-4.7-3.4-7.7-8-8.4c-4.2,0.4-8.2,3.2-8.2,8.2
			C528.1,110.8,531.4,114,536,114.2z"/>
		<path class="st0" d="M344.9,695.9c-4.2,0.1-8.3,4-8.1,8.1c0.2,4.5,3.4,8,8.3,8.2c4.8-0.4,7.8-3.6,8.1-8.1
			C353.5,699.9,349.1,695.8,344.9,695.9L344.9,695.9z"/>
		<path class="st0" d="M560.6,648.4c-4.3-0.1-8.7,4-8.3,8.2c0.4,4.7,3.2,7.7,8.1,8.1c4.1,0.3,8.4-4,8.4-8.1
			C568.7,652.4,564.8,648.5,560.6,648.4L560.6,648.4z"/>
		<path class="st0" d="M704.3,353.1c4.1-0.1,8.3-4.4,8.1-8.4c-0.2-4.1-4.2-8-8.1-8.1c-4.1,0-8.2,4.1-8.2,8.2
			C696,349,700.2,353.2,704.3,353.1L704.3,353.1z"/>
		<path class="st0" d="M441,696.1c-5,0.3-7.8,3.5-7.9,8c0,4.8,3.5,7.9,7.9,7.9c4.9,0,8.3-3.9,8-8.1
			C448.9,699.5,446.1,696.2,441,696.1z"/>
		<path class="st0" d="M704.3,433c-4.9,0.2-8,3.3-8.1,7.9c-0.1,4.3,2.8,8,7.9,8c4.7,0.1,8-3.3,8.1-7.9
			C712.2,436.7,709.2,433.3,704.3,433L704.3,433z"/>
		<path class="st0" d="M82.9,480.6c-5.4,0-8.1,3.9-8,8.1c0.1,4.7,3.7,7.8,8.1,7.8c4.6-0.1,7.7-3.6,7.9-8.1
			C90.5,484,87.8,480.6,82.9,480.6L82.9,480.6z"/>
		<path class="st0" d="M177.9,624.3c-3.9,0.1-7.8,3-7.8,7.8c0,4.6,3.2,7.9,7.8,8c5,0.1,7.9-4,8-7.9
			C185.9,627.8,182.2,624.2,177.9,624.3L177.9,624.3z"/>
		<path class="st0" d="M153.8,599.9c-4.3,0.2-8,2.8-8,7.9c0,4.7,3,7.6,7.9,8c4.7-0.4,7.8-3,8-7.9C161.9,603.7,158,599.7,153.8,599.9
			z"/>
		<path class="st0" d="M488.7,90.8c4.2-0.2,7.8-3.2,7.8-7.9c0-4.4-3.1-8-7.9-7.9c-5.3,0-7.9,3.7-7.9,7.9
			C480.7,87.5,484.1,90.7,488.7,90.8z"/>
		<path class="st0" d="M608,161.5c4.3,0.2,8.1-3.6,8-7.9c0-4.2-3.9-8.1-8.1-8.1c-4.2,0.6-7.8,2.8-7.7,8.2
			C600.3,158.6,603.4,161.3,608,161.5L608,161.5z"/>
		<path class="st0" d="M632.4,185.8c4.6-0.1,7.8-3.2,7.7-7.8c0-4.9-3-7.8-7.9-7.9c-4.7,0-7.8,3.4-7.7,8
			C624.6,182.6,628,185.8,632.4,185.8L632.4,185.8z"/>
		<path class="st0" d="M321.7,696.3c-4.8,0-7.9,4-7.9,8c0.1,4.2,3.8,7.8,8,7.7c3.9-0.1,7.9-3.2,7.6-8
			C329.7,699.7,326.1,696.3,321.7,696.3L321.7,696.3z"/>
		<path class="st0" d="M704.2,329.3c4.6,0.1,7.9-3.3,7.7-7.7c0.2-4.4-3.4-7.8-7.7-7.8c-4.4,0-7.8,3.2-7.7,7.7
			C696.5,326.3,699.5,329.3,704.2,329.3L704.2,329.3z"/>
		<path class="st0" d="M130.5,576.9c-4.7,0.1-7.8,3.5-7.8,7.8c0,4.1,3,7.7,7.8,7.7c4.4,0,8-3.5,7.7-7.7
			C138.5,580.4,134.9,576.8,130.5,576.9z"/>
		<path class="st0" d="M680,257.5c4.1,0,7.8-2.8,7.6-7.8c0.2-4.9-3.7-7.7-7.8-7.6c-4.4,0.1-7.7,3.1-7.6,7.8
			C672.2,254.7,675.7,257.5,680,257.5z"/>
		<path class="st0" d="M249.9,672c-4.4-0.2-7.8,3.1-7.8,7.7c0,4.8,3.2,7.8,7.6,7.9c4.5,0.1,7.9-2.9,7.9-7.9
			C257.6,675.1,254.2,671.8,249.9,672L249.9,672z"/>
		<path class="st0" d="M584.7,138.1c4.7,0,7.8-3.6,7.8-7.7c0-4-3.1-7.7-7.8-7.7c-4.1,0-8,3.5-7.6,7.8
			C576.8,134.3,580.3,138.1,584.7,138.1L584.7,138.1z"/>
		<path class="st0" d="M82.8,281.8c4.2,0.1,8.1-3.4,7.8-7.4c0.1-4.5-2.9-7.7-7.2-8c-4.5-0.3-8,3.4-8.1,7.4
			C75.2,278.8,79.1,281.7,82.8,281.8L82.8,281.8z"/>
		<path class="st0" d="M106.1,233.2c4.1,0,8.1-3.7,7.6-7.8c0.4-4.2-3.5-7.6-7.6-7.6c-4.4,0-7.8,3.7-7.8,7.8
			C98.4,229.2,101.9,233.2,106.1,233.2L106.1,233.2z"/>
		<path class="st0" d="M465.7,696.4c-4.6-0.5-7.8,3.3-7.9,7.4c-0.1,4.8,3.7,7.8,7.3,7.9c4.1,0.2,7.8-3.2,7.9-7.3
			C473.1,699.6,469.5,696.2,465.7,696.4L465.7,696.4z"/>
		<path class="st0" d="M225.3,113.7c4.5,0.1,8-3.3,7.8-7.3c0.1-4.6-2.7-7.7-7.1-8c-4.8-0.3-8,3.5-8.1,7.3
			C217.8,110.3,221.2,113.6,225.3,113.7z"/>
		<path class="st0" d="M274,90.6c3.9,0.1,7.7-3.4,7.8-7.5c0.1-4.5-3.7-7.9-7.6-7.9c-4,0-8,3.5-7.6,7.6
			C266.1,87.4,270.6,90.5,274,90.6L274,90.6z"/>
		<path class="st0" d="M202.4,648.9c-4.2,0-7.6,3.3-7.7,7.5c-0.1,4.3,3.6,8.1,7.4,7.8c4.3,0.5,7.7-3.5,7.8-7.3
			C209.9,651.7,206.1,648.9,202.4,648.9L202.4,648.9z"/>
		<path class="st0" d="M704.4,457.7c-4.1-0.1-7.7,2.9-7.8,7.4c-0.1,5.1,3.9,7.7,7.4,7.8c4.3,0.1,8.1-3.3,7.8-7.4
			C712.1,460.9,708.2,457.7,704.4,457.7L704.4,457.7z"/>
		<path class="st0" d="M536.3,672.2c-4.1-0.5-7.8,3.7-7.8,7.5c0,4.1,3.6,7.7,7.6,7.7c4,0,7.6-4,7.7-7.4
			C544,675.9,539.7,671.7,536.3,672.2L536.3,672.2z"/>
		<path class="st0" d="M656.8,209.8c3.8-0.1,7.8-3.3,7.4-7.7c0.3-4-3.3-7.5-7.7-7.4c-4,0.1-7.5,3.3-7.4,7.7
			C649.1,206.4,652.5,209.9,656.8,209.8L656.8,209.8z"/>
		<path class="st0" d="M393.5,66.1c4.2,0,7.6-4.2,7.6-7.5c0.1-3.6-3.9-7.9-7.7-7.7c-4.1,0.3-7.4,3.5-7.4,7.6
			C385.6,62.3,389.8,66.1,393.5,66.1L393.5,66.1z"/>
		<path class="st0" d="M297.7,696.5c-4.5-0.1-8.1,3.8-7.7,7.4c-0.5,4.5,3.7,7.7,7.3,7.8c3.8,0,7.5-3.5,7.6-7.4
			C305,700,301.1,696.6,297.7,696.5L297.7,696.5z"/>
		<path class="st0" d="M679.8,528.5c-3.8,0-7.5,3.6-7.5,7.7c0,3.8,3.6,7.9,7.7,7.4c3.8,0.5,7.5-3.5,7.5-7.6
			C687.5,532.3,684,528.4,679.8,528.5L679.8,528.5z"/>
		<path class="st0" d="M608.4,624.6c-3.9-0.2-7.9,3.5-7.8,7.2c0.1,4.5,3,7.6,7.3,7.9c4.2,0.3,8-3.9,7.6-7.3
			C615.9,628,611.6,624.8,608.4,624.6L608.4,624.6z"/>
		<path class="st0" d="M58.3,376.6c4.5,0.1,7.8-3,7.8-7.3c0.1-4.3-3.1-7.5-7.2-7.6c-4.3-0.1-7.6,3-7.7,7.1
			C51.1,373.2,54.2,376.5,58.3,376.6L58.3,376.6z"/>
		<path class="st0" d="M58.8,386c-4.3,0.3-7.5,3-7.6,7.3c-0.1,4.4,3.2,7.5,7.4,7.8c3.5,0.2,8-3.8,7.5-7.5
			C66.7,389.8,62.4,385.8,58.8,386L58.8,386z"/>
		<path class="st0" d="M369.2,66c3.9,0.2,7.6-3.8,7.5-7.3c-0.1-4.2-3.3-7.7-7.4-7.7c-4.1,0-7.6,3.4-7.6,7.4
			C361.7,62.6,365.1,65.8,369.2,66L369.2,66z"/>
		<path class="st0" d="M632.4,600.5c-4.4,0.2-7.4,3.1-7.7,7.2c-0.3,3.9,3.8,7.7,7.5,7.7c3.4,0,7.9-3.3,7.4-7.5
			C640.2,603.8,636,600.3,632.4,600.5z"/>
		<path class="st0" d="M704,304.7c4.4,0,7.4-3,7.7-7.2c0.3-3.9-3.8-7.7-7.5-7.7c-3.4,0-7.5,3.4-7.5,7.5
			C696.7,301.4,700.5,305.1,704,304.7L704,304.7z"/>
		<path class="st0" d="M83,505.3c-3.6,0-7.6,3.5-7.6,7.4c0,4.3,3.9,7.9,7.3,7.5c4.4,0,7.4-2.9,7.8-7.1C90.8,509,86.6,505.3,83,505.3
			L83,505.3z"/>
		<path class="st0" d="M106.2,552.9c-4.1,0.2-7.3,3.2-7.6,7.2c-0.2,3.5,3.4,8,7.4,7.6c4.3,0,7.4-3.1,7.7-7.3
			C113.9,556.8,110,552.7,106.2,552.9L106.2,552.9z"/>
		<path class="st0" d="M58.5,409.2c-4.1,0.3-7.3,3.5-7.3,7.7c0,4.1,3.4,7.4,7.6,7.3c4.2,0,7.3-3.4,7.3-7.6
			C66.5,412.8,61.9,408.9,58.5,409.2z"/>
		<path class="st0" d="M153.7,161.1c3.4,0.2,7.7-3.7,7.5-7.6c-0.2-4-3.4-7.3-7.4-7.3c-4.1,0-7.6,3.4-7.6,7.3
			C146.2,157.6,149.7,160.8,153.7,161.1z"/>
		<path class="st0" d="M416.8,66c3.4,0.2,7.9-3.6,7.3-7.6c0-4-3.5-7.4-7.6-7.4c-3.9,0-7.3,3.6-7.3,7.7
			C409.4,62.7,412.8,65.8,416.8,66z"/>
		<path class="st0" d="M513,90.4c3.3,0,7.4-3.6,7.4-7.4c0-3.9-4-7.7-7.5-7.7c-3.3,0-7.9,3.5-7.4,7.6C505.1,87,509.6,90.4,513,90.4
			L513,90.4z"/>
		<path class="st0" d="M560.6,113.5c3.5,0.5,7.5-3.5,7.3-7.3c-0.2-4.2-3.3-7.5-7.5-7.5c-4,0-7.1,3.3-7.3,7.4
			C552.9,109.7,556.7,114,560.6,113.5z"/>
		<path class="st0" d="M130.4,185.4c3.8,0.2,8-4.3,7.6-7.4c0-3.9-3.5-7.1-7.3-7.4c-3.9-0.3-7.8,3.9-7.6,7.4
			C123.2,181.9,126.5,185.2,130.4,185.4L130.4,185.4z"/>
		<path class="st0" d="M704.1,481.1c-4.1,0-7.3,3.4-7.3,7.6c0,3.9,3.5,7.2,7.5,7.2c3.4,0.1,7.5-3.9,7.3-7.5
			C711.5,484.6,708.1,481.1,704.1,481.1L704.1,481.1z"/>
		<path class="st0" d="M178.2,137.9c3.4-0.1,7.6-4.1,7.2-7.6c-0.1-4-3.6-7.2-7.7-7.4c-3.2-0.1-7.4,3.8-7.3,7.5
			C170.6,134.2,174.8,138,178.2,137.9L178.2,137.9z"/>
		<path class="st0" d="M489,696.5c-4-0.2-8.1,4-7.7,7.3c-0.1,4.1,3.3,7.5,7.3,7.7c3.6,0.2,7.5-3.9,7.6-7.3
			C496.3,701.2,492.8,696.7,489,696.5z"/>
		<path class="st0" d="M58.6,352.2c3.9,0.2,7.7-4.1,7.5-7.5c-0.3-4.1-3.5-7.2-7.6-7.3c-3.7-0.1-7.7,4.2-7.2,7.5
			C51.3,348.9,54.6,352,58.6,352.2L58.6,352.2z"/>
		<path class="st0" d="M344.9,65.9c3.4,0.3,7.5-3.3,7.4-7.4c-0.1-3.9-3.4-7.3-7.2-7.4c-4-0.1-7.4,3.3-7.5,7.3
			C337.5,62.7,341.7,66.2,344.9,65.9L344.9,65.9z"/>
		<path class="st0" d="M656.7,577.3c-3.2-0.1-7.5,3.3-7.5,7.3c-0.1,3.7,3.8,7.4,7.3,7.5c4.1,0.1,7.7-4.3,7.5-7.3
			C664.2,581.1,660.3,577.4,656.7,577.3z"/>
		<path class="st0" d="M58.6,433.6c-3.9,0.1-7.3,3.5-7.3,7.4c-0.1,3.9,4.2,7.5,7.4,7.4c3.8-0.1,7.3-3.7,7.3-7.5
			C66.2,437.7,62.5,433.5,58.6,433.6z"/>
		<path class="st0" d="M441,65.9c3.9-0.1,7.4-3.5,7.4-7.3c0.3-3.9-4.1-7.5-7.3-7.5c-3.8,0-7.3,3.6-7.5,7.4
			C433.6,61.8,437.1,65.9,441,65.9L441,65.9z"/>
		<path class="st0" d="M225.6,672.3c-3.8,0-7.3,3.6-7.5,7.4c-0.2,3.4,3.5,7.5,7.3,7.4s7.4-3.5,7.4-7.3
			C233.2,675.9,228.8,672.3,225.6,672.3L225.6,672.3z"/>
		<path class="st0" d="M584.7,649.2c-3.7,0.1-7.2,3.6-7.3,7.3c-0.1,3.6,3.8,7.5,7.4,7.5c3.8,0,7.4-3.6,7.4-7.5
			C592.3,652.8,588.4,649,584.7,649.2L584.7,649.2z"/>
		<path class="st0" d="M58.4,328.9c3.8,0.1,7.4-3.4,7.5-7.2c-0.1-4.2-3.5-7.4-7.3-7.4c-3.8,0-7.1,3.2-7.3,7.2
			C51.2,324.9,54.4,328.8,58.4,328.9L58.4,328.9z"/>
		<path class="st0" d="M679.8,232.9c3,0.1,7.4-3,7.4-7.4c0-3.6-3.5-7.4-7.4-7.3c-4.3-0.1-7.4,4.3-7.3,7.4
			C672.7,229.6,676.3,232.8,679.8,232.9L679.8,232.9z"/>
		<path class="st0" d="M249.9,90.1c3.6,0,7.4-3,7.2-7.4c-0.1-4.1-3.5-7.2-7.2-7.2c-3.9,0-7.2,3.3-7.3,7.4
			C242.8,87.3,246.4,90.1,249.9,90.1z"/>
		<path class="st0" d="M83,257c4.3,0,7.2-3.8,7.3-7.1c0.1-3.2-2.9-7.4-7.3-7.4c-3.9,0-7.3,3.3-7.3,7.1C75.3,252.7,78.4,257.1,83,257
			z"/>
		<path class="st0" d="M274.2,696.8c-4.1-0.1-7.3,3.3-7.2,7.4c0.1,4.2,3.3,7.1,7.3,7c4-0.1,7-3,7.2-7.2
			C281.1,699.9,278.2,696.9,274.2,696.8z"/>
		<path class="st0" d="M321.7,65.8c4-0.2,7.3-3.4,7.2-7.2c-0.1-4.3-3.2-7.2-7.3-7.2c-4,0-7.1,2.9-7.2,7.2
			C314.5,62.3,317.6,65.7,321.7,65.8z"/>
		<path class="st0" d="M704.3,281.2c4.6-0.1,7-3.6,7.1-7.3c0.2-3.5-3.7-7.1-7.2-7.2c-3.5,0-7.3,3.8-7.3,7.4
			C697.2,278.1,700.3,281.3,704.3,281.2L704.3,281.2z"/>
		<path class="st0" d="M106.1,209.5c3.6,0.1,7.3-3.6,7.4-7.2c0.1-3.6-3.6-7.2-7.3-7.2c-4.4,0.4-6.9,3.2-7.2,7.2
			C98.8,205.9,102.5,209.4,106.1,209.5L106.1,209.5z"/>
		<path class="st0" d="M58.8,458.2c-3.6-0.2-7.2,3.2-7.3,6.9c0.4,3.9,2.6,7.1,7,7.2c4.5,0.1,7.3-2.9,7.4-6.9
			C65.8,461.6,63.4,458.6,58.8,458.2L58.8,458.2z"/>
		<path class="st0" d="M202.4,113.2c4.3-0.3,6.9-3.1,7-7.3c0.1-3.6-3.6-7.1-7.1-7.1c-3.5,0-7,3.6-7.1,7.2
			C195.1,109.8,198.7,113.5,202.4,113.2L202.4,113.2z"/>
		<path class="st0" d="M153.9,625c-3.5-0.1-7.2,3.3-7.4,7c-0.2,3.6,3.6,7.7,7.2,7.4c4-0.3,6.7-2.8,7.1-7.1
			C160.9,628.7,157.5,625.2,153.9,625L153.9,625z"/>
		<path class="st0" d="M632.3,160.8c3.6,0,7.3-3.8,7.1-7.4c-0.1-3.6-3.8-7.1-7.2-7c-3.5,0.1-7.2,3.9-7.1,7.2
			C625.2,157.3,628.8,160.8,632.3,160.8L632.3,160.8z"/>
		<path class="st0" d="M83,528.9c-3.5-0.1-7.1,3.5-7.2,7c-0.1,3.5,3.6,7.3,7.2,7.3c3.5,0,7.2-3.7,7.2-7.2
			C90.1,532.5,86.5,529,83,528.9L83,528.9z"/>
		<path class="st0" d="M465.3,65.6c3.6,0.1,7.1-3.2,7.3-6.9c0.1-3.5-3.3-7.1-7-7.2c-3.6-0.1-7.2,3.4-7.3,7
			C458.2,62,461.6,65.5,465.3,65.6z"/>
		<path class="st0" d="M130.6,600.9c-4,0.2-7,2.4-7.1,6.9c-0.1,4,2.4,6.7,6.9,7.1c3.6,0.1,6.9-3.1,7.2-6.8
			C137.8,604.6,134.2,600.7,130.6,600.9z"/>
		<path class="st0" d="M560.5,672.8c-3.7-0.3-7,3.1-6.9,6.9c0.1,4.4,3.2,7,7,7c3.9-0.1,6.6-2.8,6.8-6.9
			C567.1,675.5,565,673.2,560.5,672.8L560.5,672.8z"/>
		<path class="st0" d="M608.1,137.5c3.5-0.1,6.9-3.6,6.9-7.1c0-3.7-3.4-7.2-7.1-7.1c-3.7,0-6.8,3.2-6.9,7
			C601.1,134,604.6,137.6,608.1,137.5z"/>
		<path class="st0" d="M369.2,720.4c-3.8-0.2-6.9,3.2-6.9,6.9c0,3.6,3.3,7.2,6.9,7c3.8-0.2,6.8-2.6,7.1-7
			C375.9,722.9,373.4,720.6,369.2,720.4L369.2,720.4z"/>
		<path class="st0" d="M536.3,89.9c3.7-0.1,7-3.5,6.9-7.1c-0.6-4.1-2.6-6.8-7-6.8c-4.6,0-7,3.6-6.9,7.1
			C529.3,86.7,532.7,90,536.3,89.9z"/>
		<path class="st0" d="M393.5,720.4c-4.2,0.3-6.8,2.4-6.8,6.8c-0.1,4.6,3.1,6.6,7,7.1c3.6,0,7.1-3.7,7-7.2
			C400.4,723.4,397.2,720.1,393.5,720.4L393.5,720.4z"/>
		<path class="st0" d="M680.1,553.5c-3.6-0.4-7.2,3.2-7.3,6.8c-0.1,3.4,3.3,6.8,6.9,7c3.8,0.2,7.1-3,7.2-6.9
			C686.4,556.3,684.7,553.9,680.1,553.5L680.1,553.5z"/>
		<path class="st0" d="M727.4,386.5c-3.6-0.3-7.1,3.5-7,7.1c0.2,3.8,3.1,6.7,6.9,6.6c4.2-0.1,6.8-2.7,6.9-6.8
			C734.2,389,731.1,386.8,727.4,386.5L727.4,386.5z"/>
		<path class="st0" d="M177.9,649.6c-3.5,0.1-6.8,2.7-6.7,7c0.1,4.4,3.2,6.7,7,6.7c3.7,0.1,6.7-3.1,6.8-6.7
			C185,652.9,181.6,649.5,177.9,649.6z"/>
		<path class="st0" d="M513,697.2c-4.5,0.1-6.6,2.8-7,6.7c-0.4,3.5,3.1,6.9,6.8,7c3.7,0.1,6.9-3,6.9-6.8
			C519.7,700,516.9,697.3,513,697.2L513,697.2z"/>
		<path class="st0" d="M704.6,506.1c-4.7-0.2-6.8,2.4-7.4,6.5c-0.5,3.5,3.1,7.1,6.9,7.2c3.6,0.1,6.6-2.8,6.8-6.7
			C710.9,509.3,709,506.3,704.6,506.1L704.6,506.1z"/>
		<path class="st0" d="M416.6,720.6c-3.9,0-6.6,2.8-6.6,6.7c0,3.9,3.1,7.1,6.8,7c3.6-0.1,7.4-3.7,6.9-7.2
			C423.2,723.1,421.4,720.6,416.6,720.6L416.6,720.6z"/>
		<path class="st0" d="M727.5,376c3.9-0.2,6.8-2.9,6.7-6.9c0-3.8-3.2-7-6.9-7c-3.6,0-7,3.5-6.9,7.1C720.6,373,723.8,376.2,727.5,376
			z"/>
		<path class="st0" d="M58.7,304c4.2,0,6.5-2.6,6.7-6.6c0-3.8-2.6-6.8-6.8-6.8c-3.9,0.1-6.6,2.3-6.6,6.6C52,301.7,54.4,304,58.7,304
			z"/>
		<path class="st0" d="M727.5,410c-4.5,0.1-6.7,2.3-6.7,6.8c0,4.1,2.8,6.6,6.6,6.7c3.7,0.1,7-3.1,6.7-6.8
			C734.2,412.8,731.6,410,727.5,410L727.5,410z"/>
		<path class="st0" d="M656.7,184.6c4.1,0,6.6-2.5,6.6-6.6c0-4.6-3-6.8-6.8-6.7c-4,0-6.6,2.8-6.6,6.7
			C649.9,181.8,652.5,184.7,656.7,184.6L656.7,184.6z"/>
		<path class="st0" d="M297.4,65.3c3.2,0,6.9-2.6,6.6-6.7c0.2-4.2-3-6.7-6.6-6.7c-4,0-6.7,2.7-6.7,6.7
			C290.7,63,294.2,65.3,297.4,65.3z"/>
		<path class="st0" d="M345.3,720.7c-4.4-0.3-6.9,2.8-7,6.3c-0.1,3.8,2.5,6.9,6.6,7c4,0,6.7-2.9,6.8-6.6
			C351.7,723.7,349.1,720.6,345.3,720.7L345.3,720.7z"/>
		<path class="st0" d="M106,578.1c-3.6,0.1-6.4,2.6-6.4,6.6c0,4.2,3.3,6.9,6.6,6.5c3.3,0.4,6.7-3.1,6.6-6.7
			C112.8,581.5,110.1,578,106,578.1z"/>
		<path class="st0" d="M727.5,351.5c3.6,0,7-3.3,6.5-6.7c0.4-3.2-2.9-6.6-6.8-6.5c-3.5,0.1-6.4,2.6-6.4,6.6S723.8,351.4,727.5,351.5
			L727.5,351.5z"/>
		<path class="st0" d="M727.2,434.3c-3.8,0.3-6.2,2.8-6.2,6.8c-0.3,4,3.2,6.4,6.5,6.5c3.5,0,6.6-3.1,6.6-6.7
			C734.1,437.5,730.5,434.1,727.2,434.3z"/>
		<path class="st0" d="M58.7,481.9c-3.1,0-7,2.9-6.5,6.8c-0.3,3.4,2.6,6.5,6.5,6.3c3.9-0.2,6.3-2.5,6.6-6.4
			C65.5,485.2,61.9,481.8,58.7,481.9L58.7,481.9z"/>
		<path class="st0" d="M584.6,112.7c3.7,0.1,6.9-3.6,6.8-6.6c-0.2-3.7-2.8-6.4-6.6-6.4c-3.8-0.4-6.5,3.1-6.6,6.4
			C578.2,109.7,581.5,112.5,584.6,112.7z"/>
		<path class="st0" d="M440.9,720.7c-3.4,0-6.4,3.3-6.5,6.6c0,3.2,3.1,7,6.8,6.4c3.1,0.4,6.5-2.8,6.4-6.5
			C447.6,723.7,444.7,720.7,440.9,720.7z"/>
		<path class="st0" d="M488.7,65.2c3.7-0.2,6.4-2.8,6.4-6.6c0.3-3.6-3-6.5-6.4-6.5c-3.5,0-6.5,3.2-6.6,6.5
			C482,62.1,485.7,65.4,488.7,65.2L488.7,65.2z"/>
		<path class="st0" d="M202.3,673.3c-3.3,0-6.7,3-6.5,6.5c0.2,3.8,2.8,6.5,6.5,6.5c3.8,0,6.4-2.7,6.4-6.5
			C209.1,676,205.5,673.3,202.3,673.3L202.3,673.3z"/>
		<path class="st0" d="M250,697.4c-3.3-0.3-6.8,3.2-6.7,6.6c0.1,3.2,3,6.5,6.5,6.5c3.7,0,7-3.2,6.5-6.4
			C256.3,700.2,253.8,697.8,250,697.4L250,697.4z"/>
		<path class="st0" d="M704.3,256.3c3.1,0.1,6.8-3,6.3-6.6c0.4-3.1-3-6.5-6.6-6.4c-3.1,0-6.6,3.3-6.4,6.7
			C698,253.6,700.5,256.1,704.3,256.3L704.3,256.3z"/>
		<path class="st0" d="M225.5,89.2c3.7,0.2,6.9-3.2,6.4-6.4c0-3.8-2.6-6.5-6.4-6.5c-3.7,0-6.5,2.8-6.5,6.5
			C219.1,86.6,221.7,89,225.5,89.2z"/>
		<path class="st0" d="M82.8,232c3.7,0,6.9-3.1,6.6-6.4c0-3.8-2.6-6.4-6.3-6.7c-3.2-0.2-6.7,3.3-6.7,6.4
			C76.4,228.9,79.6,231.9,82.8,232L82.8,232z"/>
		<path class="st0" d="M632.4,625.9c-3.7-0.4-6.7,3.2-6.5,6.3c0.2,3.8,2.8,6.3,6.5,6.6c3.1,0.2,6.6-3.4,6.6-6.5
			C638.8,629.2,635.9,625.4,632.4,625.9L632.4,625.9z"/>
		<path class="st0" d="M321.8,720.8c-3.3,0-6.6,2.9-6.4,6.5c0.2,3.9,2.6,6.5,6.4,6.4c3.7,0,6.5-2.7,6.5-6.4
			C328.8,724.3,325.1,720.7,321.8,720.8z"/>
		<path class="st0" d="M679.8,208.7c3.8,0,6.5-2.7,6.5-6.4c0-3.8-2.6-6.4-6.4-6.4c-3.8,0-6.3,2.5-6.4,6.2
			C673.5,205.9,676.1,208.6,679.8,208.7L679.8,208.7z"/>
		<path class="st0" d="M727.5,328c3.7,0,6.5-2.8,6.5-6.5c0-3.7-2.8-6.4-6.6-6.3c-3.7,0-6.2,2.6-6.2,6.4
			C721.1,325.5,723.6,328,727.5,328L727.5,328z"/>
		<path class="st0" d="M656.6,601.6c-3.2-0.6-6.7,3.5-6.4,6.5c0.3,3.5,2.9,6.1,6.5,6.3c3,0.2,6.6-3,6.4-6.6
			C662.8,604.1,660.3,601.5,656.6,601.6L656.6,601.6z"/>
		<path class="st0" d="M608.1,650c-3-0.2-6.7,3.3-6.6,6.5c0.1,3.3,3.3,6.6,6.7,6.4c3.6-0.2,6.2-2.7,6.2-6.4
			C614.4,652.8,611.7,650.3,608.1,650L608.1,650z"/>
		<path class="st0" d="M465.5,720.9c-3.1-0.2-6.6,3-6.5,6.3c0.2,3.6,2.7,6.5,6.2,6.5c3.6,0,6.5-2.6,6.6-6.1
			C471.8,723.7,469.2,721.1,465.5,720.9L465.5,720.9z"/>
		<path class="st0" d="M130.6,160.1c3.6-0.3,6.2-2.8,6.2-6.5c0.3-3.2-2.8-6.5-6.3-6.3c-3.6,0.2-6.2,2.8-6.5,6.3
			C123.8,156.6,127.4,160.3,130.6,160.1L130.6,160.1z"/>
		<path class="st0" d="M58.4,280.5c3.6,0.1,6.4-2.8,6.7-6.4c0.2-2.9-2.9-6.4-6.4-6.4c-3.4,0-6.7,3-6.4,6.3
			C52.3,277.6,55,280.4,58.4,280.5L58.4,280.5z"/>
		<path class="st0" d="M154,136.8c3.2,0,6.6-3.6,6.2-6.6c-0.1-3.6-3-6.3-6.7-6.2c-3.5,0.1-6,2.9-6,6.7
			C147.3,133.5,150.1,136.8,154,136.8z"/>
		<path class="st0" d="M82.9,554c-3.5,0.1-6.4,2.9-6.3,6.4c0,3.4,3,6.2,6.5,6.3c3.4,0,6.2-3.4,6.2-6.3
			C89.3,557.4,86.5,553.9,82.9,554L82.9,554z"/>
		<path class="st0" d="M704.5,529.7c-3.3-0.3-6.6,3.2-6.7,6.1c-0.1,3.1,2.9,6.7,6.2,6.5c3.5,0.2,6.5-2.8,6.5-6.2
			C710.6,532.8,707.6,529.9,704.5,529.7z"/>
		<path class="st0" d="M727.5,458.9c-3.4-0.2-6.7,3.3-6.3,6.4c-0.4,3,2.9,6.5,6.3,6.4c3.4-0.2,6.3-2.9,6.3-6.3
			C733.9,461.9,731,459.1,727.5,458.9L727.5,458.9z"/>
		<path class="st0" d="M274.1,65c3.1,0.1,6.8-3.4,6.5-6.4c0.3-2.9-2.8-6.4-6.4-6.4c-3.1,0-6.2,2.8-6.3,6.2
			C267.7,62.1,271.4,64.9,274.1,65L274.1,65z"/>
		<path class="st0" d="M297.4,721.1c-3.2,0-6.1,2.6-6.2,6.2c-0.1,3.5,3.5,6.4,6.2,6.3c2.7,0.1,6.3-2.5,6.4-6.1
			C303.8,723.9,300.8,721,297.4,721.1L297.4,721.1z"/>
		<path class="st0" d="M106.2,184.2c3.7,0.1,6.3-3.2,6.4-6.2c0.1-2.9-2.8-6.3-6.3-6.3c-3.1,0-6.3,2.8-6.2,6.2
			C100.1,181.6,102.7,184.1,106.2,184.2L106.2,184.2z"/>
		<path class="st0" d="M178.1,112.4c3.1-0.1,6.2-2.9,6.1-6.3c-0.2-3.7-2.9-6.2-6.3-6.1c-3.7,0-6.3,3.5-6.2,6.3
			C171.8,109.2,174.7,112.4,178.1,112.4L178.1,112.4z"/>
		<path class="st0" d="M536.3,697.6c-3-0.1-6.5,3.2-6.5,6.4c0,2.8,2.7,6.5,6.2,6.3c3.5,0.2,6.3-2.7,6.5-6
			C542.7,700.4,539,697.7,536.3,697.6L536.3,697.6z"/>
		<path class="st0" d="M560.5,89.1c3.4,0,6.3-2.8,6.3-6.1c0-3.4-3-6.5-6.4-6.5c-3.2,0-6.2,3.1-6.2,6.4
			C554.2,86.3,557,89.1,560.5,89.1z"/>
		<path class="st0" d="M58.5,506.6c-3.4,0.1-5.9,2.7-6,6.2c-0.1,3.3,2.7,6.2,6.2,6.2c3.8-0.1,6.4-3.7,6.2-6.3
			C64.7,509.5,62.1,506.5,58.5,506.6L58.5,506.6z"/>
		<path class="st0" d="M679.7,578.5c-3.6,0.1-5.9,2.5-6,6.1c-0.1,3.8,3,6.3,6.2,6.2c3.5-0.1,6-2.9,6.3-6.3
			C685.7,581.3,683.5,578.4,679.7,578.5L679.7,578.5z"/>
		<path class="st0" d="M727.5,303.5c3.1,0,6.5-3.3,6.2-6.4c-0.4-3.2-2.8-6.2-6.5-6.1c-3.4,0.1-5.9,2.8-5.9,6.2
			C721.2,300.6,724,303.5,727.5,303.5L727.5,303.5z"/>
		<path class="st0" d="M513.1,64.7c3.1,0,6.1-3.3,6.1-6.3c-0.6-3.6-2.8-5.9-6.3-5.9c-3.3,0-6.1,2.6-6.1,6.1
			C506.8,62.5,510.3,64.7,513.1,64.7L513.1,64.7z"/>
		<path class="st0" d="M393.4,40.3c3.1,0,5.9-2.1,6.3-5.9c-0.1-3.3-2.5-6-6-6.2c-3-0.1-6.3,3.1-6.3,6.1
			C387.3,37.1,390.4,40.3,393.4,40.3L393.4,40.3z"/>
		<path class="st0" d="M584.8,673.6c-3.3,0-6.2,2.8-6.2,6.1c0,3.8,2.8,6.3,6.2,6.2c3.5,0,6.2-2.8,6.1-6.3
			C590.8,676.2,588.5,673.8,584.8,673.6z"/>
		<path class="st0" d="M34.5,387.3c-3.1-0.3-6.5,3-6.4,6.1c0.2,3.7,2.6,5.9,6.1,6.2c3,0.3,6.2-2.9,6.3-6
			C40.4,390,37.6,387.6,34.5,387.3L34.5,387.3z"/>
		<path class="st0" d="M34.2,375.4c2.9,0.1,6.2-3.1,6.3-6.1c0.1-3-3.1-6.2-6.2-6.2c-2.9,0-6.1,3-6.2,6
			C28,371.9,31.2,375.2,34.2,375.4L34.2,375.4z"/>
		<path class="st0" d="M488.8,721.1c-3-0.1-6.3,3.1-6.3,6.1c0,3,3.1,6.2,6.2,6.2c3,0,6.2-3.2,6.2-6.2
			C494.8,724.3,491.8,721.2,488.8,721.1L488.8,721.1z"/>
		<path class="st0" d="M369.3,40.3c3,0,6-3,6-6c0-3-3-6-6-6c-3.1,0-6,2.9-6,6C363.3,37.4,366.2,40.3,369.3,40.3L369.3,40.3z"/>
		<path class="st0" d="M34.5,410.7c-3-0.1-6.3,3.1-6.3,6.1c0.1,2.9,3.2,6,6.1,6c2.9,0,6.1-3,6.1-6C40.6,414,37.4,410.8,34.5,410.7
			L34.5,410.7z"/>
		<path class="st0" d="M225.7,698c-3-0.1-6.3,3.1-6.3,6.1c0,2.8,3.2,5.9,6.1,6c3,0.1,6-2.9,6.2-5.9
			C231.7,701.3,228.7,698.1,225.7,698L225.7,698z"/>
		<path class="st0" d="M130.3,626.2c-3-0.1-6,3.2-5.9,6.1c0.1,3,3.2,6,6.2,5.9c3-0.1,6-3.2,5.9-6.2
			C136,628.3,133.7,626.4,130.3,626.2L130.3,626.2z"/>
		<path class="st0" d="M416.8,40.3c3,0,6.1-3.1,6.1-6c0-2.9-3.1-6-6.1-6c-3.1,0-6,2.9-6,6C410.8,37.4,413.7,40.3,416.8,40.3z"/>
		<path class="st0" d="M727.5,482.5c-2.9-0.1-6,3-6.1,6c-0.1,3,2.9,6,6,6.1c3,0,6.1-3,6.1-6C733.5,485.6,730.5,482.6,727.5,482.5
			L727.5,482.5z"/>
		<path class="st0" d="M632.4,136.3c3-0.1,6.2-3.3,6-6c-0.2-3.1-3.4-6-6.2-5.8c-3.3,0.3-5.8,3-5.7,6.2
			C626.6,133.8,629.4,136.4,632.4,136.3z"/>
		<path class="st0" d="M34.4,350.7c3.6-0.1,5.6-2.5,5.9-5.9c-0.4-3.6-2.6-5.8-6-5.8c-3.6,0.1-5.8,2.5-5.8,5.9
			C28.5,348.5,31,350.8,34.4,350.7z"/>
		<path class="st0" d="M704,231.3c2.7,0,5.7-1.6,5.8-5.6c0-4-2.1-5.4-5.5-6c-2.9-0.5-6,2.7-6.1,5.8C698.1,228.2,701,231.2,704,231.3
			L704,231.3z"/>
		<path class="st0" d="M153.6,650.6c-3.1,0.2-5.7,2.9-5.7,6c0,3.1,2.7,5.8,5.8,5.7c3.1,0,5.8-2.8,5.8-5.8
			C159.6,653.5,156.5,650.5,153.6,650.6L153.6,650.6z"/>
		<path class="st0" d="M344.7,40.1c3.2,0.1,6-2.6,6-5.8c0-3-2.7-5.8-5.8-5.9c-3-0.1-5.8,2.6-5.9,5.7C339,37.2,341.7,40,344.7,40.1z"
			/>
		<path class="st0" d="M58.7,255.6c3,0,5.6-2.3,5.6-5.8c0.1-3.6-2.6-5.8-5.6-5.8c-2.7-0.1-5.7,1.9-5.8,5.7
			C52.9,253.5,55.8,255.6,58.7,255.6L58.7,255.6z"/>
		<path class="st0" d="M656.4,159.2c3.1,0.2,5.8-1.7,5.9-5.3c0-3.4-2-5.7-5.4-5.8c-3.7-0.1-5.6,2.4-5.7,5.3
			C650.9,156.9,653.1,159.2,656.4,159.2L656.4,159.2z"/>
		<path class="st0" d="M82.9,207.9c3,0,5.9-2.4,5.6-5.7c0.2-3.6-2.7-5.7-5.7-5.6c-3.4,0.1-5.5,2.2-5.5,5.8
			C77.4,205.5,79.7,207.9,82.9,207.9L82.9,207.9z"/>
		<path class="st0" d="M34.2,435.4c-3.4,0.1-5.6,2.2-5.5,5.8c0,3.1,2.4,5.5,5.6,5.5c3.3,0,5.8-2.4,5.6-5.7
			C40,437.4,37.5,435.4,34.2,435.4L34.2,435.4z"/>
		<path class="st0" d="M249.9,64.1c3.4,0,5.6-2.1,5.6-5.7c0-3.2-2.4-5.5-5.5-5.6c-3.3,0-5.8,2.3-5.7,5.6
			C244.2,62.1,246.5,64.1,249.9,64.1L249.9,64.1z"/>
		<path class="st0" d="M202.1,88.5c3.5,0.1,5.8-2,5.9-5.4c0.1-3.6-2.3-5.7-5.6-5.8c-2.8-0.1-5.9,2-5.7,5.3
			C196.4,85.8,198.6,88.4,202.1,88.5z"/>
		<path class="st0" d="M106.2,602.3c-3.2,0-5.6,2-5.6,5.7c0,3.5,2.5,5.8,5.7,5.6c3.6,0.2,5.7-2.9,5.5-5.8
			C111.7,604.7,109.8,602.3,106.2,602.3L106.2,602.3z"/>
		<path class="st0" d="M608,111.5c3.2,0.2,5.5-2.2,5.6-5.3c0-3.1-2.2-5.7-5.6-5.7c-3.2,0-5.7,2.7-5.6,5.7
			C602.4,109.2,604.9,111.8,608,111.5z"/>
		<path class="st0" d="M441.1,39.9c2.5,0,5.9-2.1,5.5-5.8c0.3-3.5-3-5.6-5.5-5.6c-2.9,0-5.6,2.3-5.6,5.8
			C435.6,37.6,438.2,39.9,441.1,39.9L441.1,39.9z"/>
		<path class="st0" d="M274.1,721.7c-3,0-5.4,2.3-5.4,5.6c0,3.6,2.5,5.5,5.4,5.5c3.6,0.1,5.8-2.2,5.6-5.5
			C279.9,724.4,277.7,721.7,274.1,721.7L274.1,721.7z"/>
		<path class="st0" d="M34.2,327c3.2,0.4,5.6-2.5,5.6-5.4c0-2.8-2.6-5.6-5.3-5.5c-3.5,0.1-5.5,2-5.7,5.3
			C28.6,324.6,31.4,327.3,34.2,327L34.2,327z"/>
		<path class="st0" d="M679.8,183.4c3.5,0,5.5-1.9,5.5-5.4c0.3-2.9-2-5.5-5.4-5.5c-2.8,0-5.5,2.2-5.4,5.3
			C674.6,181.3,676.4,183.3,679.8,183.4L679.8,183.4z"/>
		<path class="st0" d="M321.5,39.8c3.1,0.2,5.6-2.5,5.7-5.4c0-3.2-2.6-5.8-5.5-5.6c-3.3,0-5.4,2.1-5.4,5.5
			C316.4,37.6,318.4,39.6,321.5,39.8L321.5,39.8z"/>
		<path class="st0" d="M727.3,279.4c3.8,0.2,5.6-2.5,5.6-5.3c0-2.7-1.8-5.6-5.4-5.6c-2.8,0-5.5,2-5.5,5.5
			C721.9,277.5,724.4,279.6,727.3,279.4L727.3,279.4z"/>
		<path class="st0" d="M178,674.2c-3.7,0-5.5,2.9-5.5,5.6c0,2.8,1.8,5.4,5.6,5.4c3,0,5.6-1.9,5.3-5.5
			C183.7,676.2,180.7,674.2,178,674.2L178,674.2z"/>
		<path class="st0" d="M704.1,554.9c-3.2,0.2-5.2,2.1-5.3,5.4c0,3.3,2,5.2,5.2,5.5c2.9,0.2,6-2.6,5.5-5.4
			C710,557.4,706.9,554.7,704.1,554.9L704.1,554.9z"/>
		<path class="st0" d="M58.5,530.7c-3.3,0.2-5.1,2.1-5.3,5.4c-0.2,2.8,2.3,5.6,5.6,5.4c3.3-0.2,5.2-2.1,5.2-5.4
			C64.3,533.2,61.8,530.5,58.5,530.7L58.5,530.7z"/>
		<path class="st0" d="M560.6,698.6c-3.3,0-5.7,2.8-5.6,5.5c0.2,3.2,2.1,5.2,5.4,5.3c3.4,0,5.4-2,5.6-5.3
			C566.1,701.4,563.6,698.7,560.6,698.6L560.6,698.6z"/>
		<path class="st0" d="M34.3,459.8c-2.5-0.2-5.5,2.9-5.5,5.4c0,2.6,2.9,5.7,5.7,5.5c3-0.2,5.3-2.4,5.2-5.5
			C39.7,462.1,37.4,460,34.3,459.8z"/>
		<path class="st0" d="M513.1,721.9c-2.9-0.2-5.6,2.7-5.6,5.5c0,2.6,2.6,5.5,5.4,5.3c3.2-0.2,5.4-2.2,5.4-5.3
			C518.4,724.2,516.1,722.1,513.1,721.9z"/>
		<path class="st0" d="M83,579.3c-2.9-0.2-5.6,2.7-5.3,5.4c-0.3,2.8,2.6,5.5,5.4,5.3c3.1-0.2,5.3-2.3,5.2-5.6
			C88.2,581.5,86,579.5,83,579.3L83,579.3z"/>
		<path class="st0" d="M536.2,63.8c3.2,0.3,5.5-2.5,5.4-5.2c-0.1-3.2-2.2-5.3-5.4-5.4c-2.8-0.1-5.4,2.3-5.3,5.4
			C531,61.9,532.8,63.8,536.2,63.8z"/>
		<path class="st0" d="M727.6,507.4c-3.1-0.1-5.4,2.2-5.5,5.2c-0.1,3.3,2,5.5,5.2,5.5c2.7,0.4,5.6-2.5,5.4-5.3
			C732.6,509.8,730.5,507.5,727.6,507.4L727.6,507.4z"/>
		<path class="st0" d="M465.3,39.6c3,0,5.4-2.3,5.4-5.3c0.5-2.5-2.9-5.6-5.4-5.4c-2.9,0.2-5.3,2.4-5.3,5.3
			C460,37.2,462.3,39.6,465.3,39.6z"/>
		<path class="st0" d="M393.4,746.3c-2.8,0.2-5.2,2.7-5.1,5.5c0.2,2.9,2.4,5.2,5.4,5.1c2.4,0.3,5.2-2.6,5.2-5.3
			C398.9,748.6,396,746.1,393.4,746.3L393.4,746.3z"/>
		<path class="st0" d="M632.5,651.2c-3-0.1-5.5,2.7-5.6,5.3c0,2.5,2.6,5.3,5.3,5.3c3,0,5.6-2.8,5.3-5.2
			C637.9,653.8,635,651.3,632.5,651.2L632.5,651.2z"/>
		<path class="st0" d="M656.7,626.9c-3.1,0.2-5.2,2.2-5.4,5.2c-0.1,2.9,2.6,5.5,5.4,5.4c2.9-0.1,5.2-2.4,5.2-5.3
			C662.2,629.7,659.3,626.8,656.7,626.9L656.7,626.9z"/>
		<path class="st0" d="M584.7,88.1c3,0.3,5.3-2.7,5.3-5.1c0-3.2-2.7-5.5-5.3-5.4c-3,0.1-5.1,2.3-5.3,5.3
			C579.3,85.4,582,88.4,584.7,88.1z"/>
		<path class="st0" d="M34.4,302.6c2.7,0,5.3-2.7,5.2-5.4c-0.1-2.5-2.8-5.2-5.2-5.2c-2.6,0-5.3,2.7-5.3,5.3
			C29.1,299.9,31.7,302.6,34.4,302.6L34.4,302.6z"/>
		<path class="st0" d="M130.5,135.7c2.8,0,5.2-2.5,5.2-5.3c0-2.9-2.4-5.2-5.3-5.2c-2.5-0.2-5.3,2.5-5.2,5.3
			C125.4,133.4,127.6,135.7,130.5,135.7z"/>
		<path class="st0" d="M369.2,746.3c-2.8,0.1-5.1,2.5-5.2,5.4c-0.1,2.6,2.9,5.3,5.4,5.2c2.6-0.1,5.5-2.9,5.1-5.4
			C374.7,748.8,371.7,746.2,369.2,746.3z"/>
		<path class="st0" d="M751.7,388.2c-2.6,0-5.2,2.6-5.3,5.3c0,2.5,2.6,5.4,5.2,5.3c2.8-0.1,5.3-2.5,5.3-5.3
			C757.2,390.5,754,388.2,751.7,388.2z"/>
		<path class="st0" d="M416.7,746.3c-2.6,0.1-5.1,2.6-5.2,5.2c0,2.7,2.5,5.3,5.2,5.3c2.8,0,5.2-2.5,5.3-5.3
			C422.1,748.9,419.1,746.2,416.7,746.3L416.7,746.3z"/>
		<path class="st0" d="M250,722c-2.5-0.1-5.3,2.5-5.4,5c-0.1,2.6,2.5,5.4,5.2,5.4c2.6,0,5.2-2.5,5.3-5.1
			C255.2,724.9,252.5,722.1,250,722z"/>
		<path class="st0" d="M751.8,374.4c2.6-0.1,5.1-2.6,5.1-5.2c0-2.6-2.5-5.2-5.1-5.3c-2.8,0-5.3,2.4-5.3,5.2
			C746.3,371.9,749.4,374.5,751.8,374.4z"/>
		<path class="st0" d="M297.3,39.5c2.6-0.1,5.4-2.6,5.5-5.2c0-2.6-2.7-5.3-5.3-5.3c-2.2-0.3-5.4,3-5.4,5.3
			C292.1,36.5,295.2,39.6,297.3,39.5z"/>
		<path class="st0" d="M680,602.7c-2.5,0-5.2,2.5-5.3,5c-0.1,2.6,2.7,5.5,5.2,5.5c2.5,0,5.2-2.7,5.2-5.2
			C685.2,605.3,682.2,602.7,680,602.7L680,602.7z"/>
		<path class="st0" d="M608.1,674.6c-2.6,0-5.3,2.5-5.3,5.1c0,2.5,2.6,5.1,5.1,5.2c2.6,0.1,5.2-2.3,5.4-4.9
			C613.4,677.3,610.8,674.6,608.1,674.6L608.1,674.6z"/>
		<path class="st0" d="M345,746.4c-2.9-0.1-5.4,3.1-5.3,5.3c0.1,2.5,2.7,5.1,5.2,5.1c2.5,0,5.2-2.7,5.2-5.2
			C350.2,749.6,348,746.5,345,746.4z"/>
		<path class="st0" d="M751.8,411.5c-2.7,0-5.2,2.4-5.3,5c-0.1,2.6,2.2,5.2,5,5.3c2.7,0.1,5.2-2.3,5.3-5
			C756.9,414.2,754.4,411.6,751.8,411.5L751.8,411.5z"/>
		<path class="st0" d="M202.2,699c-2.5,0.1-5.1,2.7-5.1,5.1c0,2.4,2.9,5.2,5.3,5.1c2.5,0,5.2-2.7,5.1-5.2
			C207.4,701.4,204.8,698.9,202.2,699L202.2,699z"/>
		<path class="st0" d="M106.1,158.7c2.8,0,5-2,5.2-5.1c0-2.4-2.3-5.1-5.2-5.2c-2.4,0-5,2.6-5,5C101,156.6,103.8,158.8,106.1,158.7z"
			/>
		<path class="st0" d="M751.6,350c2.5,0.2,5.2-2.6,5.2-5.1c0-2.6-2.6-5.3-5.1-5.3c-2,0.1-5,2.2-5.1,5
			C746.5,347.4,749.1,349.8,751.6,350L751.6,350z"/>
		<path class="st0" d="M153.5,111.2c2.4,0.1,5.1-2,5.3-4.9c0.1-2.6-2.4-5.3-5-5.4c-1.9-0.1-5.2,2-5.2,5.1
			C148.6,108.5,151,111.1,153.5,111.2z"/>
		<path class="st0" d="M58.5,230.6c2.6,0.1,5.3-2.6,5.3-5.1c-0.3-2.6-2.2-5-5.2-5.1c-2.6-0.1-5.2,2.6-5.1,5.2
			C53.5,228,56.1,230.5,58.5,230.6z"/>
		<path class="st0" d="M441.2,746.5c-2.4-0.1-5,2.4-5.2,4.9c-0.2,2.3,2.6,5.2,5,5.3c2.3,0.1,5-2.6,5.2-4.9
			C446.4,749.4,443.6,746.5,441.2,746.5L441.2,746.5z"/>
		<path class="st0" d="M727.4,254.9c2.1-0.1,5-2,5-5c0.1-3-2.7-5.1-5-5.3c-2.5,0-5.2,2.6-5.2,5.1S725,255,727.4,254.9z"/>
		<path class="st0" d="M704.3,207.4c2.2-0.1,5-3,5.1-5.1c0-2.2-2.7-5.1-5-5.2c-2.4-0.1-5.2,2.6-5.3,5
			C699.1,204.5,702,207.5,704.3,207.4L704.3,207.4z"/>
		<path class="st0" d="M34.4,483.5c-2.6,0-5.4,2.7-5.2,5.2c0.2,2.4,2.9,5,5.2,4.9c2.4,0,5.1-2.8,5.1-5.1
			C39.5,486.1,36.9,483.6,34.4,483.5z"/>
		<path class="st0" d="M225.6,63.6c2.6-0.1,4.7-2.1,5.1-5c0.1-2.4-2.6-5-5-5.1c-2.5,0-5.1,2.4-5.2,4.9
			C220.3,60.9,223.1,63.7,225.6,63.6z"/>
		<path class="st0" d="M488.7,39.3c2.5,0,5-2.7,4.9-5.1c-0.1-2.5-2.8-5-5.1-4.9c-2.4,0.2-4.8,2.7-4.8,5
			C483.6,36.6,486.3,39.3,488.7,39.3z"/>
		<path class="st0" d="M751.8,436c-2.5-0.1-5,2.4-5.1,4.9c0,2.5,2.5,5,5,5c2.5,0,4.8-2.1,4.9-4.8C756.8,438.7,754.3,436.1,751.8,436
			L751.8,436z"/>
		<path class="st0" d="M321.7,746.8c-2.7,0-5.1,2.3-5,4.9c0.1,2.4,2.6,4.7,5,4.7c2.6,0,4.8-2.3,4.8-4.8
			C326.5,748.9,324.5,746.9,321.7,746.8L321.7,746.8z"/>
		<path class="st0" d="M83,182.5c2.7,0.1,4.6-1.9,4.5-4.6c0-3.2-1.8-4.7-4.7-4.6c-3.2,0.1-4.4,1.3-4.5,4.5
			C78.3,180.9,79.9,182.6,83,182.5L83,182.5z"/>
		<path class="st0" d="M751.7,326.2c2.8,0,4.8-1.9,4.7-4.7c-0.1-2.3-1.7-4.7-4.6-4.5c-3.5,0-4.5,2-4.7,4.7
			C746.9,324.4,748.9,326.2,751.7,326.2z"/>
		<path class="st0" d="M536,722.7c-2.7,0.2-4.5,2-4.5,4.7c0.1,2.8,2.1,4.7,4.9,4.5c2.7-0.1,4.5-2,4.5-4.7
			C540.8,724.7,539.1,722.5,536,722.7z"/>
		<path class="st0" d="M34.4,278.6c2.9,0,4.4-1.6,4.4-4.6c0-2.8-1.8-4.6-4.5-4.5c-2.7,0-4.5,1.9-4.4,4.6
			C29.9,277,31.5,278.6,34.4,278.6L34.4,278.6z"/>
		<path class="st0" d="M727.3,531.6c-2.8,0-4.5,1.8-4.4,4.6c0.1,2.8,1.8,4.5,4.7,4.4c3.4,0.1,4.5-2.5,4.5-4.6
			C731.9,533.1,730.2,531.5,727.3,531.6L727.3,531.6z"/>
		<path class="st0" d="M178.1,87.5c3-0.2,4.4-1.6,4.6-4.6c0.2-2.7-2-4.8-4.7-4.8c-2.8,0-4.6,1.8-4.6,4.6
			C173.3,85.5,175.4,87.7,178.1,87.5z"/>
		<path class="st0" d="M130.7,652.1c-3.1,0-4.5,1.3-4.6,4.3c-0.1,3.1,2.1,4.5,4.2,4.6c2.6,0.2,4.9-2.1,4.7-4.5
			C135.1,654.3,133.6,652.1,130.7,652.1L130.7,652.1z"/>
		<path class="st0" d="M274,38.6c3,0,4.6-1.6,4.6-4.4c0-2.7-1.5-4.4-4.4-4.3c-2.7-0.2-4.5,1.6-4.5,4.2C269.7,37,271.5,38.6,274,38.6
			z"/>
		<path class="st0" d="M58.6,556c-3,0-4.4,1.5-4.5,4.6c-0.1,2.5,2.2,4.4,4.6,4.2c2.8-0.2,4.3-1.6,4.3-4.5
			C63.1,557.5,61.5,556,58.6,556z"/>
		<path class="st0" d="M465.3,747.2c-2.8,0-4.3,1.6-4.3,4.5c0,2.8,1.6,4.4,4.4,4.4c2.9,0,4.5-1.6,4.4-4.6
			C469.7,748.6,468.2,747.1,465.3,747.2L465.3,747.2z"/>
		<path class="st0" d="M584.8,699.6c-2.5-0.1-4.6,2.2-4.5,4.4c0.1,2.7,1.7,4.3,4.4,4.3c2.5,0.3,4.5-1.9,4.4-4.3
			C589,701.2,587.5,699.7,584.8,699.6L584.8,699.6z"/>
		<path class="st0" d="M106.3,627.8c-2.8,0.1-4.4,1.5-4.4,4.3c0,2.8,1.6,4.5,4.3,4.5c2.7,0,4.4-1.6,4.5-4.3
			C110.8,629.9,108.7,627.7,106.3,627.8L106.3,627.8z"/>
		<path class="st0" d="M704.1,580.3c-2.7,0-4.2,1.7-4.3,4.5c-0.1,2.5,2,4.5,4.5,4.3c2.7-0.2,4.4-1.8,4.3-4.5
			C708.6,582,706.8,580.3,704.1,580.3L704.1,580.3z"/>
		<path class="st0" d="M656.8,134.8c2.6,0,4.3-1.9,4.2-4.5c0-2.7-1.8-4.3-4.5-4.2c-2.7,0.1-4.3,1.8-4.3,4.5
			C652.3,133.2,654,134.8,656.8,134.8L656.8,134.8z"/>
		<path class="st0" d="M560.6,62.9c2.6,0.2,4.3-1.8,4.1-4.5c-0.2-2.7-1.6-4.1-4.3-4.2c-2.3-0.1-4.4,2-4.3,4.5
			C556.4,61.6,557.6,62.9,560.6,62.9z"/>
		<path class="st0" d="M632.2,110.4c2.4,0.2,4.8-2.2,4.4-4.3c0-2.6-1.8-4.4-4.4-4.4c-2.4,0-4.3,1.9-4.3,4.2
			C627.9,108.6,629.6,110.2,632.2,110.4L632.2,110.4z"/>
		<path class="st0" d="M752,461c-2.8-0.2-4.8,1.6-4.5,4.1c-0.1,3,1.3,4.3,4.2,4.5c2.6,0.2,4.6-1.9,4.5-4.2
			C756.1,462.7,754.6,461.2,752,461z"/>
		<path class="st0" d="M680,157.9c2.4-0.1,4.2-2,4.2-4.4c0-2.3-2.1-4.2-4.4-4.1c-2.2,0-4.2,2.1-4.2,4.4
			C675.6,156.1,677.7,158,680,157.9L680,157.9z"/>
		<path class="st0" d="M297.4,747.2c-2.1-0.2-4.5,2.3-4.2,4.6c0.2,2.3,2,4.1,4.4,4.1c2.4,0,4.2-1.9,4.1-4.4
			C301.6,749,299.8,747.4,297.4,747.2z"/>
		<path class="st0" d="M34.3,508.6c-2.5,0-4.3,1.7-4.3,4.2c0,2.5,1.7,4.2,4.1,4.3c2.6,0,4.4-1.7,4.4-4.3
			C38.6,510.3,36.8,508.6,34.3,508.6z"/>
		<path class="st0" d="M225.4,723c-2.1,0.1-4.1,2.2-4.1,4.3c0,2.3,1.9,4.2,4.3,4.2c2.3,0,4.2-2,4.2-4.3
			C229.8,725.1,227.6,722.9,225.4,723L225.4,723z"/>
		<path class="st0" d="M153.8,675.4c-2.3,0-4.4,2-4.4,4.2c0,2.4,1.8,4.3,4.2,4.3c2.6,0,4.3-1.6,4.3-4.1
			C158,677.4,156.2,675.5,153.8,675.4L153.8,675.4z"/>
		<path class="st0" d="M751.8,301.5c2.3,0,4.2-2,4.2-4.3c0-2.2-2-4-4.3-4c-2.5,0-4.2,1.8-4.2,4.3
			C747.5,299.8,749.3,301.5,751.8,301.5z"/>
		<path class="st0" d="M83.3,603.8c-2.4-0.1-4.4,1.6-4.5,3.9c-0.1,2.4,1.7,4.3,4.1,4.4c2.2,0,4.3-1.9,4.4-4
			C87.3,606,85.4,603.9,83.3,603.8L83.3,603.8z"/>
		<path class="st0" d="M512.9,38.4c2.2,0.2,4.4-2.1,4.3-4.3c-0.2-2.4-1.8-4-4.2-4c-2.5,0-4.2,1.8-4.2,4.3
			C508.8,36.7,510.5,38.3,512.9,38.4z"/>
		<path class="st0" d="M11.1,373.4c1.9,0,4.3-2.1,4.2-4.2c0-2.1-2-4.2-4.1-4.3c-2-0.1-4.3,2.1-4.4,4C6.8,371.1,9,373.3,11.1,373.4z"
			/>
		<path class="st0" d="M11,389.3c-2,0.1-4.2,2.2-4.1,4.2c0,1.9,2.3,4.2,4.2,4.2c2,0,4.1-2.2,4.2-4.2C15.4,391.6,13,389.1,11,389.3
			L11,389.3z"/>
		<path class="st0" d="M608.1,87.1c2.2-0.2,4.1-2.1,4-4.3c-0.1-2.3-2-4.1-4.3-4c-2.2,0.1-3.9,1.9-4,4.2
			C603.8,84.9,606.3,87.2,608.1,87.1L608.1,87.1z"/>
		<path class="st0" d="M488.6,747.4c-2.1,0.1-4.1,1.9-4.1,4.2c0,2,2.3,4.2,4.3,4.1c1.8-0.1,4.1-2.4,4.1-4.1
			C492.8,749.7,490.5,747.3,488.6,747.4L488.6,747.4z"/>
		<path class="st0" d="M727.3,229.7c2.2,0.1,4.2-1.9,4.3-4c0.1-2.3-2.2-4.4-4-4.3c-2.2-0.1-4.2,1.8-4.3,4
			C723.2,227.4,725.2,229.6,727.3,229.7L727.3,229.7z"/>
		<path class="st0" d="M10.9,412.5c-1.8,0.2-4.1,2.4-4.1,4.2c0,2,2.1,4,4.1,4.1c2.1,0,4.2-1.9,4.2-4.1
			C15.3,414.5,12.5,412.4,10.9,412.5L10.9,412.5z"/>
		<path class="st0" d="M58.7,206.2c2.4-0.1,4-1.8,4.1-4c0.1-2.1-1.8-4-4.2-4.1c-2.2,0-4,2.4-4.1,4C54.4,204.2,56.6,206.4,58.7,206.2
			L58.7,206.2z"/>
		<path class="st0" d="M393.6,15.1c2,0,4-1.9,4.1-4c0.1-2-2.1-4.2-4.1-4.2c-2,0-4,1.9-4.1,4C389.4,13.1,391.4,15.1,393.6,15.1
			L393.6,15.1z"/>
		<path class="st0" d="M751.9,484.5c-1.9-0.1-4.2,1.7-4.3,4c0,2.1,2,4.2,4.2,4.2c1.9,0,4-2.1,4-4.1
			C755.8,486.6,753.9,484.5,751.9,484.5L751.9,484.5z"/>
		<path class="st0" d="M369.2,15.1c2,0.1,4.2-1.8,4.2-4.1c0-2.1-2.1-4.1-4.2-4.1c-1.9,0.1-4,2.3-4,4.1
			C365.2,13.1,367.1,15,369.2,15.1L369.2,15.1z"/>
		<path class="st0" d="M416.9,15c2.4-0.2,3.9-1.9,4-4.1c0-2.2-2.2-3.9-4.1-4c-1.7-0.1-4.2,2.4-4.1,4.1C412.7,13,414.9,15,416.9,15z"
			/>
		<path class="st0" d="M202.4,62.6c1.9,0,4-2.2,4-4.1c0-1.8-2.3-4.2-4.1-4c-2.1,0.3-3.8,1.6-3.8,3.9C198.4,60.8,200,62.3,202.4,62.6
			L202.4,62.6z"/>
		<path class="st0" d="M344.9,14.9c1.9,0,3.9-1.8,4-3.8c0.1-1.8-2.2-4.1-4-4.1c-1.8,0.1-3.8,2.2-3.8,4C341,12.9,343,14.9,344.9,14.9
			L344.9,14.9z"/>
		<path class="st0" d="M177.9,700.2c-2,0.1-3.8,2.1-3.8,4c0.1,1.8,2.2,3.9,3.9,3.9c1.6,0,3.9-2.3,3.9-3.9
			C182,702.2,179.8,700.1,177.9,700.2L177.9,700.2z"/>
		<path class="st0" d="M11.2,348.7c1.9-0.1,3.9-2.2,3.8-3.9c-0.1-1.9-2.2-3.8-4.1-3.7c-1.9,0-3.9,2.1-3.8,3.9
			C7.3,346.9,9.4,348.8,11.2,348.7z"/>
		<path class="st0" d="M249.9,38.2c1.9,0,3.8-2,3.8-3.9c0-2-1.9-3.9-3.8-3.9c-1.9,0-3.8,2-3.8,3.9C246.1,36.2,248,38.2,249.9,38.2z"
			/>
		<path class="st0" d="M34.3,253.7c1.9,0,3.8-2,3.8-3.9c0-1.9-1.9-3.9-3.8-3.9c-1.9,0-3.8,2-3.8,3.9
			C30.5,251.7,32.4,253.7,34.3,253.7z"/>
		<path class="st0" d="M11.1,437.1c-1.8,0-3.6,2-3.7,3.9c0,1.9,1.9,3.8,3.7,3.8c1.9-0.1,3.7-2,3.6-3.8
			C14.7,439,12.9,437.1,11.1,437.1L11.1,437.1z"/>
		<path class="st0" d="M656.7,652.7c-1.9,0-3.6,1.8-3.7,3.8c-0.1,2,1.6,3.7,3.6,3.8c1.9,0.1,3.7-1.8,3.7-3.7
			C660.2,654.6,658.5,652.7,656.7,652.7L656.7,652.7z"/>
		<path class="st0" d="M704.1,181.6c1.9,0.1,3.7-1.7,3.8-3.6c0-1.9-1.7-3.7-3.6-3.7c-2,0-3.7,1.6-3.7,3.6
			C700.4,179.8,702.1,181.6,704.1,181.6L704.1,181.6z"/>
		<path class="st0" d="M560.6,723.8c-2.1-0.1-3.5,1.2-3.6,3.3c-0.1,2.1,1.2,3.5,3.2,3.6c2.3,0.1,3.7-1.2,3.8-3.4
			C564,725.3,562.7,723.9,560.6,723.8z"/>
		<path class="st0" d="M274,748.1c-2.1,0-3.3,1.3-3.3,3.6c0,2.2,1.2,3.4,3.5,3.3s3.5-1.2,3.4-3.4C277.7,749.3,276.3,748,274,748.1
			L274,748.1z"/>
		<path class="st0" d="M632.3,676.3c-2.1,0-3.5,1.4-3.5,3.5c0,2,1.4,3.5,3.4,3.5c2.1,0,3.6-1.5,3.6-3.6
			C635.8,677.6,634.4,676.3,632.3,676.3L632.3,676.3z"/>
		<path class="st0" d="M441.1,14.6c2,0,3.4-1.4,3.4-3.5c0-2.2-1.2-3.4-3.4-3.4c-2.2,0-3.5,1.2-3.6,3.3
			C437.6,13.1,439,14.6,441.1,14.6L441.1,14.6z"/>
		<path class="st0" d="M727.5,556.9c-2.3,0-3.5,1.3-3.5,3.6c0.1,2.2,1.3,3.4,3.5,3.3c2.1,0,3.5-1.4,3.5-3.5
			C731,558.3,729.6,556.9,727.5,556.9L727.5,556.9z"/>
		<path class="st0" d="M680,628.8c-2.2,0-3.5,1.1-3.5,3.3c0,2.2,1.2,3.6,3.2,3.7c1.6,0.1,3.7-1,3.7-3.5
			C683.3,630.1,682.2,628.8,680,628.8z"/>
		<path class="st0" d="M34.5,532.7c-2.3,0.1-3.3,1-3.5,3.4c-0.1,1.8,1.3,3.5,3.2,3.3c2.3,0,3.3-0.9,3.5-3
			C37.8,534.5,36.4,532.6,34.5,532.7L34.5,532.7z"/>
		<path class="st0" d="M11.1,325c1.9,0.1,3.5-1.4,3.4-3.4c-0.1-2.1-1.4-3.4-3.5-3.4c-2,0-3.3,1.3-3.3,3.3
			C7.7,323.7,9,324.9,11.1,325z"/>
		<path class="st0" d="M58.6,581.4c-1.9-0.1-3.4,1.4-3.3,3.2c0.1,2.2,1.1,3.3,3.1,3.4c2.3,0.1,3.5-1.1,3.5-3.3
			C62,582.5,60.9,581.5,58.6,581.4L58.6,581.4z"/>
		<path class="st0" d="M106.1,133.8c2,0.1,3.6-1.5,3.6-3.3c0-1.7-1.5-3.5-3.5-3.5c-2.2,0-3.5,1.6-3.3,3.5
			C102.8,132.6,104.3,133.7,106.1,133.8L106.1,133.8z"/>
		<path class="st0" d="M130.3,109.5c2.2,0.2,3.5-1.3,3.4-3.3c0-2.2-1.1-3.4-3.2-3.4c-2.1,0-3.4,1.1-3.5,3.1
			C127,108.1,128.1,109.4,130.3,109.5L130.3,109.5z"/>
		<path class="st0" d="M751.6,277.5c2.3,0,3.4-1.4,3.3-3.4c0-2.2-1.1-3.2-3.3-3.2c-2,0-3.5,1.1-3.4,3.4
			C748.4,276.1,749.7,277.4,751.6,277.5z"/>
		<path class="st0" d="M321.7,14.4c2.1-0.1,3.4-1.4,3.4-3.5c-0.1-2.1-1.2-3.1-3.4-3.1c-1.9-0.2-3.2,1.2-3.2,3.3
			C318.4,12.8,319.9,14.5,321.7,14.4z"/>
		<path class="st0" d="M465.4,14.2c2,0,3.3-1.3,3.2-3.3c0-1.9-1.2-2.9-3.2-3.1c-1.8-0.1-3.4,1.6-3.3,3.3
			C462.3,13,463.5,14.2,465.4,14.2L465.4,14.2z"/>
		<path class="st0" d="M513.1,748.3c-2-0.1-3.3,1.2-3.4,3.2c0,2,1.2,3.2,3.1,3.2c2,0,3.2-1.1,3.3-3.1
			C516.2,749.8,514.9,748.4,513.1,748.3L513.1,748.3z"/>
		<path class="st0" d="M83,156.9c1.8,0,3.1-1.4,3.1-3.3c0-1.9-1.2-3.2-3.2-3.2c-1.9,0-3.2,1.3-3.2,3.1
			C79.7,155.5,81.1,156.9,83,156.9z"/>
		<path class="st0" d="M607.9,700.8c-1.9,0.1-3.1,1.4-3,3.3c0,1.9,1.3,3,3.3,3c2,0,3.1-1.1,3.1-3.1
			C611.2,702,609.9,700.8,607.9,700.8L607.9,700.8z"/>
		<path class="st0" d="M11,462.1c-1.8-0.1-3.2,1.6-3.1,3.2c0.1,2,1.2,3.1,3.2,3.1c2,0,3.2-1.1,3.2-3C14.4,463.3,13.2,462.2,11,462.1
			L11,462.1z"/>
		<path class="st0" d="M751.9,509.6c-1.9-0.1-3.3,1.1-3.3,3c-0.1,2.1,1,3.4,3.1,3.4c2.1,0,3.1-1,3.2-3
			C754.9,510.9,753.8,509.7,751.9,509.6L751.9,509.6z"/>
		<path class="st0" d="M153.7,86c2,0,3.2-1.1,3.2-3c0-2-1.3-3.3-3.2-3.3c-1.9,0-3,1.2-3,3.2C150.6,84.9,151.7,86,153.7,86L153.7,86z
			"/>
		<path class="st0" d="M584.8,61.8c2.2,0,3.2-1,3.2-3.2c0.3-1.8-1.5-3.3-3.3-3.1c-2.1,0.1-3,1-3.1,3.1
			C581.6,60.8,582.6,61.8,584.8,61.8L584.8,61.8z"/>
		<path class="st0" d="M536.2,37.5c1.8,0.1,3.2-1.3,3.1-3.1c-0.1-2.3-0.9-3.3-3.1-3.3c-2.3,0-3.3,1-3.3,3.2S534,37.4,536.2,37.5
			L536.2,37.5z"/>
		<path class="st0" d="M704.2,604.8c-1.6,0-3.1,1.4-3.2,3c-0.1,1.7,1.4,3.2,3.1,3.3c1.7,0,3.1-1.3,3.2-3
			C707.3,606.3,706,604.8,704.2,604.8L704.2,604.8z"/>
		<path class="st0" d="M202.2,724.3c-1.5,0.1-2.9,1.5-2.9,3c0,1.5,1.6,3.2,3.1,3.1c1.4,0,3.1-1.8,3-3.2
			C205.4,725.7,203.8,724.2,202.2,724.3z"/>
		<path class="st0" d="M11.2,300.4c1.4,0,3.1-1.8,3.1-3.2c-0.1-1.5-1.8-3-3.3-3c-1.5,0.1-2.9,1.5-2.9,3
			C8.1,298.9,9.7,300.4,11.2,300.4z"/>
		<path class="st0" d="M369.4,772.9c-1.2-0.2-3,1.5-3.1,2.8c-0.1,1.3,1.6,3.3,2.9,3.3c1.1,0,3-1.8,3-2.9
			C372.3,774.9,370.6,773,369.4,772.9L369.4,772.9z"/>
		<path class="st0" d="M393.7,772.8c-1.1-0.1-3,1.6-3.1,2.8c-0.1,1.3,1.7,3.2,3,3.2c1.2,0,2.9-1.7,3-3
			C396.6,774.8,394.9,772.9,393.7,772.8L393.7,772.8z"/>
		<path class="st0" d="M297.3,14c1.3,0.1,3-1.5,3.1-2.9c0.1-1.3-1.4-3-2.8-3.1c-1.2-0.1-3,1.6-3.1,2.8C294.3,12.1,296,13.9,297.3,14
			z"/>
		<path class="st0" d="M727.4,205.2c1.3,0,3-1.6,3-3c0-1.2-1.8-3-3-3c-1.2,0-2.9,1.8-2.9,3C724.5,203.6,726.1,205.2,727.4,205.2
			L727.4,205.2z"/>
		<path class="st0" d="M776.1,396.2c1.1,0,2.5-1.2,2.8-2.2c0.3-1.2-0.6-2.3-2.9-3.4c-2.3,1.2-3.1,2.3-2.7,3.5
			C773.6,395.2,774.9,396.2,776.1,396.2L776.1,396.2z"/>
		<path class="st0" d="M130.6,676.9c-1.2-0.1-3,1.7-3,2.8c0,1.1,1.9,2.9,3,2.9c1.1,0,2.7-1.8,2.7-2.9
			C133.3,678.6,131.8,677,130.6,676.9z"/>
		<path class="st0" d="M225.5,37.1c1.2,0,2.6-1.4,2.7-2.8c0.1-1.3-1.3-2.9-2.5-3c-1.3-0.1-2.9,1.6-2.9,2.9
			C222.8,35.5,224.4,37.1,225.5,37.1L225.5,37.1z"/>
		<path class="st0" d="M776.1,371.9c1.2,0,2.8-1.6,2.8-2.8c0-1.2-1.5-2.6-2.8-2.6c-1.3,0-2.9,1.3-2.9,2.5
			C773.1,370.3,774.8,372,776.1,371.9L776.1,371.9z"/>
		<path class="st0" d="M106.1,653.6c-1.1,0-2.7,1.8-2.7,2.9c0,1.1,1.6,2.8,2.8,2.8c1.1,0,2.8-1.6,2.9-2.7
			C109,655.4,107.2,653.5,106.1,653.6L106.1,653.6z"/>
		<path class="st0" d="M776.1,413.9c-1.3-0.1-3,1.6-3,2.8c0,1.1,1.7,2.8,2.9,2.8c1.1,0,2.8-1.6,2.9-2.8
			C778.9,415.6,777.4,414,776.1,413.9L776.1,413.9z"/>
		<path class="st0" d="M34.3,228.3c1.2,0,2.7-1.5,2.7-2.8c0-1.2-1.4-2.8-2.6-2.9c-1.2-0.1-2.9,1.6-2.8,2.9
			C31.6,226.8,33.1,228.3,34.3,228.3L34.3,228.3z"/>
		<path class="st0" d="M416.3,773.2c-1.2,0.2-2.2,1.5-2.2,2.7c0,1.2,1.1,2.5,2.3,2.7c1.4,0.2,2.3-0.5,3.3-2.7
			C418.6,773.6,417.7,773,416.3,773.2L416.3,773.2z"/>
		<path class="st0" d="M250,748.9c-1.3-0.1-2.8,1.3-2.8,2.6c-0.1,1.4,1.2,2.7,2.6,2.8c1.4,0.1,2.8-1.2,2.8-2.5
			C252.6,750.4,251.3,748.9,250,748.9L250,748.9z"/>
		<path class="st0" d="M9.3,486.7c-0.8,0.6-0.9,2.2-0.4,3.2c0.6,1,1.6,1.2,4,0.5c0.6-1.4,1-2.8-0.4-3.9
			C11.8,485.9,10.1,486,9.3,486.7z"/>
		<path class="st0" d="M178.1,61c1.5,0,2.4-1,2.4-2.5c0-1.5-1.1-2.5-2.6-2.4c-1.3,0.1-2.3,1.1-2.3,2.4C175.6,60,176.6,61,178.1,61
			L178.1,61z"/>
		<path class="st0" d="M342.8,773.7v4.4h3.9c0.9-1.6,1-2.9-0.1-4.4H342.8L342.8,773.7z"/>
		<path class="st0" d="M58.5,180.4c1.5,0.1,2.6-0.9,2.6-2.4c0.1-1.6-0.9-2.5-2.5-2.5c-1.7,0-2.4,0.8-2.4,2.4
			C56.2,179.5,57,180.4,58.5,180.4z"/>
		<path class="st0" d="M82.9,629.8c-1.6,0-2.4,0.9-2.3,2.6c0.1,1.5,0.9,2.3,2.4,2.3c1.5,0,2.5-1,2.5-2.5
			C85.4,630.6,84.5,629.7,82.9,629.8L82.9,629.8z"/>
		<path class="st0" d="M490.6,12.7c0.6-0.8,0.7-2.6,0-3.3c-1.2-1.2-2.6-0.9-4.1-0.1v3.4C488.5,13.5,490,13.5,490.6,12.7L490.6,12.7z
			"/>
		<path class="st0" d="M777.7,347.1c0.9-1.7,1-3-0.1-4.5h-3.4c-0.9,1.6-1,3,0.2,4.5H777.7z"/>
		<path class="st0" d="M753.7,251.5c0.7-0.6,0.6-3-0.1-3.6c-1.2-0.9-2.5-0.9-4,0.2v3.4C751.3,252.5,752.6,252.5,753.7,251.5
			L753.7,251.5z"/>
		<path class="st0" d="M679.9,132.8c1.6,0,2.5-1,2.4-2.6c-0.1-1.4-1-2.3-2.4-2.3c-1.6,0-2.4,0.9-2.4,2.5
			C677.5,132.1,678.3,132.9,679.9,132.8z"/>
		<path class="st0" d="M656.6,108.5c1.7,0,2.4-0.8,2.4-2.4c0-1.6-1-2.5-2.5-2.4c-1.4,0.1-2.3,1-2.4,2.4
			C654.1,107.6,655,108.5,656.6,108.5L656.6,108.5z"/>
		<path class="st0" d="M441.1,773.5c-1.6,0-2.3,0.8-2.2,2.4c0,1.6,0.7,2.3,2.3,2.3c1.6,0,2.3-0.6,2.3-2.2
			C443.5,774.2,442.8,773.5,441.1,773.5z"/>
		<path class="st0" d="M630.6,84.6c0.9,0.3,2.3,0.6,3.1,0.2c1.5-0.7,0.9-2.3,0.6-3.7c-1.5-0.4-2.8-0.9-3.9,0.3
			C629.7,82.1,629.8,84.3,630.6,84.6z"/>
		<path class="st0" d="M34.3,558.1c-1.4,0-2.2,0.7-2.2,2.1c-0.1,1.5,0.7,2.4,2.2,2.4c1.5,0,2.3-0.7,2.3-2.2
			C36.6,558.9,35.8,558.1,34.3,558.1z"/>
		<path class="st0" d="M321.8,773.6c-1.6,0-2.3,0.7-2.2,2.3c0,1.6,0.8,2.3,2.3,2.2c1.4-0.1,2-0.7,2-2.3
			C323.8,774.3,323.2,773.7,321.8,773.6L321.8,773.6z"/>
		<path class="st0" d="M727.4,582.4c-1.6,0-2.3,0.7-2.2,2.3c0,1.4,0.8,2.1,2.2,2.1c1.5,0,2.1-0.7,2-2.2
			C729.5,583.1,728.9,582.5,727.4,582.4L727.4,582.4z"/>
		<path class="st0" d="M584.9,725.1c-1.5-0.1-2.2,0.6-2.2,2c-0.1,1.7,0.5,2.4,2.1,2.4c1.5,0,2.1-0.6,2.2-2.1
			C587,725.8,586.4,725.1,584.9,725.1L584.9,725.1z"/>
		<path class="st0" d="M11.2,276.2c1.5-0.1,2.1-0.8,2-2.3c0-1.5-0.7-2-2.2-2c-1.5,0-2.2,0.6-2.2,2.1C8.9,275.6,9.6,276.3,11.2,276.2
			z"/>
		<path class="st0" d="M536.3,749.4c-1.4-0.1-2.2,0.6-2.3,2c-0.1,1.6,0.6,2.4,2.1,2.4c1.5,0,2.1-0.6,2.1-2.1
			C538.4,750.1,537.8,749.5,536.3,749.4L536.3,749.4z"/>
		<path class="st0" d="M777.5,439.1c-0.8-0.5-2.3-0.4-3.1,0.1c-1.2,0.8-0.7,2.2-0.3,3.8h3.7C778.3,441.5,778.8,440,777.5,439.1
			L777.5,439.1z"/>
		<path class="st0" d="M751.8,533.9c-1.5,0-2.2,0.6-2.2,2.1c-0.1,1.6,0.6,2.3,2.2,2.3c1.5,0,2.1-0.6,2.1-2.2
			C753.9,534.6,753.3,533.9,751.8,533.9L751.8,533.9z"/>
		<path class="st0" d="M153.6,702c-1.5,0-2.1,0.7-2,2.2c0.1,1.5,0.7,2.1,2.2,2c1.5-0.1,2.1-0.7,2-2.3
			C155.8,702.5,155.2,701.9,153.6,702L153.6,702z"/>
		<path class="st0" d="M704.3,155.7c1.2-0.1,2-0.9,2-2.1c0-1.3-1-2.2-2.2-2.1c-1.1,0.1-2,1-2,2.1C702.1,154.9,703,155.8,704.3,155.7
			L704.3,155.7z"/>
		<path class="st0" d="M560.5,36.4c1.2,0,2-0.8,2.1-2c0-1.3-0.8-2.2-2.1-2.2c-1.2,0-2,0.8-2.1,2C558.3,35.5,559.2,36.4,560.5,36.4z"
			/>
	</g>
</g>
</svg>
