<?xml version="1.0" encoding="UTF-8"?>
<svg id="b" data-name="图层 2" xmlns="http://www.w3.org/2000/svg" viewBox="0 0 6166.069 1335.876">
  <g id="c" data-name="Endfield">
    <g id="d" data-name="EN Title">
      <g id="e" data-name="SubTitle_EN">
        <g>
          <path d="M657.003,1089.925v168.896h-43.904v-168.896h43.904Z" style="fill: #231815;"/>
          <path d="M1084.392,1258.821v-168.896h43.904l81.088,103.265v-103.265h43.68v168.896h-43.68l-81.088-103.264v103.264h-43.904Z" style="fill: #231815;"/>
          <path d="M1680.455,1089.925h64.96c11.497,0,22.288,2.317,32.368,6.944,10.08,4.631,18.89,10.791,26.432,18.48,7.539,7.692,13.475,16.652,17.808,26.88,4.33,10.23,6.496,20.943,6.496,32.144,0,11.054-2.128,21.693-6.384,31.92-4.256,10.23-10.157,19.229-17.696,26.992-7.542,7.767-16.352,13.965-26.432,18.592-10.08,4.631-20.944,6.944-32.592,6.944h-64.96v-168.896ZM1724.36,1221.637h10.08c7.616,0,14.409-1.194,20.384-3.584,5.971-2.388,11.011-5.674,15.12-9.856,4.105-4.179,7.241-9.146,9.408-14.896,2.163-5.747,3.248-12.058,3.248-18.929,0-6.72-1.12-12.992-3.36-18.815-2.24-5.824-5.415-10.826-9.52-15.009-4.109-4.179-9.149-7.465-15.12-9.855-5.974-2.387-12.694-3.584-20.16-3.584h-10.08v94.528Z" style="fill: #231815;"/>
          <path d="M2292.423,1089.925v91.841c0,4.928.186,9.968.56,15.12.371,5.151,1.491,9.82,3.36,14,1.866,4.182,4.816,7.58,8.848,10.191,4.032,2.614,9.706,3.92,17.024,3.92s12.954-1.306,16.912-3.92c3.955-2.611,6.905-6.01,8.848-10.191,1.939-4.18,3.098-8.849,3.472-14,.371-5.152.56-10.192.56-15.12v-91.841h43.68v97.889c0,26.285-6.013,45.472-18.032,57.567-12.022,12.097-30.502,18.145-55.44,18.145s-43.456-6.048-55.552-18.145c-12.096-12.096-18.144-31.282-18.144-57.567v-97.889h43.904Z" style="fill: #231815;"/>
          <path d="M2915.811,1133.157c-4.78-3.882-9.559-6.755-14.336-8.624-4.78-1.865-9.407-2.8-13.888-2.8-5.677,0-10.304,1.344-13.888,4.032-3.584,2.688-5.376,6.198-5.376,10.527,0,2.989.896,5.453,2.688,7.393,1.792,1.942,4.145,3.622,7.057,5.04,2.911,1.421,6.194,2.652,9.855,3.695,3.657,1.047,7.28,2.167,10.864,3.36,14.336,4.781,24.825,11.165,31.472,19.152,6.644,7.99,9.968,18.406,9.968,31.248,0,8.662-1.456,16.502-4.367,23.52-2.912,7.021-7.169,13.03-12.769,18.032-5.6,5.005-12.471,8.887-20.608,11.647-8.141,2.762-17.359,4.145-27.663,4.145-21.357,0-41.143-6.346-59.36-19.04l18.816-35.392c6.569,5.823,13.065,10.156,19.487,12.991,6.419,2.839,12.769,4.256,19.04,4.256,7.168,0,12.506-1.641,16.017-4.928,3.507-3.283,5.264-7.018,5.264-11.2,0-2.537-.448-4.738-1.344-6.607-.896-1.865-2.391-3.584-4.48-5.152-2.093-1.567-4.815-3.023-8.176-4.368-3.36-1.344-7.431-2.835-12.208-4.479-5.677-1.792-11.238-3.77-16.688-5.937-5.452-2.163-10.304-5.04-14.56-8.624s-7.693-8.099-10.304-13.552c-2.615-5.449-3.92-12.354-3.92-20.72s1.379-15.939,4.144-22.736c2.762-6.793,6.643-12.617,11.648-17.472,5.001-4.852,11.123-8.624,18.367-11.312,7.242-2.688,15.345-4.031,24.305-4.031,8.361,0,17.098,1.158,26.208,3.472,9.106,2.317,17.843,5.712,26.208,10.192l-17.473,34.271Z" style="fill: #231815;"/>
          <path d="M3424.96,1127.109v131.712h-43.902v-131.712h-36.064v-37.185h116.031v37.185h-36.064Z" style="fill: #231815;"/>
          <path d="M4012.96,1258.821h-54.656l-41.889-64.96v64.96h-43.902v-168.896h68.318c9.408,0,17.619,1.383,24.641,4.145,7.018,2.765,12.803,6.534,17.359,11.312,4.555,4.781,7.988,10.305,10.305,16.576,2.314,6.272,3.473,12.992,3.473,20.16,0,12.845-3.102,23.261-9.297,31.248-6.197,7.99-15.344,13.405-27.439,16.24l53.088,69.216ZM3916.415,1165.413h8.289c8.658,0,15.305-1.792,19.936-5.376,4.627-3.584,6.943-8.735,6.943-15.456s-2.316-11.872-6.943-15.456c-4.631-3.584-11.277-5.376-19.936-5.376h-8.289v41.664Z" style="fill: #231815;"/>
          <path d="M4467.232,1089.925v168.896h-43.904v-168.896h43.904Z" style="fill: #231815;"/>
          <path d="M4990.718,1127.109h-52.193v28.224h49.281v37.185h-49.281v29.12h52.193v37.184h-96.096v-168.896h96.096v37.185Z" style="fill: #231815;"/>
          <path d="M5507.034,1133.157c-4.779-3.882-9.559-6.755-14.336-8.624-4.779-1.865-9.406-2.8-13.887-2.8-5.678,0-10.305,1.344-13.889,4.032-3.584,2.688-5.375,6.198-5.375,10.527,0,2.989.895,5.453,2.688,7.393,1.791,1.942,4.145,3.622,7.057,5.04,2.91,1.421,6.193,2.652,9.855,3.695,3.656,1.047,7.279,2.167,10.863,3.36,14.336,4.781,24.826,11.165,31.473,19.152,6.643,7.99,9.967,18.406,9.967,31.248,0,8.662-1.455,16.502-4.367,23.52-2.912,7.021-7.168,13.03-12.768,18.032-5.6,5.005-12.471,8.887-20.609,11.647-8.141,2.762-17.359,4.145-27.662,4.145-21.357,0-41.143-6.346-59.361-19.04l18.816-35.392c6.57,5.823,13.066,10.156,19.488,12.991,6.418,2.839,12.768,4.256,19.039,4.256,7.168,0,12.506-1.641,16.018-4.928,3.506-3.283,5.264-7.018,5.264-11.2,0-2.537-.449-4.738-1.344-6.607-.896-1.865-2.391-3.584-4.48-5.152-2.094-1.567-4.816-3.023-8.176-4.368-3.361-1.344-7.432-2.835-12.209-4.479-5.676-1.792-11.238-3.77-16.688-5.937-5.453-2.163-10.305-5.04-14.561-8.624s-7.693-8.099-10.303-13.552c-2.615-5.449-3.92-12.354-3.92-20.72s1.379-15.939,4.143-22.736c2.762-6.793,6.643-12.617,11.648-17.472,5.002-4.852,11.123-8.624,18.367-11.312,7.242-2.688,15.346-4.031,24.305-4.031,8.361,0,17.098,1.158,26.209,3.472,9.105,2.317,17.842,5.712,26.207,10.192l-17.473,34.271Z" style="fill: #231815;"/>
        </g>
        <rect id="f" data-name="Dash" y="1153.25" width="386.535" height="31.071" style="fill: #231815;"/>
        <rect id="g" data-name="Dash" x="5730.432" y="1153.369" width="388.677" height="30.288" style="fill: #231815;"/>
      </g>
      <g id="h" data-name="ENDFIELD">
        <path id="i" data-name="LD" d="M4499.723,1008.882V2.635h278.974v744.29h397.987V.309c26.213,0,51.277-.031,76.341.005,132.669.188,265.372-1.365,397.999,1.084,132.594,2.449,251.893,44.087,351.972,133.559,96.986,86.707,147.63,196.124,160.38,325.136,9.434,95.463-5.842,186.264-47.045,271.857-63.61,132.139-171.709,211.732-310.496,251.92-58.157,16.84-117.7,24.421-178.523,24.391-366.771-.18-733.542.337-1100.312.619-8.675.007-17.35.001-27.277.001ZM5462.074,750.791c36.056,0,71.638,1.702,106.991-.42,46.92-2.816,94.375-4.993,140.299-14.043,58.645-11.557,109.73-39.886,139.982-94.584,41.517-75.065,46.012-154.965,14.558-233.333-36.104-89.954-110.54-134.721-204.051-143.632-62.524-5.958-125.966-2.306-188.997-2.874-2.62-.024-5.246.779-8.781,1.342v487.544Z"/>
        <path id="j" data-name="E" d="M4441.343,748.147v256.362h-759.501V1.684h751.421v255.252h-470.539v126.565h339.189v235.775h-339.474v128.871h478.904Z"/>
        <path id="k" data-name="I" d="M3331.592,2.503h275.977v1003.504h-275.977V2.503Z"/>
        <path id="l" data-name="F" d="M3280.22,3.144v255.164h-454.39v147.002h349.483v260.718h-351.969v339.861h-279.292V3.144h736.167Z"/>
        <path id="m" data-name="ND" d="M1493.699,523.22V.46c46.161,0,90.968-.04,135.775.008,111.848.118,223.699-.281,335.542.581,104.62.807,203.445,24.614,292.008,82.052,130.923,84.91,207.497,204.558,226.874,360.267,12.347,99.218,1.596,194.269-43.624,284.807-74.594,149.351-196.319,235.483-358.089,265.637-51.379,9.577-104.457,12.863-156.84,13.674-138.688,2.147-297.778,1.146-436.49,2.055h0c-92.831-131.687-200.796-281.293-294.183-412.588-25.729-36.173-51.171-72.55-76.906-108.719-3.394-4.77-7.749-8.856-14.467-16.421v532.237h-278.788V.368c20.692,0,40.835-.001,60.979,0,68.534.003,137.069.229,205.6-.193h20.52s162.422,229.22,240.445,336.491c42.553,58.505,85.497,116.726,128.287,175.059l13.387,17.508-.027-6.013ZM1782.547,747.189c58.637,0,116.354,2.942,173.593-1.023,38.85-2.692,78.569-10.805,115.188-24.01,77.974-28.116,116.242-89.265,131.345-169.03,25.076-132.432-54.046-258.189-186.13-284.65-46.771-9.369-95.905-7.437-144.01-9.475-29.413-1.246-58.922-.23-89.986-.23v488.419Z"/>
        <path id="n" data-name="E" d="M765.55,747.67v258.388H5.374V2.793h750.375v255.289h-469.642v125.259h339.907v236.058h-337.928v128.271h477.463Z"/>
      </g>
    </g>
  </g>
</svg>