<?xml version="1.0" encoding="UTF-8"?>
<svg id="b" data-name="图层 2" xmlns="http://www.w3.org/2000/svg" xmlns:xlink="http://www.w3.org/1999/xlink" viewBox="0 0 347.213 382.075">
  <defs>
    <filter id="d" data-name="drop-shadow-1" filterUnits="userSpaceOnUse">
      <feOffset dx="0" dy="19"/>
      <feGaussianBlur result="e" stdDeviation="3"/>
      <feFlood flood-color="#000" flood-opacity=".4"/>
      <feComposite in2="e" operator="in"/>
      <feComposite in="SourceGraphic"/>
    </filter>
  </defs>
  <g id="c" data-name="图层 1">
    <g style="filter: url(#d);">
      <g>
        <path d="M173.607,256.808c-41.701,0-75.507-33.806-75.507-75.507s33.806-75.507,75.507-75.507c-51.479,0-93.211,41.732-93.211,93.211s41.732,93.211,93.211,93.211v-35.41Z" style="fill: #fff; stroke-width: 0px;"/>
        <path d="M52.897,226.504c0-66.666,54.043-120.709,120.709-120.709v-29.887c-61.009,0-113.774,35.262-139.052,86.512C40.254,90.608,100.33,34.108,173.607,34.108V0C77.726,0,0,77.726,0,173.607c0,29.727,7.478,57.706,20.646,82.168h0s0,0,0,0c.334.62.675,1.235,1.016,1.85.232.418.465.836.7,1.253.345.611.692,1.222,1.044,1.829.236.406.477.807.716,1.211.609,1.028,1.227,2.05,1.856,3.064.252.406.504.812.759,1.215.373.591.749,1.181,1.13,1.767.261.402.526.8.789,1.199.648.982,1.306,1.956,1.974,2.924.276.399.55.799.829,1.196.397.565.798,1.128,1.202,1.689.289.401.582.8.874,1.199.668.91,1.344,1.814,2.029,2.71.317.415.633.832.954,1.244.415.533.835,1.063,1.256,1.591.32.401.642.8.965,1.198.589.726,1.184,1.447,1.784,2.163.457.544.913,1.089,1.376,1.628.427.497.86.989,1.292,1.48.353.401.707.801,1.064,1.199.433.484.866.967,1.304,1.446.565.617,1.137,1.229,1.711,1.838.535.567,1.074,1.129,1.616,1.689.396.409.793.817,1.194,1.222.441.446.882.891,1.328,1.333.483.479.971.952,1.46,1.425.648.627,1.301,1.25,1.958,1.867.454.426.909.852,1.368,1.273.446.409.893.817,1.343,1.222.493.444.99.882,1.488,1.32.626.551,1.256,1.097,1.89,1.639.556.475,1.113.948,1.675,1.416.443.369.889.735,1.335,1.099.522.426,1.048.849,1.576,1.269.41.326.817.656,1.229.978.835.653,1.678,1.297,2.525,1.936.43.324.864.644,1.297.964.564.417,1.132.83,1.701,1.241.418.301.835.604,1.255.901.883.624,1.771,1.24,2.666,1.848.404.274.812.544,1.218.815.621.414,1.244.825,1.87,1.231.421.273.841.546,1.264.815.932.593,1.868,1.18,2.812,1.755.352.215.708.424,1.062.636.702.421,1.406.839,2.115,1.25.416.242.833.483,1.252.721.84.479,1.685.951,2.533,1.416.39.214.782.426,1.174.637.836.45,1.676.893,2.52,1.33.406.21.814.418,1.222.625.807.409,1.619.812,2.433,1.209.294.144.587.291.882.433,1.047.503,2.102.993,3.161,1.476.386.176.773.348,1.16.521.818.365,1.639.724,2.463,1.077.334.143.667.289,1.002.43,1.087.458,2.181.904,3.279,1.34.351.139.703.274,1.055.411.856.333,1.714.66,2.576.98.355.132.709.265,1.064.394,1.129.411,2.263.811,3.403,1.199.288.098.579.192.868.288.927.31,1.856.611,2.79.906.364.115.727.23,1.092.342,1.173.361,2.349.714,3.532,1.051.173.049.348.095.522.144,1.053.296,2.111.581,3.172.858.362.094.725.188,1.088.28,1.097.279,2.198.548,3.303.806.139.032.276.067.415.099,1.222.282,2.451.546,3.683.802.351.073.704.143,1.056.214,1.036.208,2.075.408,3.118.597.243.044.484.091.727.134,1.246.221,2.498.427,3.753.622.323.05.648.097.972.145,1.031.154,2.065.298,3.101.434.3.039.6.081.901.119,1.271.159,2.546.305,3.825.437.275.028.551.053.826.08,1.064.104,2.131.199,3.201.284.336.027.671.055,1.007.079,1.297.096,2.597.18,3.901.247.185.009.37.015.555.024,1.15.055,2.303.098,3.459.131.352.01.703.02,1.055.028.291.007.583.006.874.011-65.226-1.653-117.593-55.046-117.593-120.67Z" style="fill: #fff; stroke-width: 0px;"/>
      </g>
      <g>
        <path d="M173.607,125.267c41.701,0,75.507,33.806,75.507,75.507s-33.806,75.507-75.507,75.507c51.479,0,93.211-41.732,93.211-93.211s-41.732-93.211-93.211-93.211v35.41Z" style="fill: #fff; stroke-width: 0px;"/>
        <path d="M294.316,155.571c0,66.666-54.043,120.709-120.709,120.709v29.887c61.009,0,113.774-35.262,139.052-86.512-5.699,71.811-65.775,128.312-139.052,128.312v34.108c95.88,0,173.607-77.726,173.607-173.607,0-29.727-7.478-57.706-20.646-82.168h0s0,0,0,0c-.334-.62-.675-1.235-1.016-1.85-.232-.418-.465-.836-.7-1.253-.345-.611-.692-1.222-1.044-1.829-.236-.406-.477-.807-.716-1.211-.609-1.028-1.227-2.05-1.856-3.064-.252-.406-.504-.812-.759-1.215-.373-.591-.749-1.181-1.13-1.767-.261-.402-.526-.8-.789-1.199-.648-.982-1.306-1.956-1.974-2.924-.276-.399-.55-.799-.829-1.196-.397-.565-.798-1.128-1.202-1.689-.289-.401-.582-.8-.874-1.199-.668-.91-1.344-1.814-2.029-2.71-.317-.415-.633-.832-.954-1.244-.415-.533-.835-1.063-1.256-1.591-.32-.401-.642-.8-.965-1.198-.589-.726-1.184-1.447-1.784-2.163-.457-.544-.913-1.089-1.376-1.628-.427-.497-.86-.989-1.292-1.48-.353-.401-.707-.801-1.064-1.199-.433-.484-.866-.967-1.304-1.446-.565-.617-1.137-1.229-1.711-1.838-.535-.567-1.074-1.129-1.616-1.689-.396-.409-.793-.817-1.194-1.222-.441-.446-.882-.891-1.328-1.333-.483-.479-.971-.952-1.46-1.425-.648-.627-1.301-1.25-1.958-1.867-.454-.426-.909-.852-1.368-1.273-.446-.409-.893-.817-1.343-1.222-.493-.444-.99-.882-1.488-1.32-.626-.551-1.256-1.097-1.89-1.639-.556-.475-1.113-.948-1.675-1.416-.443-.369-.889-.735-1.335-1.099-.522-.426-1.048-.849-1.576-1.269-.41-.326-.817-.656-1.229-.978-.835-.653-1.678-1.297-2.525-1.936-.43-.324-.864-.644-1.297-.964-.564-.417-1.132-.83-1.701-1.241-.418-.301-.835-.604-1.255-.901-.883-.624-1.771-1.24-2.666-1.848-.404-.274-.812-.544-1.218-.815-.621-.414-1.244-.825-1.87-1.231-.421-.273-.841-.546-1.264-.815-.932-.593-1.868-1.18-2.812-1.755-.352-.215-.708-.424-1.062-.636-.702-.421-1.406-.839-2.115-1.25-.416-.242-.833-.483-1.252-.721-.84-.479-1.685-.951-2.533-1.416-.39-.214-.782-.426-1.174-.637-.836-.45-1.676-.893-2.52-1.33-.406-.21-.814-.418-1.222-.625-.807-.409-1.619-.812-2.433-1.209-.294-.144-.587-.291-.882-.433-1.047-.503-2.102-.993-3.161-1.476-.386-.176-.773-.348-1.16-.521-.818-.365-1.639-.724-2.463-1.077-.334-.143-.667-.289-1.002-.43-1.087-.458-2.181-.904-3.279-1.34-.351-.139-.703-.274-1.055-.411-.856-.333-1.714-.66-2.576-.98-.355-.132-.709-.265-1.064-.394-1.129-.411-2.263-.811-3.403-1.199-.288-.098-.579-.192-.868-.288-.927-.31-1.856-.611-2.79-.906-.364-.115-.727-.23-1.092-.342-1.173-.361-2.349-.714-3.532-1.051-.173-.049-.348-.095-.522-.144-1.053-.296-2.111-.581-3.172-.858-.362-.094-.725-.188-1.088-.28-1.097-.279-2.198-.548-3.303-.806-.139-.032-.276-.067-.415-.099-1.222-.282-2.451-.546-3.683-.802-.351-.073-.704-.143-1.056-.214-1.036-.208-2.075-.408-3.118-.597-.243-.044-.484-.091-.727-.134-1.246-.221-2.498-.427-3.753-.622-.323-.05-.648-.097-.972-.145-1.031-.154-2.065-.298-3.101-.434-.3-.039-.6-.081-.901-.119-1.271-.159-2.546-.305-3.825-.437-.275-.028-.551-.053-.826-.08-1.064-.104-2.131-.199-3.201-.284-.336-.027-.671-.055-1.007-.079-1.297-.096-2.597-.18-3.901-.247-.185-.009-.37-.015-.555-.024-1.15-.055-2.303-.098-3.459-.131-.352-.01-.703-.02-1.055-.028-.291-.007-.583-.006-.874-.011,65.226,1.653,117.593,55.046,117.593,120.67Z" style="fill: #fff; stroke-width: 0px;"/>
      </g>
    </g>
  </g>
</svg>