<?xml version="1.0" encoding="UTF-8"?>
<svg id="b" data-name="图层 2" xmlns="http://www.w3.org/2000/svg" viewBox="0 0 313.57 289.883">
  <g id="c" data-name="图层 1">
    <g id="d" data-name="主技能">
      <g>
        <polygon points="209.058 173.93 243.895 115.953 209.058 57.977 174.22 0 139.383 57.977 104.546 115.953 69.709 173.93 34.871 231.907 34.837 231.907 0 289.883 69.675 289.883 139.349 289.883 174.186 231.907 104.546 231.907 139.383 173.93 174.22 115.953 209.058 173.93" style="fill: #fff; stroke-width: 0px;"/>
        <polygon points="139.383 173.93 174.22 231.907 209.058 173.93 139.383 173.93" style="fill: #fff; stroke-width: 0px;"/>
        <polygon points="209.058 173.93 243.895 231.907 278.732 173.93 209.058 173.93" style="fill: #fff; stroke-width: 0px;"/>
        <polygon points="209.058 289.883 243.895 231.907 174.22 231.907 209.058 289.883" style="fill: #fff; stroke-width: 0px;"/>
        <polygon points="243.895 231.907 278.732 289.883 313.57 231.907 243.895 231.907" style="fill: #fff; stroke-width: 0px;"/>
      </g>
    </g>
  </g>
</svg>