<?xml version="1.0" encoding="UTF-8"?>
<svg id="b" xmlns="http://www.w3.org/2000/svg" viewBox="0 0 212.6 212.6">
  <g id="c">
    <path d="m207.82 88.07-18.66-1.79c-2.12-.2-3.9-1.66-4.53-3.69-1.65-5.34-3.83-10.45-6.47-15.26-1.04-1.89-.83-4.22.54-5.89l11.8-14.4c1.72-2.1 1.57-5.15-.34-7.07l-17.85-17.99c-1.92-1.94-5.01-2.09-7.11-.35l-14.62 12.06c-1.66 1.37-3.97 1.59-5.86.57-4.81-2.58-9.89-4.7-15.21-6.3-2.05-.62-3.53-2.4-3.74-4.53l-1.84-18.57c-.27-2.7-2.53-4.75-5.24-4.76L93.35 0c-2.73-.01-5.02 2.06-5.28 4.78L86.3 23.25c-.21 2.15-1.7 3.95-3.78 4.56-5.46 1.6-10.69 3.74-15.62 6.38-1.88 1.01-4.18.78-5.83-.57L47.04 22.11c-2.1-1.72-5.15-1.57-7.07.34L21.98 40.3c-1.94 1.92-2.09 5.01-.35 7.11l11.32 13.72c1.38 1.67 1.59 4.02.54 5.92-2.83 5.09-5.13 10.51-6.84 16.2-.62 2.04-2.4 3.51-4.53 3.72L4.87 88.68c-2.7.27-4.75 2.53-4.76 5.24L0 119.25c-.01 2.73 2.06 5.02 4.78 5.28l17.03 1.63c2.17.21 3.97 1.73 4.58 3.83 1.69 5.86 4 11.46 6.87 16.71 1.04 1.9.84 4.23-.53 5.91l-10.62 12.95c-1.72 2.1-1.57 5.15.34 7.07l17.85 17.99c1.92 1.94 5.01 2.09 7.11.35l13.03-10.75c1.67-1.38 4-1.58 5.91-.55 5.29 2.87 10.93 5.18 16.83 6.85 2.1.59 3.63 2.39 3.85 4.57l1.65 16.65c.27 2.7 2.53 4.75 5.24 4.76l25.34.1c2.73.01 5.02-2.06 5.28-4.78l1.65-17.2c.2-2.14 1.69-3.92 3.74-4.55 5.74-1.76 11.22-4.13 16.35-7.03 1.9-1.07 4.25-.87 5.94.51l13.36 10.95c2.1 1.72 5.15 1.57 7.07-.34l17.99-17.85c1.94-1.92 2.09-5.01.35-7.11l-11.51-13.95c-1.35-1.64-1.59-3.93-.6-5.81 2.64-5.02 4.77-10.34 6.34-15.91.59-2.09 2.39-3.61 4.56-3.82l17.97-1.78c2.7-.27 4.75-2.53 4.76-5.24l.1-25.34c.01-2.73-2.06-5.02-4.78-5.28ZM105.74 147.58c-22.37 0-40.51-18.14-40.51-40.51s18.14-40.51 40.51-40.51 40.51 18.14 40.51 40.51-18.14 40.51-40.51 40.51Z" style="fill: #000;"/>
  </g>
</svg>