<?xml version="1.0" encoding="UTF-8"?>
<svg id="b" data-name="图层 2" xmlns="http://www.w3.org/2000/svg" viewBox="0 0 397 279.795">
  <g id="c" data-name="图层 1">
    <g>
      <g>
        <polygon points="140.926 81.491 182.722 39.695 222.417 0 179.868 0 140.173 0 99.804 40.369 140.926 81.491" style="fill: #fff; stroke-width: 0px;"/>
        <polygon points="226.304 168.242 198.235 140.173 82.244 140.173 122.153 100.264 99.804 40.369 0 140.173 56.137 196.311 198.235 196.311 254.372 196.311 226.304 168.242" style="fill: #fff; stroke-width: 0px;"/>
      </g>
      <g>
        <polygon points="256.074 198.304 214.278 240.1 174.583 279.795 217.132 279.795 256.827 279.795 297.196 239.426 256.074 198.304" style="fill: #fff; stroke-width: 0px;"/>
        <polygon points="170.696 111.553 198.765 139.621 314.756 139.621 274.847 179.531 297.196 239.426 397 139.621 340.863 83.484 198.765 83.484 142.628 83.484 170.696 111.553" style="fill: #fff; stroke-width: 0px;"/>
      </g>
    </g>
  </g>
</svg>