<?xml version="1.0" encoding="UTF-8"?>
<svg id="_图层_2" data-name="图层 2" xmlns="http://www.w3.org/2000/svg" xmlns:xlink="http://www.w3.org/1999/xlink" viewBox="0 0 406.27 355.2">
  <defs>
    <style>
      .cls-1 {
        filter: url(#drop-shadow-1);
      }

      .cls-2 {
        fill: #fff;
        stroke-width: 0px;
      }
    </style>
    <filter id="drop-shadow-1" filterUnits="userSpaceOnUse">
      <feOffset dx="0" dy="10"/>
      <feGaussianBlur result="blur" stdDeviation="6"/>
      <feFlood flood-color="#000" flood-opacity=".75"/>
      <feComposite in2="blur" operator="in"/>
      <feComposite in="SourceGraphic"/>
    </filter>
  </defs>
  <g id="_图层_1-2" data-name="图层 1">
    <g class="cls-1">
      <path class="cls-2" d="M14.68,253.49c-19.79-47.92-19.29-104.79-.18-151.87,47.72,32.73,152.32,74.44,188.47,74.33s129.4-34.79,188.35-74.33c18.87,47.41,20.99,100.36-.05,151.87-59.11-40.62-152.28-74.44-188.3-74.33S64.13,217.74,14.68,253.49Z"/>
      <path class="cls-2" d="M24.71,77.47c4.4-7.14,18.53-29.99,28.57-40.86,35.28,40.52,71.69,85.84,122.24,118.39,16.43,10.58,37.6,10.77,54.21.48,51.73-32.04,87.62-78.45,122.08-118.87,13.68,16.38,21.02,26.39,30.39,40.96-109.91,88-156.11,91.01-175.67,92.64-2.32.19-4.64.21-6.97.03-20.38-1.58-62.14-4.27-174.85-92.76Z"/>
      <path class="cls-2" d="M308.05,0c10.71,6.5,22.63,15.67,31.05,22.92-81.46,115.62-112.84,133.02-132.4,134.65-2.32.19-4.64.21-6.97.03-20.38-1.58-50.78-19.5-132.89-134.95,6.26-4.94,20.32-16.34,30.65-22.64,0,0,45.31,109.71,86.81,144.64,9.73,7.91,26.45,8.06,37.32.1C264.64,110.61,308.05,0,308.05,0Z"/>
      <path class="cls-2" d="M23.59,277.32c4.4,7.14,18.53,29.99,28.57,40.86,35.28-40.52,71.69-85.84,122.24-118.39,16.43-10.58,37.6-10.77,54.21-.48,51.73,32.04,87.62,78.45,122.08,118.87,13.68-16.38,21.02-26.39,30.39-40.96-109.91-88-156.11-91.01-175.67-92.64-2.32-.19-4.64-.21-6.97-.03-20.38,1.58-62.14,4.27-174.85,92.76Z"/>
      <path class="cls-2" d="M307.41,355.2c10.71-6.5,22.63-15.67,31.05-22.92-81.46-115.62-112.84-133.02-132.4-134.65-2.32-.19-4.64-.21-6.97-.03-20.38,1.58-50.78,19.5-132.89,134.95,6.26,4.94,20.32,16.34,30.65,22.64,0,0,45.31-109.71,86.81-144.64,9.73-7.91,26.45-8.06,37.32-.1,43.01,34.13,86.42,144.74,86.42,144.74Z"/>
    </g>
  </g>
</svg>