<?xml version="1.0" encoding="UTF-8"?>
<svg id="b" data-name="图层 2" xmlns="http://www.w3.org/2000/svg" viewBox="0 0 331.806 418.48">
  <g id="c" data-name="图层 1">
    <g id="d" data-name="主技能">
      <g>
        <path d="M242.498,0c-6.269,62.9-11.433,146.2-45.359,188.343C149.318,229.916,0,253.808,0,253.808l21.136,63.018s131.627-51.781,186.34-90.382c10.585-7.468,18.902-17.736,23.871-29.699,16.79-40.424,18.389-82.216,21.794-124.597,2.149-26.745,5.543-68.709,5.543-68.709l-16.186-3.439Z" style="fill: #fff; stroke-width: 0px;"/>
        <path d="M266.228,5.115c-5.801,117.226,2.277,149.848-19.84,202.896-2.942,7.056-7.217,13.481-12.621,18.888-45.937,45.964-185.506,124.235-185.506,124.235l61.331,44.954s132.246-103.123,160.943-167.741c15.577-40.004,15.657-98.651,13.571-147.54-1.696-39.723-3.663-71.657-3.663-71.657l-14.215-4.035Z" style="fill: #fff; stroke-width: 0px;"/>
        <path d="M287.628,11.095c13.883,132.013,16.893,177.165,4.8,222.051-39.945,88.014-139.477,178.449-139.477,178.449,25.046,8.013,76.828,9.854,111.077,1.095,0,0,37.208-86.114,59.669-150.388,4.909-14.048,7.621-28.761,8.007-43.637,1.009-38.901-5.612-87.211-13.838-127.677-7.882-38.777-16.418-77.054-16.418-77.054l-13.821-2.838Z" style="fill: #fff; stroke-width: 0px;"/>
      </g>
    </g>
  </g>
</svg>