<?xml version="1.0" encoding="UTF-8"?>
<svg id="b" data-name="图层 2" xmlns="http://www.w3.org/2000/svg" viewBox="0 0 233 362.746">
  <g id="c" data-name="图层 1">
    <g>
      <path d="M57.065,160.209l57.52,19.748h3.929l57.52-19.748,56.966-122.163L151.411,0l-34.911,74.866L81.589,0,0,38.046l56.984,122.201.082-.038ZM116.5,78.183l23.286,49.936-23.286,49.936-23.286-49.936,23.286-49.936Z" style="fill: #fff; stroke-width: 0px;"/>
      <path d="M118.514,179.957h-3.929l-57.845,23.277-.079-.044L0,324.7l81.589,38.046,34.911-74.866,34.911,74.866,81.589-38.046-56.64-121.465-57.845-23.277ZM116.5,281.246l-23.286-49.936,23.286-49.936,23.286,49.936-23.286,49.936Z" style="fill: #fff; stroke-width: 0px;"/>
    </g>
  </g>
</svg>