<?xml version="1.0" encoding="UTF-8"?>
<svg id="b" data-name="图层 2" xmlns="http://www.w3.org/2000/svg" viewBox="0 0 372.363 393.893">
  <g id="c" data-name="图层 1">
    <g id="d" data-name="终结技">
      <g>
        <rect x="157.931" width="59.774" height="393.893" style="fill: #fff; stroke-width: 0px;"/>
        <path d="M0,99.848c28.574,24.622,45.812,56.018,58.803,91.449,11.104,30.285,18.943,65.861,18.943,103.6h56.677c0-45.883-10.573-96.907-30.895-138.044-20.322-41.137-33.332-63.185-70.322-99.673L0,99.848Z" style="fill: #fff; stroke-width: 0px;"/>
        <polygon points="77.746 299.662 77.746 342.959 134.424 342.959 77.746 299.662" style="fill: #fff; stroke-width: 0px;"/>
        <polygon points="294.617 299.662 294.617 342.959 237.939 342.959 294.617 299.662" style="fill: #fff; stroke-width: 0px;"/>
        <path d="M372.363,99.848c-28.574,24.622-45.812,56.018-58.803,91.449-11.104,30.285-18.943,65.861-18.943,103.6h-56.677c0-45.883,10.573-96.907,30.895-138.044,20.322-41.137,33.332-63.185,70.322-99.673l33.207,42.668Z" style="fill: #fff; stroke-width: 0px;"/>
      </g>
    </g>
  </g>
</svg>