<?xml version="1.0" encoding="UTF-8"?>
<svg id="b" xmlns="http://www.w3.org/2000/svg" viewBox="0 0 164.94 106.05">
  <g id="c">
    <path d="M151.39,98.38H16.55c-5.65,0-6.34-.76-6.77-6.44-.84-11.18-1.72-22.47-1.72-33.94,0-15.17,1.11-30.08,3-44.69.52-4.04,1.39-5.64,6.13-5.64h128.65c2.44,0,3.81.45,3.52,4.5-.4,5.68-.8,12.8-.68,18.59.46,22.27,2.69,41.93,6.72,61.57,1.1,5.37.48,6.05-4.01,6.05Z" style="fill: #231815;"/>
    <path d="M157,104.05H11.18c-3.76,0-6.91-3.12-7.32-7.24-1.23-12.54-1.86-25.28-1.86-38.18,0-17.07,1.1-33.86,3.24-50.28.48-3.64,3.3-6.34,6.63-6.34h139.12c2.56,0,4.59,2.39,4.42,5.21-.4,6.39-.61,12.85-.61,19.37,0,23.91,2.75,47.1,7.94,69.22.98,4.17-1.84,8.25-5.74,8.25Z" style="fill: none; stroke: #231815; stroke-miterlimit: 10; stroke-width: 4px;"/>
  </g>
</svg>