<?xml version="1.0" encoding="UTF-8"?>
<svg id="b" xmlns="http://www.w3.org/2000/svg" viewBox="0 0 205 93.82">
  <g id="c">
    <path d="M194.32,9.44c-24.39,24.04-37.26,44.26-51.73,70.76-2.4,4.4-7.11,6.58-12.2,6.58H15.72c-5.9,0-6.92-1.55-4.31-6.4C24.41,56.29,39.39,30.99,59.48,10.7c2.56-2.58,7.59-4.19,11.26-4.19h122.4c1.56,0,2.28,1.85,1.18,2.93Z" style="fill: #231815;"/>
    <path d="M201.48,9.79c-24.25,23.69-40.39,46.43-55.27,74.12-2.63,4.89-7.79,7.9-13.36,7.9H7.32c-3.97,0-6.55-4.19-4.71-7.7C17.51,55.66,33.52,29.74,56.03,7.18c3.32-3.32,7.84-5.18,12.54-5.18h130.12c4.15,0,5.75,4.9,2.79,7.79Z" style="fill: none; stroke: #231815; stroke-miterlimit: 10; stroke-width: 4px;"/>
  </g>
</svg>