<?xml version="1.0" encoding="UTF-8"?>
<svg id="b" xmlns="http://www.w3.org/2000/svg" viewBox="0 0 174.04 100.38">
  <g id="c">
    <path d="M163.49,14.67c-9.06,23.01-14.44,46.52-17.81,72.2-.78,5.93-3.03,5.9-6.23,5.9H15.27c-5.87,0-7.41-.83-6.1-7.73,4.83-25.31,11.96-49.64,22.01-72.38,1.99-4.51,2.58-5.04,7.47-5.04h121.73c3.31,0,5.72.41,3.11,7.06Z" style="fill: #231815;"/>
    <path d="M171.59,9.7c-10.54,25.49-17.63,53.07-20.6,82.01-.39,3.8-3.31,6.67-6.79,6.67H8.77c-4.22,0-7.43-4.2-6.65-8.75C7.05,60.92,15.19,33.46,26.13,7.71c1.48-3.48,4.65-5.71,8.15-5.71h132.77c3.61,0,6.05,4.09,4.56,7.7Z" style="fill: none; stroke: #231815; stroke-miterlimit: 10; stroke-width: 4px;"/>
  </g>
</svg>