<?xml version="1.0" encoding="UTF-8"?>
<svg id="b" xmlns="http://www.w3.org/2000/svg" viewBox="0 0 204.51 93.82">
  <g id="c">
    <path d="M188.75,86.48l-153.34-.09c-2.98,0-5.15,0-6.62-3.39C18.38,59.1,12.42,38.13,8.45,13.93c-.56-3.42-.93-6.49,5.98-6.49h138.54c3.19,0,4.26,1.83,5.04,4.17,8.03,24.06,20.82,49.53,36.05,70,2.84,3.82.61,4.95-5.3,4.87Z" style="fill: #231815;"/>
    <path d="M196.04,91.82H30.87c-2.55,0-4.87-1.49-5.89-3.81C14.11,63.29,6.31,36.92,2.08,9.39c-.6-3.89,2.43-7.39,6.38-7.39h147.94c2.8,0,5.3,1.8,6.14,4.46,8.57,27.37,21.77,52.71,38.68,75.12,3.18,4.21.12,10.24-5.18,10.24Z" style="fill: none; stroke: #231815; stroke-miterlimit: 10; stroke-width: 4px;"/>
  </g>
</svg>